<svg width="1024" height="124" viewBox="0 0 1024 124" fill="none" xmlns="http://www.w3.org/2000/svg">
<path opacity="0.39" d="M1024 38.4433C966.62 27.8733 869.59 22.9534 755.76 51.0734C599.9 89.5734 538.91 110.433 300.83 38.7833C159.62 -3.71669 49.05 -2.05673 0 1.86327V102.253C135.35 57.6833 232.35 85.8333 408.5 115.723C578.71 144.603 665.83 88.1534 777.64 52.9534C872.05 23.2334 968.81 31.7833 1024 41.1333V38.4433Z" fill="#C6A067"/>
<g style="mix-blend-mode:multiply" opacity="0.15">
<path d="M1024 6.08321C665.63 -15.8968 604.53 79.3033 403.37 75.2033C284.42 72.7833 234.18 49.2632 143.95 36.1232C79.19 26.6932 28.95 32.4733 0 38.2533V43.2033C143.56 7.11333 223.14 87.4233 402.35 101.533C537.83 112.203 752.4 51.7433 839.52 49.2633C924.05 46.8533 991.68 66.6033 1024.01 86.6933V6.07332L1024 6.08321Z" fill="#8D8064"/>
</g>
</svg>
