<?xml version="1.0" encoding="UTF-8"?>
<svg id="Layer_2" data-name="Layer 2" xmlns="http://www.w3.org/2000/svg" viewBox="0 0 448.81 468.11">
  <defs>
    <style>
      .cls-1 {
        fill: none;
      }

      .cls-1, .cls-2 {
        stroke-width: 0px;
      }

      .cls-2 {
        fill: #d79d64;
        fill-rule: evenodd;
      }
    </style>
  </defs>
  <g id="Layer_1-2" data-name="Layer 1">
    <g>
      <path class="cls-1" d="m448.81,234.05c-.03-29.84-5.49-59.76-16.33-87.66-10.8-27.91-26.93-53.78-47.42-75.69-20.46-21.92-45.3-39.87-72.85-52.1C284.7,6.34,254.52-.01,224.4,0c-30.11-.01-60.3,6.34-87.81,18.61-27.54,12.23-52.39,30.18-72.85,52.1-20.49,21.91-36.61,47.78-47.42,75.69C5.49,174.29.03,204.21,0,234.05c.03,29.84,5.49,59.76,16.33,87.66,10.8,27.91,26.93,53.78,47.42,75.69,20.46,21.92,45.3,39.87,72.85,52.1,27.52,12.26,57.7,18.62,87.81,18.61,30.11.01,60.3-6.34,87.81-18.61,27.54-12.23,52.39-30.18,72.85-52.1,20.48-21.91,36.61-47.78,47.42-75.69,10.84-27.9,16.3-57.82,16.33-87.66h-30.5c-.03,26.19-4.82,52.31-14.27,76.64-9.42,24.33-23.48,46.86-41.26,65.88-17.76,19.03-39.25,34.53-62.94,45.05-23.68,10.55-49.52,15.99-75.44,15.99-25.92,0-51.76-5.44-75.44-15.98-23.69-10.52-45.18-26.02-62.94-45.05-17.78-19.02-31.84-41.55-41.26-65.88-9.45-24.34-14.24-50.45-14.27-76.64.03-26.19,4.82-52.31,14.27-76.64,9.42-24.34,23.48-46.86,41.26-65.88,17.76-19.03,39.25-34.53,62.94-45.05,23.68-10.55,49.52-15.99,75.44-15.99,25.93,0,51.76,5.44,75.44,15.98,23.69,10.52,45.18,26.02,62.94,45.05,17.78,19.02,31.84,41.55,41.26,65.88,9.45,24.34,14.24,50.45,14.27,76.64h30.5Z"/>
      <path class="cls-2" d="m436.84,233.98c-.24.34-.33-.55-.5-.79.08-1.16.12-2.52.43-2.39.03,1.06.05,2.12.08,3.18Z"/>
      <path class="cls-2" d="m424.3,132.68c-1.77-3.52-1.37-3.85-2.85-6.93-1.24-2.85-1.42-2.29-2.22-3.53-8.23-16.48-18.81-31.16-29.27-42.25.44.14-.56-1.09-1.44-2.06.52-.26,1.65.48,3.07,1.76,1.52,1.75,3.02,3.48,4.5,5.2.76.85,1.46,1.74,2.14,2.63.69.89,1.38,1.78,2.07,2.66,1.36,1.78,2.77,3.51,4.06,5.31,1.27,1.82,2.54,3.63,3.81,5.43l1.9,2.71,1.78,2.78c1.19,1.86,2.38,3.71,3.57,5.58,1.21,1.85,2.25,3.81,3.41,5.71,1.11,1.93,2.3,3.83,3.39,5.8-1.88-.71,3.5,9.22,2.08,9.2Z"/>
      <path class="cls-2" d="m283.74,8.96c-1.13-.58-4.12-1.41-3.89-1.74,2.35.67,3.63,1.32,3.89,1.74Z"/>
      <path class="cls-2" d="m261.59,33.51c-2.92-.35-8.96-1.47-10-1.98-2.06-.06-4.06-.12-6.36-.26-2.3-.13-4.92-.14-8.19-.44-.56-.27-1.18-.54-1.41-.84,1.85-.08,4.34-.15,7.06-.16,1.36-.04,2.77.05,4.18.16,1.41.1,2.83.22,4.2.36,1.37.16,2.7.25,3.9.52,1.2.25,2.31.51,3.25.79,1.89.56,3.15,1.18,3.36,1.85Z"/>
      <path class="cls-2" d="m114.87,35.42c3.05-1.69-2.32,1.78.19.31-.37.54-3.98,2.46-3.65,1.91.99-.68,3.71-2.07,3.46-2.22Z"/>
      <path class="cls-2" d="m44.84,99.63c.39-.01.26.55-.99,2.33-.39.01-.26-.54.99-2.33Z"/>
      <path class="cls-2" d="m7.65,227.61c-.53,4.81.24,4.26-.38,7.3.17,2.19.28,4.55.36,7,.03,1.23.07,2.48.1,3.74.08,1.26.16,2.53.25,3.8.16,2.54.32,5.09.48,7.56.26,2.46.56,4.83.86,7.03.52,4.37,1.69,8.31,2.56,12.72,3.55,17.55,9.45,36.63,16.86,53.09,4.36,9.45,9.4,18.91,13.82,26.53-1.33-1.34-2.96-3.31-4.55-5.76-1.56-2.48-3.22-5.37-4.9-8.42-1.53-3.12-3.06-6.39-4.53-9.55-1.33-3.22-2.61-6.33-3.74-9.07-.52-1.05-.96-2.01-1.36-2.86-.41-.85-.8-1.6-1.16-2.26-5.33-14.54-9.12-27.35-11.81-39.75-.58-3.12-1.16-6.19-1.73-9.25-.48-3.07-.81-6.15-1.18-9.23-.42-3.07-.49-6.18-.64-9.31-.05-1.56-.1-3.13-.15-4.72,0-1.58.07-3.18.13-4.78-.22-2.18-.28-4.21-.34-6.31-.06-2.1.05-4.26-.06-6.71.07-.72.14-1.45.28-1.62.2-1.15.58.19.83.83Z"/>
      <path class="cls-2" d="m32.84,332.38c1.32,2.31,3.86,7.31,3.19,7.34,1.69,2.53,2.96,5.66,4.98,9.14,5.08,9.99,12.27,21.14,21.07,31.96,8.78,10.84,19.15,21.33,29.97,30.64.47,1.12-1.73-.73-2.96-1.5-2.18-1.84-4.11-3.67-6.04-5.36-1.9-1.71-3.85-3.24-5.59-4.96-1.78-1.68-3.55-3.35-5.34-5.12-1.78-1.77-3.44-3.76-5.21-5.86-2.57-2.44-4.9-5.27-7.25-8.15-2.41-2.84-4.5-6-6.65-9.07-4.21-6.21-7.9-12.62-11.19-18.39-2.28-4.62-6.48-13.15-10.31-20.93-.22-.81.72-.37,1.34.26Z"/>
      <path class="cls-2" d="m78.15,395.72l.26-.26c1.27,1.14,2.45,2.36,3.69,3.49,1.23,1.14,2.46,2.27,3.68,3.39,1.22,1.12,2.41,2.26,3.65,3.34,1.27,1.04,2.54,2.05,3.84,3.03-.61-.17-1.69-.87-2.86-1.66-.58-.4-1.18-.81-1.75-1.19-.55-.4-1.07-.77-1.51-1.04-3.6-3.5-6.64-5.94-9-9.08Z"/>
      <path class="cls-2" d="m93.7,413.28c-.03-.44,1.36.69,3.05,1.9,1.67,1.24,3.52,2.72,4.17,3.29-1.23-.68-2.37-1.52-3.54-2.41-1.18-.89-2.38-1.82-3.68-2.78Z"/>
      <path class="cls-2" d="m247.53,458.7c.99-.57,6-2.25,9.54-2,1.89-.55,3.88-1.07,5.96-1.55,1.04-.23,2.11-.47,3.19-.71.54-.11,1.09-.23,1.64-.35.55-.14,1.1-.28,1.66-.43,2.23-.56,4.53-1.15,6.91-1.74.59-.15,1.19-.31,1.79-.46.59-.19,1.19-.38,1.79-.56,1.19-.39,2.41-.79,3.63-1.19-.6.67,4.33-.81,5.48-1.42-.43-.24-2.89,1.23-2.39.5,6.27-2.28,12.51-4.32,16.51-6.43.29.09-.62.48-.6.64.17.08,1.39-.46,2.28-.81-.16.32-6.45,2.86-3.77,1.42-1.34.53-1.51.79-2.94,1.34,2.86-.98-.65,1.02,3.96-.97-.1.23-2.21.96-2.15,1.15-1.35.44-1.52.17-2.48.31-2.22,1.04-11.41,4.08-8.95,3.81-1.53.66-4.15,1.21-6.72,1.79-1.29.29-2.56.6-3.69.91-1.15.27-2.14.58-2.86.94-2.46.55-4.63,1.08-6.69,1.63-2.07.51-4.06.92-6.12,1.42-1.03.24-2.08.49-3.18.74-1.1.26-2.24.53-3.46.71-2.44.41-5.15.85-8.33,1.3Z"/>
      <path class="cls-2" d="m306.21,441.14c1.55-.52,3.16-.97,1.73-.06-1.64.66-1.72.38-1.73.06Z"/>
      <path class="cls-2" d="m311.19,438.49c2.26-1.13,2.06-.61,3.79-1.39-.93.8-4.01,1.84-3.79,1.39Z"/>
      <path class="cls-2" d="m321.65,434.22c.05-.28,1.06-.81,2.34-1.46,1.27-.66,2.84-1.39,3.9-2.23,0,.55-3.97,2.42-6.24,3.69Z"/>
      <path class="cls-2" d="m332.03,428.04c1.06-.88,1.46-1.44,3.87-2.92-.57.71-1.85,1.64-3.87,2.92Z"/>
      <path class="cls-2" d="m398.86,372.98c1.7-2.05,2.78-3.29,3.46-3.59-.53.51-1.21,1.46-1.9,2.22-.69.76-1.3,1.4-1.56,1.36Z"/>
      <path class="cls-2" d="m268.64,435.61c-1.56.3-3.16.61-4.76.92-1.61.23-3.23.48-4.83.75-1.6.27-3.18.56-4.73.89-1.56.24-3.08.52-4.54.84-1.7.18-3.45.36-5.23.54-1.79.09-3.62.17-5.47.26-1.85.06-3.72.24-5.61.23-1.89,0-3.79,0-5.69,0l-2.85.03c-.95.02-1.9-.06-2.84-.09-1.89-.06-3.77-.11-5.62-.17-1.86,0-3.69-.14-5.49-.25-1.8-.1-3.57-.18-5.3-.23-1.2-.2-2.44-.4-3.71-.61-1.27-.2-2.56-.36-3.86-.52-1.3-.17-2.61-.3-3.9-.5-1.28-.24-2.54-.49-3.77-.78-11.62-2.65-23.29-5.88-34.69-9.94-11.4-4.04-22.53-8.9-32.9-14.61-1.5-.87-2.89-1.91-4.35-2.85-1.54-.93-3.09-1.83-4.65-2.74-1.52-.97-3.05-1.95-4.6-2.95-1.54-1.02-3.17-1.97-4.7-3.11-1.55-1.13-3.13-2.3-4.74-3.53-.82-.64-1.68-1.26-2.5-1.95-.81-.7-1.62-1.4-2.44-2.12-1.63-1.44-3.32-2.88-4.96-4.41-3.17-3.17-6.52-6.33-9.52-9.84l-2.3-2.59-1.15-1.29c-.37-.44-.73-.9-1.09-1.35-1.44-1.8-2.88-3.6-4.3-5.38-.73-.88-1.39-1.8-2.05-2.73-.66-.92-1.32-1.83-1.97-2.74-1.3-1.82-2.64-3.58-3.79-5.43.11-.17.4-.16-.54-1.45-9.06-14.31-15.5-29.04-21.72-45.61-.74-2.03-1.64-3.94-2.34-5.9-.69-1.97-1.33-3.94-1.79-6.01-.43-1.05-.92-2.15-1.32-3.33-.39-1.19-.8-2.42-1.22-3.69-.8-2.54-1.74-5.16-2.38-7.8-.45-2.51-1.1-5.36-1.7-8.4-.52-3.05-1.11-6.26-1.73-9.41-.47-3.18-.97-6.3-1.48-9.15-.29-1.42-.42-2.79-.63-4.06-.19-1.27-.39-2.45-.58-3.5-.02-1.48-.1-2.92-.2-4.34-.04-1.42-.1-2.82-.19-4.23-.09-1.4-.17-2.81-.26-4.25-.04-.72-.08-1.44-.12-2.17,0-.73.01-1.47.02-2.23.08-16.72,2.13-36.15,7.35-54.92,1.17-4.73,2.75-9.34,4.22-13.94.77-2.29,1.68-4.53,2.5-6.78.42-1.12.84-2.24,1.25-3.36.47-1.09.93-2.19,1.4-3.27.94-2.17,1.86-4.33,2.78-6.46,1.01-2.09,2.02-4.16,3.01-6.2.5-1.02.96-2.05,1.5-3.03.54-.98,1.07-1.96,1.6-2.93,1.06-1.94,2.08-3.86,3.13-5.72,1.27-2.86,2.64-4.76,4.29-7.93,1.44-1.95,3.19-4.31,5-6.96.88-1.34,1.9-2.67,2.92-4.03,1.01-1.38,2.03-2.78,3.06-4.18.99-1.43,2.11-2.76,3.15-4.11,1.05-1.35,2.07-2.67,3.06-3.95.95-1.3,2-2.44,2.92-3.57.92-1.12,1.78-2.16,2.56-3.11.52-.46,1.07-.98,1.65-1.55.59-.55,1.22-1.13,1.88-1.74,1.3-1.23,2.7-2.6,4.15-4.04,1.41-1.48,3.05-2.84,4.62-4.29,1.61-1.41,3.17-2.89,4.83-4.14,2.6-1.96,5.11-3.77,7.46-5.45,2.4-1.61,4.56-3.18,6.33-4.87,1.47-1.08,3.06-2.02,4.58-3.06,1.54-1.03,3.09-2.06,4.65-3.1,1.6-.97,3.22-1.95,4.85-2.94,1.63-.98,3.24-2.03,4.96-2.9,3.41-1.8,6.81-3.76,10.46-5.31,1.81-.82,3.63-1.64,5.47-2.43,1.88-.7,3.78-1.4,5.7-2.07,3.08-1.17,6.3-1.99,9.52-2.9,3.19-.98,6.51-1.64,9.81-2.49,1.1-.34,2.19-.71,3.29-1.01,1.11-.27,2.21-.55,3.3-.82,2.2-.52,4.37-1.1,6.58-1.56,4.44-.79,8.86-1.8,13.55-2.44.1-.16-.17-.32.69-.46,1.38-.13,2.94-.36,4.63-.64,1.7-.21,3.53-.43,5.41-.66.94-.11,1.9-.23,2.86-.35.96-.12,1.93-.23,2.89-.25,1.93-.08,3.84-.11,5.65-.05,1.45-.12,2.88-.34,4.31-.4,1.43-.08,2.87-.16,4.31-.24,1.46-.08,2.93-.16,4.44-.25,1.51-.06,3.06,0,4.67,0,1.61.04,3.29.07,5.03.11,1.75.03,3.57.29,5.49.47,1.92.21,3.94.41,6.06.73,2.11.39,4.34.81,6.7,1.29.96.03,2.06.07,3.25.23,1.19.18,2.48.4,3.85.66,2.74.52,5.8,1.11,8.88,2.04,3.08.88,6.29,1.69,9.25,2.77,1.5.5,2.96.98,4.37,1.44.7.22,1.39.44,2.06.66.66.24,1.3.47,1.92.7,1.85.82,4,1.76,6.26,2.76,2.25,1.02,4.54,2.26,6.79,3.41,1.12.59,2.23,1.14,3.28,1.75,1.03.63,2.02,1.24,2.95,1.82,1.86,1.17,3.46,2.24,4.64,3.13,4.37,2.78,8.43,5.3,13.88,8.98,1.53,1.21,2.11,1.86,4.03,3.39.96.47,2.26,1.3,3.83,2.4,1.03.93,2.22,1.82,3.37,2.9,1.16,1.06,2.4,2.16,3.69,3.28,2.63,2.19,5.27,4.74,8.02,7.25.69.63,1.39,1.25,2.08,1.88l2,1.98c1.35,1.31,2.69,2.61,4.01,3.9l1,.95.94.99c.63.66,1.25,1.3,1.86,1.94,1.24,1.27,2.44,2.5,3.6,3.69.66,1.43,3.32,3.81,4.06,5.42,7.26,8.39,14.35,17.67,20.44,27.69,6.1,10.01,11.05,20.8,14.38,31.7-.02,1,.06,2.13.17,3.29.06.58.12,1.17.18,1.75.04.59.07,1.17.1,1.74.12,2.26.13,4.22-.45,5.06.16.93.48,2.15.74,3.26.24,1.12.37,2.13.28,2.6-.46-.24-.18,1.14-.31,1.62,1.37,6.45,2.94,18.98,4.94,25.95,1.62,3.36,3.32,7.64,3.88,1.69,1.29.24,2.39-2.04,3.51-2.14,1.1-.1,2.32,2.02,3.62,11.22,1.32,2.78,2.26,5.96,3.71,4.34.18-2.34.52-4.14.78-6.23.19-2.09.33-4.47.21-8.02.41,1.43.31.05.6-.08-.09-.83-.19-1.76-.29-2.7-.15-.93-.29-1.87-.43-2.72-.25-1.69-.38-3.03-.13-3.24.32,2.07.62,3.68.92,5.03.31,1.35.5,2.45.77,3.49.49,2.07,1,3.89,1.46,7.04.94,3.45,1.69,4.49,2.51,5.29.79.8,1.55,1.37,2.22,3.96-.02,2.11-.04,2.44.14,4.84.84,1.34,1.01-1.73,1.63,2.37.23-.74.31-1.63.34-2.71,0-.54.02-1.12,0-1.76-.04-.63-.07-1.32-.11-2.05.56-1.24.79-3.97.88-7.29.02-.83.06-1.7.03-2.59-.04-.89-.07-1.8-.11-2.72-.08-1.84-.16-3.72-.24-5.52-.27-2.65-.71-5.16-1.08-7.59-.36-2.43-.71-4.77-1.04-7.05-.41-2.26-.81-4.46-1.2-6.61-.39-2.15-.72-4.27-1.22-6.33-.47-2.07-.93-4.11-1.4-6.15-.24-1.02-.46-2.04-.73-3.05-.29-1.01-.58-2.02-.88-3.03-.6-2.02-1.22-4.07-1.87-6.14-.31-1.04-.69-2.07-1.09-3.11-.4-1.04-.81-2.09-1.22-3.15.26-.37-.22-2.12-.96-4.18-.19-.51-.39-1.05-.6-1.59-.24-.52-.48-1.05-.72-1.57-.49-1.03-.98-2-1.4-2.79-.33-1.52.66-.91-.32-3.49-1.22-1.97-.16.89-.44,1.11-1.35-2.75-4.72-8.97-5.42-11.2-.73-1.2-1.61-2.66-2.59-4.28-.95-1.63-2-3.41-3.06-5.24-1.02-1.85-2.2-3.65-3.35-5.38-1.14-1.73-2.26-3.36-3.3-4.77-.46-1.29-1.26-2.74-2.28-4.52-1.03-1.77-2.33-3.85-3.95-6.25-.41.17-1.38-.69-2.27-1.41-4.93-6.18-8.71-10.92-12.47-15.63-1.96-2.29-3.92-4.57-6.07-6.95-2.21-2.33-4.7-4.68-7.54-7.26-1.36-1.61-3.31-3.41-5.47-5.47-1.09-1.01-2.23-2.1-3.46-3.15-1.25-1.03-2.54-2.09-3.85-3.16-5.99-5.99-14.38-12.51-23.77-18.43-9.35-5.99-19.93-10.95-29.79-14.58-1.23-.84-2.71-1.65-4.35-2.44-.82-.38-1.67-.81-2.57-1.14-.91-.33-1.83-.67-2.77-1.01-1.89-.65-3.82-1.31-5.72-1.96-.47-.16-.94-.33-1.41-.49-.47-.14-.94-.28-1.41-.42-.93-.28-1.83-.57-2.7-.87l-4.13-1.43-2.06-.73-2.09-.64c-2.79-.84-5.59-1.67-8.42-2.48-5.7-1.33-11.49-2.63-17.48-2.95-1.37-.18-.51.27-1.71.14-1.08-.15-2.21-.31-3.37-.47-1.17-.09-2.37-.19-3.6-.28-2.46-.17-5.02-.34-7.61-.51-2.6-.04-5.24-.07-7.84-.11-1.3-.02-2.6-.04-3.87-.06-1.28.04-2.54.07-3.77.11-7.05.08-13.88.14-20.89,1.11-2.03.33-3.93.66-5.7,1-1.78.35-3.44.64-4.97,1.11-3.07.86-5.71,1.75-7.98,2.72-1.57.24-3.12.78-4.72,1.26-1.58.52-3.19,1.05-4.8,1.58-.81.26-1.61.52-2.41.78-.79.29-1.59.56-2.38.82-1.59.51-3.18.95-4.76,1.25-1.15.49-.78.76-3.02,1.41-1.52.57-1.6.39-2.42.6.22.4.98.02.23.69,2.13-.91,3.76-1.41,5.29-1.94,1.53-.53,2.96-1.05,4.78-1.81,1.09-.27,1.55-.31,3.21-.79,2.14-.71,4.37-1.44,6.69-2.21,1.17-.37,2.35-.79,3.57-1.13,1.23-.32,2.48-.65,3.75-.99,1.28-.33,2.58-.66,3.9-1,1.33-.33,2.67-.7,4.06-.93,2.77-.53,5.65-1.05,8.62-1.55,2.87-.44,5.79-.65,8.67-.91,1.44-.11,2.87-.27,4.28-.32,1.41-.04,2.81-.08,4.18-.11,2.73-.05,5.36-.21,7.8-.22,2.44,0,4.71-.04,6.73-.18,1.91.1,1.09.51,2.48.67,2.18-.15,4.21.12,6.35.34,2.13.26,4.37.48,6.95.71,3.61.38,6.75.17,10.86.74,4.14.74,7.5,1.45,10.98,2.3,3.46.94,7.08,1.93,11.77,3.21,1.81.96,5.04,1.99,7.86,2.91,2.8.97,5.16,1.94,5.31,2.4-.94-.11-2.29-.72-3.71-1.34-1.41-.63-2.95-1.13-4.18-1.26,1.54.6,3.34,1.18,3.82,1.68-4.17-.89-7.15-1.09-10.33-1.47-1.58-.22-3.28-.27-5.19-.52-1.92-.23-4.08-.55-6.68-1.05-4.32-.88-8.07-1.55-11.39-2.02-3.34-.34-6.24-.55-8.85-.67-14.02-1.98-31.19-2.49-48.09-.29-2.11.3-4.21.6-6.31.9-1.05.16-2.1.28-3.14.48-1.04.21-2.07.41-3.1.62-2.06.42-4.11.83-6.14,1.24-2.03.42-4,1.01-5.97,1.5-1.96.52-3.91,1.01-5.81,1.55-1.88.61-3.74,1.21-5.56,1.8-1.81.62-3.62,1.13-5.34,1.81-1.71.67-3.39,1.32-5.03,1.96-1.65.51-3.26.95-4.81,1.54-1.54.58-3.07,1.18-4.63,1.81-1.56.64-3.17,1.28-4.84,2.05-1.65.81-3.38,1.68-5.25,2.64-1.18.34-2.54.82-4.02,1.42-1.45.65-3.02,1.44-4.67,2.29-1.64.86-3.38,1.78-5.12,2.78-1.7,1.07-3.45,2.17-5.19,3.26-3.52,2.13-6.79,4.59-9.8,6.63-.75.51-1.48,1-2.18,1.47-.69.49-1.35.96-1.97,1.41-1.25.88-2.4,1.64-3.39,2.23-.65.87-1.84,1.99-3.3,3.22-1.41,1.3-3.1,2.71-4.83,4.09-3.52,2.68-6.92,5.53-8.75,6.72-.16.43-.6,1.01-1.21,1.68-.62.66-1.4,1.42-2.22,2.26-1.66,1.64-3.63,3.4-5.16,4.73-.14-.11,2.15-2.69-.26-.25-1.15,1.11-1.03,1.24-1.54,1.9-1.18.9-2.63,2.19-3.36,2.43-2.1,2.18-2.21,2.72-4.29,4.91.35-.78.55-1.39,1.73-2.82,2.83-3.36,3.54-3.55,5.22-5.19-.28-.13-1.35.88.21-.92,1.32-.25,3.58-3.84,5.55-4.85-1.06,1.08-1.87,1.98-2.14,2.48,1.09-1.17,2.29-2.45,3.46-3.69,1.15-1.26,2.38-2.37,3.36-3.36-.64.59-1.58,1.35-.69.46-11.04,9.29-20.23,19.4-28.29,30.24-8.05,10.86-14.98,22.47-21.19,35.29-.93,1.26-2.37,3.92-3.65,6.42-1.5,3.85-2.83,7.12-3.75,9.75-.8,2.67-1.22,4.68-1.02,5.95.88-2.29,1.61-4.51,2.52-6.69.91-2.18,1.83-4.38,2.82-6.75.94-2.4,2.2-4.85,3.53-7.66.68-1.4,1.39-2.87,2.16-4.44.84-1.53,1.73-3.15,2.68-4.88,1.86-2.71,3.44-4.72,4.44-4.95-5.97,11.05-12.53,22.89-16.45,34.27-.56,1.63-.64,2.35-1.2,3.87-.9,2.34-1.54,4.43-2.17,6.32-.64,1.88-1.22,3.56-1.76,5.15-.59,1.58-1,3.1-1.47,4.61-.46,1.52-.91,3.04-1.4,4.67-3.6,12.7-5.69,26.75-6.95,39.84-.23,2.89-1.08,5.72-.71,8.88.31-3.57.77-7.31,1.05-10.81.12-1.75.37-3.43.54-5.01.18-1.57.32-3.03.43-4.33.56-3.67,1.67-8.6,2.61-13.75.51-2.57,1.19-5.15,1.75-7.65.29-1.25.57-2.48.84-3.67.27-1.19.63-2.31.91-3.39,1.41-4.21,2.56-8.19,3.97-12.01.65-1.93,1.29-3.83,1.94-5.74.68-1.9,1.43-3.78,2.14-5.7.74-1.91,1.41-3.89,2.25-5.85.85-1.96,1.72-3.97,2.62-6.06.46-1.04.92-2.09,1.4-3.17.53-1.05,1.06-2.13,1.61-3.23,1.12-2.19,2.24-4.48,3.53-6.84,1.09-.66,2.23-2.98,4.02-6.06.53.58,1.97-1.66,4.18-4.98,1.01-1.99-1.15.93-.1-1,1.39-1.85,2.72-3.56,3.33-3.58-1.11,1.81-2.35,3.91-3.03,4.71.88-.33,3.38-4.51,3.95-4.12-4.07,6.78-7.46,13.42-10.5,20.15-1.47,3.39-3.09,6.69-4.44,10.17-1.42,3.44-2.97,6.88-4.34,10.49-1.03,1.8-1.85,2.6-2.98,4.82-.11,1.72,2.18-3.54,2.92-3.99-.32,1.11-.71,2.37-1.15,3.68-.21.66-.45,1.32-.65,2.01-.2.69-.39,1.38-.59,2.07-.78,2.76-1.53,5.45-1.92,7.42-.46.83-.72.49-1.32,2.9-.51,1.78-.99,3.48-1.46,5.12-.46,1.65-.9,3.23-1.2,4.8-.66,3.12-1.25,6.06-1.79,8.89-.8,5.73-1.6,11.03-2.06,16.78-.11,1.09-.23,2.17-.34,3.24-.13,1.07-.23,2.14-.28,3.21-.15,2.14-.29,4.26-.44,6.37l-.23,3.17-.1,3.17c-.06,2.12-.12,4.24-.19,6.38-.11,2.14.01,4.29.04,6.47.05,2.18.11,4.39.16,6.63.18,2.24.36,4.51.55,6.83.2,2.32.38,4.68.79,7.08.06,1.25-.61-.12-.2,2.39.32,2.9.64,6.11,1.25,9.35.27,1.63.55,3.27.82,4.91.13.82.26,1.63.39,2.44.16.8.33,1.6.49,2.38.64,3.14,1.16,6.14,1.57,8.76.49,2.6.79,4.84.78,6.5,1.37,4.79,1.45,6.09,2.28,9.25.55,1.38,1.09,2.71,1.69,4.45.12,1.79,2.34,6.68,3.67,10.5.83,2.09,1.49,4.01,2.13,5.95.67,1.93,1.23,3.94,2.22,6.04,1.66,3.69,2.91,6.26,4.05,8.27,1.2,1.98,2.19,3.45,3.2,5.02.61.97,1.29,2.06,2,3.19.71,1.12,1.52,2.24,2.27,3.33,1.52,2.16,2.98,4.12,4.07,5.15-.54-1.26-1.15-2.59-1.56-3.7-3.15-4.11-6.85-8.86-10.11-15.2-.98-2.02-1.6-3.74-2.27-5.46-.33-.86-.68-1.72-1.08-2.61-.39-.9-.79-1.86-1.32-2.89l.33-.15c-5.23-10.99-7.31-19.81-9.29-28.39-.42-2.17-.83-4.33-1.26-6.53-.22-1.1-.44-2.2-.67-3.33-.19-1.13-.37-2.28-.56-3.45-.39-2.33-.83-4.75-1.34-7.29-.39-2.56-.84-5.25-1.37-8.12-.3-3.02-.25-5.97-.29-8.73-.01-2.77-.02-5.36.24-7.76.06,1.01.12,1.94.19,2.8.12.86.23,1.65.34,2.4.23,1.5.46,2.82.7,4.14s.47,2.62.7,4.08c.29,1.45.6,3.06.9,4.99.32,1.2.62,2.42.93,3.67.15.63.3,1.26.45,1.89.17.63.35,1.27.53,1.91.7,2.57,1.38,5.23,2.05,7.97,1.56,5.4,3.03,11.1,4.95,16.75,3.66,11.34,8.3,22.75,13.66,32.52.93,1.85,1.87,3.66,2.8,5.43.95,1.76,1.83,3.54,2.89,5.19,1.03,1.66,2.06,3.31,3.08,4.95.52.81,1.02,1.63,1.55,2.43l1.66,2.35c1.11,1.56,2.22,3.12,3.33,4.68.54.79,1.13,1.55,1.73,2.3.6.76,1.19,1.52,1.79,2.28,1.19,1.53,2.4,3.06,3.62,4.62,1.28,1.51,2.57,3.03,3.88,4.58.88,2.29,6.16,7.92,9.75,11.96,1.17,1.06.59-.27,2.53,1.84,1.02,1.03,1.9,1.96,2.67,2.82.76.86,1.43,1.64,2.06,2.32,1.23,1.38,2.14,2.56,2.96,3.67s1.58,2.17,2.49,3.33c.96,1.1,2.1,2.29,3.66,3.71,1.14,1,3.29,2.61,4.93,3.82,1.16.88,2.84,2.21,4.46,3.49.81.64,1.61,1.27,2.32,1.83.72.55,1.39.98,1.88,1.3,3.59,2.29,7.08,4.46,10.84,6.35,1.86.97,3.71,2.01,5.64,3.01,1.95.96,3.94,1.97,5.97,3.06,11.69,6.16,25.59,11.92,39.55,15.83,2.8.97,6.06,1.78,9.54,2.68.87.24,1.77.42,2.68.59.91.17,1.84.35,2.77.52,1.87.34,3.79.7,5.73,1.05,1.96.26,3.94.52,5.93.78l2.99.4c1,.14,1.99.28,3,.34,2,.19,3.99.37,5.95.56.98.11,1.95.21,2.92.31.97.1,1.93.13,2.87.21,1.48-.06,3.08-.09,4.76-.09,1.68-.01,3.44.06,5.25-.05,1.81-.05,3.68-.11,5.57-.16.95-.02,1.9-.05,2.85-.07.95-.03,1.91-.14,2.86-.2,7.62-.49,15.12-1.56,20.42-3.18,2-.41.68.35,3.11-.21,1.62-.45,3.3-.86,4.97-1.25,1.65-.47,3.3-.93,4.87-1.38,1.57-.45,3.07-.89,4.42-1.34,1.35-.47,2.52-1.04,3.49-1.57,1.7-.55,2.84-.82,3.73-.98,1.2-.45,2.43-.84,3.62-1.36,1.19-.51,2.38-1.02,3.58-1.53,2.38-1.05,4.83-1.98,7.19-3.2,2.38-1.16,4.78-2.33,7.22-3.53,2.39-1.29,4.8-2.6,7.26-3.93,9.74-5.48,19.78-11.83,30.5-19.48,7.55-4.01,14.25-8.14,21.76-13.55,6.36-4.28,12.5-7.82,21.29-17.61,2.17-2.8,3.82-5.65,5.42-8.24.77-1.31,1.55-2.55,2.19-3.81.64-1.26,1.24-2.47,1.81-3.65.55-1.17,1.09-2.3,1.6-3.39.25-.54.49-1.08.73-1.6.22-.53.42-1.06.63-1.58.79-2.06,1.52-3.96,2.19-5.7,1.3-2.23,1.93-3.94,2.31-5.24.39-1.29.52-2.18.63-2.87.65-1.34,1.29-2.65,1.91-3.94.57-1.31,1.13-2.61,1.68-3.88.55-1.27,1.1-2.53,1.64-3.78l.82-1.87.73-1.9c.99-2.53,1.98-5.07,2.99-7.68.92-2.65,1.87-5.38,2.87-8.25.53-1.43.96-2.85,1.4-4.23.45-1.38.9-2.73,1.33-4.05.43-1.32.93-2.59,1.32-3.87.4-1.28.79-2.53,1.18-3.77.4-1.23.8-2.45,1.2-3.65.2-.6.4-1.2.6-1.79.19-.6.35-1.2.53-1.79.71-2.38,1.4-4.73,2.09-7.07.37-1.17.67-2.35.96-3.54.29-1.19.58-2.38.87-3.58.56-2.41,1.21-4.84,1.59-7.38.43-2.54.85-5.15,1.23-7.87.29-2.73.48-5.58.65-8.56.19-1.03.45-1.5.57-3.08-.72-1.47.8-9.51-.34-10.85-.44,2.01-.85,5.21-1.15,8.81-.09.9-.12,1.82-.23,2.76-.1.93-.2,1.88-.3,2.82-.19,1.89-.34,3.79-.44,5.59-.22.59-.36,1.3-.5,2.09-.16.79-.29,1.67-.41,2.6-.24,1.86-.44,3.94-.77,5.94-.11.62-.23,1.24-.34,1.85-.14.6-.3,1.19-.46,1.77-.32,1.16-.65,2.29-.97,3.39-.67,2.19-1.23,4.3-1.82,6.35-.34,1.18-.41,2.55-.54,3-.91,3.29-1.91,5.9-3.2,10.2-.67,2.41-1.22,4.41-1.71,6.17-.56,1.75-1.03,3.28-1.48,4.79-.44,1.51-.87,2.99-1.35,4.63-.53,1.62-1.15,3.39-1.87,5.51-1.39,4.33-3.18,8.53-4.77,12.62-.2.51-.4,1.02-.6,1.52-.22.49-.44.99-.66,1.48-.43.98-.86,1.95-1.27,2.9-.84,1.9-1.59,3.77-2.38,5.52-1.65,3.46-3.01,6.65-4.12,9.35-1.17,2.66-1.97,4.89-2.25,6.54-1.77,2.98-2.77,5.01-3.52,7.06-.38,1.01-.73,2.01-1.16,3.07-.42,1.06-.92,2.19-1.68,3.41-2.32,3.19-3.16,4.53-4.03,5.83-.83,1.32-1.81,2.52-4.34,5.49-1.51,1.27-2.93,2.51-4.41,3.63-1.49,1.08-2.95,2.14-4.39,3.19-1.46,1.02-2.83,2.08-4.33,3.02-1.48.96-2.96,1.92-4.47,2.9-6,3.96-12.6,8-21.02,13.45-3.75,2.89-7.35,5.71-9.96,6.75,1.03-.85,2.18-1.66,3.31-2.63,1.14-.95,2.34-1.93,3.59-2.94,1.25-1.02,2.59-2.01,3.9-3.12,1.31-1.11,2.66-2.26,4.04-3.43,2.83-2.27,5.57-4.89,8.47-7.48,1.47-1.27,2.85-2.67,4.25-4.06,1.41-1.39,2.83-2.79,4.25-4.19,1.35-1.47,2.71-2.94,4.06-4.41,1.34-1.48,2.73-2.91,3.96-4.46,2.5-3.06,5.06-6,7.21-9.09,1.1-1.52,2.18-3.02,3.24-4.48,1.02-1.48,1.93-2.99,2.85-4.43.9-1.45,1.76-2.86,2.58-4.22.77-1.39,1.46-2.76,2.12-4.06-.91.93-1.72,2.14-2.51,3.45-.85,1.27-1.68,2.64-2.56,3.94-9.6,14.24-22.17,28.61-37.77,41.97-1.17.98-2.32,1.96-3.46,2.95l-1.7,1.49c-.57.49-1.17.95-1.75,1.42-1.17.95-2.34,1.9-3.51,2.86-1.18.94-2.32,1.96-3.57,2.84-2.47,1.8-4.93,3.69-7.58,5.46-2.7,1.69-5.44,3.48-8.42,5.1-1.77.9-3.44,1.74-5.08,2.57-.82.41-1.63.81-2.45,1.21-.82.38-1.66.73-2.5,1.1-3.37,1.45-6.8,3.07-11,4.74-.37-.06-2.2.8-1.56.12-1.21.52-2.39,1.03-3.59,1.45-1.21.39-2.4.74-3.59,1.08-1.18.32-2.35.64-3.51.96-1.16.32-2.3.61-3.47.83-2.31.49-4.58.99-6.83,1.61-1.12.34-2.26.59-3.39.92-1.13.32-2.26.68-3.4,1.1.34-.34,2.1-.75.6-.64Zm160.03-233.32c-.09-.97.15-.81.24-.03.13-.14-.06-1.42-.22-2.32.13.08.31.79.42,1.5.12.71.23,1.43.37,1.52.02-.63.04-1.37,0-2.17-.07-.79-.14-1.65-.22-2.52.3,1.06.49,2.04.56,2.87.04.83,0,1.51-.11,1.95-.21.88-.64.82-1.05-.8Zm-8.82-49.28c.41-.55,1.62,1.72,2.83,4.43,1.14,2.73,2.14,5.94,2.47,7.12.32,1.2.67,2.83.78,3.85.07,1.04-.06,1.46-.61.23-1.35-2.68-3.22-11.5-5.47-15.63Zm-10.23-19.52c-.14.35-.47.09-.89-.44-.37-1.02-.86-2.37-1.57-3.77-.71-1.4-1.49-2.94-2.25-4.45-.77-1.5-1.49-2.99-2.09-4.28-.64-1.27-1.13-2.37-1.33-3.16,1.96,3.22,2.94,5.41,4.05,7.67,1.09,2.27,2.33,4.58,4.09,8.42Zm-10.73-22.83c.05.65-1.08-1.16-1.29-1.05-.38-.99-1.69-2.98-1.71-3.59,1.62,2.21,1.56,2.61,3.01,4.64Zm-3.75-.35c-1.16-1.87-2.36-3.81-3.59-5.78-1.26-1.96-2.67-3.89-4.05-5.88-.7-.99-1.41-1.99-2.13-3-.74-.99-1.53-1.94-2.31-2.92-1.58-1.94-3.15-3.92-4.84-5.82-1.49-1.61-3.01-3.16-4.52-4.66-.76-.75-1.51-1.49-2.25-2.22-.78-.7-1.55-1.39-2.31-2.07-1.52-1.36-2.98-2.69-4.37-4.01-1.38-1.33-2.79-2.51-4.02-3.77,3.19,2.27,6.83,5.74,10.43,9.02,1.78,1.66,3.43,3.4,5.02,4.91,1.58,1.53,3.08,2.85,4.27,3.98,1.17,1.53,2.4,3.14,3.65,4.76.61.82,1.26,1.61,1.84,2.45.58.84,1.17,1.67,1.74,2.49,1.15,1.63,2.29,3.2,3.37,4.64,1.11,1.42,2.02,2.81,2.95,3.93-.09.84,1.89,3.89,1.1,3.98Zm-.59-6.25l-.3.21c-.49-.66-1.04-1.48-1.68-2.27-.63-.8-1.28-1.64-1.85-2.42-1.14-1.55-1.97-2.86-1.79-3.16,1.28,1.48,2.13,2.54,2.95,3.65.82,1.1,1.61,2.25,2.66,4Zm-5.8-8.5c-.46-.43-.73-.51-.86-.34-1.06-1.38-1.39-1.99-1.15-1.94.25.05,1.02.81,2.01,2.28Zm1.43-2.12c-.25-1.09-2.4-3.09-3.42-4.44-.99-1.3-1.7-2.42-2.38-3.48-.68-1.06-1.31-2.08-2.23-3.12-1.67-1.93-2.97-3.14-4.39-4.49-.71-.68-1.45-1.38-2.31-2.2-.88-.8-1.85-1.74-3-2.91-1.47-1.45-1.23-.59-2.13-1.27-11.11-10.25-22.63-19.03-35.28-27.09-12.67-8.02-26.55-15.24-42.8-21.61.87-.33,3.7.45,6.23,1.11,2.49.75,4.71,1.31,4.46.23,2.23.88,4.41,1.67,6.47,2.6,2.04.96,4.03,1.89,5.97,2.8.97.46,1.92.92,2.87,1.38.92.5,1.83.99,2.74,1.48,1.81.98,3.58,1.94,5.33,2.9,3.47,1.96,6.76,4.03,10.14,5.93,3.26,2.1,6.62,4.05,10.03,6.11,2.23,1.65,4.34,3.26,6.4,4.86,1.05.78,2.02,1.65,3.01,2.5.99.86,1.97,1.71,2.97,2.58,1,.87,2.01,1.75,3.04,2.64.99.94,2,1.9,3.04,2.88,1.04.98,2.11,1.98,3.22,3.02.55.52,1.13,1.03,1.69,1.58.55.56,1.11,1.12,1.68,1.7,1.18,1.19,2.36,2.38,3.52,3.55,1.17,1.17,2.31,2.33,3.35,3.55,2.11,2.4,4.11,4.68,5.82,6.83,1.64,2.21,3.04,4.24,4.08,5.98.52.87.95,1.68,1.28,2.4.33.73.51,1.4.61,1.97Zm-37.48-42.18c-2.15-1.56-1.66-1.71-2.98-2.82-4.3-3.2-6.26-4.76-9.09-6.94-.87-.62-1.87-1.31-2.95-2.04-1.12-.67-2.33-1.39-3.59-2.14-1.27-.74-2.58-1.51-3.92-2.29-.67-.38-1.33-.79-2.02-1.16-.69-.36-1.38-.72-2.06-1.08-2.74-1.42-5.37-2.87-7.66-4.09-2.32-1.17-4.25-2.22-5.48-3.07,2.29,1.22,4.29,1.92,6.33,2.64,2,.81,4.03,1.66,6.39,3.1,3.73,1.02,7.28,2.64,11.75,4.98.56.3,1.13.6,1.71.93.57.35,1.15.72,1.75,1.09,1.2.76,2.46,1.59,3.79,2.48,1.32.92,2.78,1.83,4.22,2.97,1.45,1.12,2.99,2.34,4.62,3.65,2.82,2.17,5.26,5,7.87,7.33,1.2,1.1,2.5,2.11,3.66,3.2,1.18,1.07,2.33,2.1,3.4,3.07,2.13,1.94,3.96,3.62,4.86,5.07-1.29-.23-5.12-3.28-9.2-6.72-2.05-1.71-4.3-3.35-6.28-4.84-1-.74-1.94-1.41-2.79-2-.85-.58-1.67-1-2.33-1.33Zm6.24,17.42c-1.55-.92-2.24-2.01-4.87-3.9.28-.13,1.16.5,2.15,1.32.97.85,2.01,1.93,2.71,2.58Zm-103.34-48.57c-10.3-1.5-20.36-1.91-31.65-2.2-2.62.02-4.94,0-7.16-.04-1.11-.01-2.19-.06-3.27-.06-1.08.03-2.15.07-3.25.1-2.2.07-4.48.16-7.05.31-2.56.28-5.39.63-8.7,1.11-1.94.23-3.5.72-5.32,1.18-1.81.48-3.88.98-6.8,1.63-3.23.85-6.43,1.53-9.38,2.24-2.91.83-5.56,1.73-7.7,2.8-.9.25-1.8.45-2.68.73-.88.28-1.75.56-2.62.84-1.74.56-3.44,1.11-5.11,1.69-1.68.53-3.24,1.26-4.77,1.94-1.52.69-2.97,1.41-4.34,2.17.7-.8,3.09-2.28,5.97-3.93,1.43-.87,3.06-1.58,4.62-2.36,1.58-.77,3.12-1.52,4.48-2.19l1.49-.52,1.51-.44,3.02-.88c2.01-.57,4-1.21,6.02-1.74,2.02-.49,4.04-.97,6.06-1.46l3.02-.73c1.01-.23,2.03-.39,3.04-.59,2.03-.38,4.05-.76,6.06-1.14l1.51-.28,1.52-.2,3.04-.4c2.02-.26,4.04-.52,6.04-.78,2.02-.15,4.03-.3,6.04-.45,16.05-1.11,31.82-.04,46.42,3.31l-.06.36ZM108.97,55.55c-.03.24-1.82,1.41-1.71,1.57-3.27,2.19-6.14,4.28-8.58,6.51-2.46,2.2-4.78,4.17-6.89,6.23-1.03.95-2.12,1.84-3.3,2.78-1.18.95-2.47,1.94-3.74,3.23-1.73,1.69-3.61,3.78-5.29,5.53-1.64,1.8-3.04,3.32-4.01,3.74-1.32,1.85-3.53,4.15-5.57,6.69-2.07,2.51-4.27,5-5.49,7.21-.15-.26.76-2.05,1.43-3.23.64-1.2.89-1.93-.88-.27-1.1,1.76-.6,2.11-1.49,3.75-2.89,3.88-4.99,6.31-5.75,6.36.7-1.5,2.08-3.5,3.67-5.87.82-1.18,1.7-2.44,2.61-3.75.96-1.28,2.01-2.56,3.06-3.87,1.06-1.3,2.13-2.61,3.18-3.89,1.08-1.26,2.21-2.43,3.27-3.57,2.14-2.24,4.03-4.3,5.66-5.65,1.89-2.17,3.74-4.03,5.64-5.85,1.99-1.73,4.04-3.41,6.28-5.32.1-.44-.98.57-1.89,1.39,1.26-1.3,2.57-2.59,4.08-3.67,1.49-1.1,3.05-2.16,4.62-3.21.78-.53,1.57-1.05,2.36-1.58.79-.53,1.62-1.01,2.42-1.53,1.61-1.03,3.19-2.12,4.7-3.32,1.11-.74.28.5,1.59-.43Zm-52.08,52.38c-.97,1.29-1.62,1.93-2.48,3-.1-.48.46-1.66,1.69-3.55,1.43-1.65,1.14-.58.8.55Zm-14.68,37.3c-4.46,9.93-7.83,20.58-10.43,30.7-.47,1.81-.96,3.7-1.47,5.64-.43,1.96-.86,3.97-1.31,6.01-1,4.07-1.62,8.37-2.38,12.64-.42,2.13-.58,4.3-.85,6.44-.24,2.14-.51,4.26-.69,6.36-.11,2.1-.21,4.16-.32,6.18-.07,2.01-.21,3.97-.12,5.86-.1,1.41-.22,3.25-.33,5.3-.05,1.02-.1,2.1-.15,3.19-.04,1.09.01,2.21.02,3.31.1,4.41.27,8.66.95,10.78.36,11.5,2.86,22.56,5.33,32.57,2.59,13.79,8.07,28.21,13.84,42.65.6,1.65,1.13,3.1,1.66,4.56.52,1.46,1.05,2.94,1.78,4.6.32.72.66,1.47,1.04,2.24.41.75.84,1.52,1.27,2.31.87,1.57,1.76,3.19,2.56,4.79.28.58.57,1.15.85,1.72.3.56.6,1.12.89,1.68.58,1.13,1.16,2.25,1.73,3.36.58,1.12,1.15,2.23,1.72,3.34.6,1.1,1.27,2.15,1.92,3.21,1.24,1.92,3.03,4.37,4.28,6.22.84,1.22,1.13,2.17,1.88,3.31.58.88,1.21,1.79,1.87,2.71.65.92,1.33,1.85,2.05,2.72,1.41,1.76,2.75,3.46,3.71,4.95.51.59,1.02,1.17,1.52,1.75.53.56,1.06,1.12,1.58,1.67,1.05,1.11,2.09,2.22,3.13,3.33,2.03,2.27,4.25,4.35,6.46,6.54,1.12,1.08,2.2,2.23,3.41,3.29,1.2,1.07,2.42,2.15,3.67,3.27,1.27,1.09,2.5,2.29,3.88,3.37,1.38,1.09,2.79,2.22,4.25,3.38-5.67-3.61-11.32-8.23-13.8-8.49-2.72-2.65-5.38-5.21-7.96-7.82-1.24-1.36-2.47-2.71-3.71-4.07-1.22-1.38-2.49-2.72-3.62-4.22-3.31-4.27-4.44-5.71-9.78-12.77-1.25-1.56-2.4-3.12-3.53-4.66-1.14-1.53-2.26-3.04-3.32-4.57-1.4-2.05-2.63-4.24-3.94-6.38l-1.92-3.24-1.75-3.33c-1.14-2.23-2.37-4.41-3.44-6.65-1.05-2.25-2.11-4.47-3.18-6.65-.96-1.84-1.73-3.77-2.6-5.62-.84-1.86-1.67-3.7-2.48-5.48-1.41-3.65-2.71-7.09-3.51-10.19-1.09-3.15-2.22-6.5-3.26-9.95-.91-3.49-1.89-7.02-2.74-10.54-.74-3.54-1.58-6.99-2.31-10.29-.65-3.31-1.34-6.43-2.11-9.23-.2-2.37-.42-4.76-.71-7.15-.15-1.19-.31-2.38-.46-3.57-.14-1.19-.22-2.37-.35-3.54-.24-2.35-.47-4.65-.7-6.87-.19-2.22-.24-4.38-.31-6.4.23-1.9.48-3.96.75-6.19.33-2.23.65-4.63.92-7.22.22-2.59.62-5.35.92-8.31.15-1.48.28-3.01.4-4.6.11-1.59.34-3.21.48-4.9.27-2.73.32-5.21.44-7.5.15-2.29.21-4.41.25-6.47.02-1.03.04-2.04.06-3.05.03-1,.13-1.99.2-2.99.16-2,.36-4.02.68-6.16.69-2.25,1.28-4.19,1.69-6.21.46-2.02.82-4.1,1.57-6.49,2.4-7.15,5.77-15.01,9.83-25.12.55,1.89,1.42,2.25,1.37,4.75.79-.82,2.17-4.01,2.69-3.79Zm63.35,259.22c.37-.08,1.24.35,1.12-.22,1.45,1.36,3.22,2.6,5,3.72,1.78,1.11,3.65,1.96,5.13,2.77,9.39,6.08,17.07,9.83,27.1,14.3,1.01.56,1.84,1.07,2.64,1.57.81.5,1.62.92,2.57,1.42,3.53,1.46,7.01,3.04,10.57,4.26,1.76.65,3.51,1.3,5.24,1.94,1.76.54,3.5,1.08,5.22,1.61,7.43,2.34,15.46,3.69,22.63,4.99.99.21,2,.36,3,.51,1,.17,2,.33,3,.5,1.99.32,3.96.74,5.92.99,1.95.22,3.87.41,5.74.53,1.86.11,3.66.21,5.38,0,4.04.17,8.86.64,13.55.56,1.17,0,2.34,0,3.48,0,.57,0,1.13,0,1.69-.01.56-.02,1.1-.07,1.64-.11,2.15-.16,4.14-.35,5.85-.59.85.01,1.77,0,2.75-.01.97-.06,2-.16,3.08-.26,2.15-.23,4.48-.48,6.87-.73,2.38-.39,4.81-.79,7.21-1.18,1.2-.21,2.4-.34,3.55-.57,1.15-.23,2.29-.45,3.39-.64,2.09-.57,4.08-1.11,5.99-1.69,1.88-.66,3.69-1.3,5.47-1.93,3.56-1.18,6.83-2.68,10.2-4.04.84-.34,1.69-.68,2.54-1.02.84-.38,1.68-.76,2.53-1.15,1.71-.77,3.47-1.53,5.3-2.29.93-.36,1.84-.79,2.78-1.23.94-.43,1.9-.86,2.89-1.3.99-.43,2.01-.87,3.05-1.32,1.06-.42,2.11-.92,3.19-1.43-1.37.99-3.05,1.86-4.8,2.76-1.77.88-3.61,1.8-5.4,2.7-3.67,1.6-7.12,3.12-9.23,4.48-3.44,1.1-6.62,2.45-9.57,3.68-2.99,1.12-5.7,2.24-8.08,3.09-2.04.71-4.44,1.28-6.84,1.95-1.2.32-2.42.65-3.6.97-1.2.28-2.37.54-3.48.8-2.72.64-4.82,1.31-7.34,1.86-2.53.49-5.47,1.06-9.83,1.6-3.48.27-6.77.57-10.65.8-8.09.35-17.12-.41-23.59-.92-1.76-.12-3.6-.02-5.33-.18-1.03-.07-2.1-.25-3.2-.47-1.1-.21-2.24-.43-3.39-.65-2.29-.48-4.65-.83-6.89-1.32-.68-.13-3.04-.31-3.78-.46-2.21-.46-4.52-1.22-6.58-1.85-3.51-1.02-7.37-1.93-11.33-3.27-1.99-.64-4.05-1.22-6.11-1.92-2.05-.74-4.14-1.49-6.25-2.25-2.13-.71-4.22-1.61-6.33-2.48-1.06-.44-2.12-.88-3.18-1.31-1.06-.44-2.13-.85-3.16-1.37-2.08-.99-4.15-1.98-6.21-2.96l-1.54-.74-1.5-.81c-1-.54-1.99-1.09-2.97-1.63-1.6-.89-3.12-1.75-4.6-2.66-1.46-.95-2.92-1.89-4.48-2.8-1.04-.61-2.17-1.21-3.3-1.82-1.12-.63-2.2-1.32-3.22-2.02-2.05-1.43-3.88-2.85-5.68-4.32-1.77-1.52-3.59-3-5.75-4.39Zm166.12,31.17c1.97-.48,1.41-.5,2.87-.74.34.13-.47.54-1.34.73-.86.21-1.76.3-1.53.01Z"/>
      <path class="cls-2" d="m137.63,23.87c1.51-.82,2.33-1.3,3.63-1.97,1.84-.54,4.53-1.78,7.15-2.94,2.65-1.06,5.26-2,6.78-2.18-10.93,3.91-19.01,7.61-28.66,12.5.34-.31,1.17-.84,2.24-1.46,1.08-.6,2.42-1.21,3.71-1.82,2.59-1.2,5.03-2.22,5.15-2.13Z"/>
      <path class="cls-2" d="m119.12,32.87c2.59-1.41,2.47-1.76,4.9-3.07-.77.88-4.06,2.63-4.66,3.49-1.83,1.07.86-.76-.24-.42Z"/>
      <path class="cls-2" d="m302.96,443.79c3.45-1.97,12.89-5.93,17.27-8.8-2.12,1.59-5.1,3.04-8.17,4.55-1.55.73-3.08,1.56-4.65,2.22-1.56.68-3.07,1.35-4.46,2.03Z"/>
    </g>
  </g>
</svg>