<svg width="1025" height="75" viewBox="0 0 1025 75" fill="none" xmlns="http://www.w3.org/2000/svg">
<g clip-path="url(#clip0_4_5650)">
<path opacity="0.39" d="M1024.04 74.2V51.97C1022.44 50.77 1020.6 49.6 1018.52 48.48C1012.81 45.39 1005.24 42.65 995.34 40.45C949.8 30.31 896.09 42.37 832.62 44.45C828.79 44.58 824.93 44.67 821.03 44.71C818.82 44.74 816.6 44.75 814.37 44.74C813.47 44.74 812.56 44.74 811.65 44.73C810.54 44.73 809.43 44.71 808.32 44.7C808.03 44.7 807.73 44.69 807.44 44.68C801.71 44.59 795.9 44.39 790.02 44.06C788.98 44 787.94 43.94 786.9 43.88C778.55 43.36 770.06 42.57 761.4 41.46C755.4 40.69 749.53 39.77 743.78 38.73C741.96 38.4 740.15 38.06 738.35 37.71C736.93 37.43 735.51 37.15 734.1 36.85C733.78 36.78 733.46 36.72 733.14 36.65C720.47 34 708.29 30.83 696.33 27.48C645.57 13.25 598.88 -4.22999 536.46 0.91001C471.05 6.30001 455.65 35.06 408.7 47.38C392.68 51.59 373 53.88 346.39 52.68C328.75 51.89 310.41 49.86 291.57 47.17C226.82 37.91 156.13 20.69 87.57 17.95C86.74 17.92 85.91 17.89 85.08 17.86C81.19 17.72 77.3 17.64 73.43 17.6C72.56 17.6 71.69 17.59 70.81 17.58C69.62 17.58 68.42 17.58 67.23 17.58C66.82 17.58 66.42 17.58 66.01 17.58C66.05 17.57 66.08 17.56 66.12 17.54C66.08 17.55 66.05 17.56 66.01 17.58C65.58 17.58 65.16 17.58 64.73 17.59C63.73 17.6 62.73 17.62 61.73 17.64C57.58 17.72 53.45 17.86 49.32 18.07C48.73 18.1 48.14 18.13 47.56 18.16C46.55 18.22 45.53 18.28 44.52 18.34C43.15 18.43 41.79 18.52 40.43 18.63C26.76 19.68 13.26 21.54 -0.0100098 24.41V74.16H1024.03L1024.04 74.2Z" fill="#C6A067"/>
<g style="mix-blend-mode:multiply" opacity="0.15">
<path d="M1024.04 74.2V24.44C1010.77 21.57 997.27 19.71 983.6 18.66C982.24 18.56 980.87 18.46 979.51 18.37C978.5 18.3 977.48 18.24 976.47 18.19C975.88 18.16 975.29 18.13 974.71 18.1C970.59 17.89 966.45 17.74 962.3 17.67C961.3 17.65 960.3 17.64 959.3 17.62C958.87 17.62 958.45 17.62 958.02 17.61C957.98 17.6 957.95 17.59 957.91 17.57C957.95 17.58 957.98 17.59 958.02 17.61C957.61 17.61 957.21 17.61 956.8 17.61C955.61 17.61 954.41 17.61 953.22 17.61C952.35 17.61 951.48 17.61 950.6 17.63C946.72 17.67 942.84 17.76 938.95 17.89C938.12 17.92 937.29 17.95 936.46 17.98C867.91 20.72 797.21 37.94 732.46 47.2C713.62 49.9 695.28 51.92 677.64 52.71C651.04 53.91 631.35 51.61 615.33 47.41C568.37 35.08 552.98 6.32004 487.57 0.94004C425.15 -4.19996 378.47 13.28 327.7 27.51C315.74 30.86 303.56 34.03 290.89 36.68C290.57 36.75 290.25 36.81 289.93 36.88C288.52 37.17 287.1 37.46 285.68 37.74C283.88 38.09 282.07 38.43 280.25 38.76C274.49 39.8 268.63 40.72 262.63 41.49C253.98 42.6 245.48 43.38 237.13 43.91C236.09 43.98 235.05 44.03 234.01 44.09C228.13 44.42 222.32 44.61 216.59 44.71C216.3 44.71 216 44.72 215.71 44.73C214.6 44.75 213.48 44.76 212.38 44.76C211.47 44.76 210.57 44.77 209.66 44.77C207.43 44.77 205.21 44.77 203 44.74C199.1 44.69 195.24 44.6 191.41 44.48C127.94 42.4 74.23 30.34 28.69 40.48C18.79 42.68 11.23 45.42 5.50999 48.51C3.43999 49.63 1.59999 50.8 -0.0100098 52V74.23H1024.03L1024.04 74.2Z" fill="#8D8064"/>
</g>
</g>
<defs>
<clipPath id="clip0_4_5650">
<rect width="1024.04" height="74.2" fill="white"/>
</clipPath>
</defs>
</svg>
