<?xml version="1.0" encoding="UTF-8"?>
<svg xmlns="http://www.w3.org/2000/svg" viewBox="0 0 38.95 51.43">
  <defs>
    <style>
      .cls-1 {
        fill: none;
      }

      .cls-1, .cls-2, .cls-3, .cls-4, .cls-5, .cls-6, .cls-7 {
        stroke-width: 0px;
      }

      .cls-2 {
        opacity: .44;
      }

      .cls-2, .cls-7 {
        fill: #7e992c;
      }

      .cls-3 {
        mix-blend-mode: multiply;
      }

      .cls-3, .cls-4 {
        opacity: .31;
      }

      .cls-3, .cls-5 {
        fill: #6f8c2d;
      }

      .cls-8 {
        isolation: isolate;
      }

      .cls-4 {
        mix-blend-mode: screen;
      }

      .cls-4, .cls-6 {
        fill: #90b948;
      }
    </style>
  </defs>
  <g class="cls-8">
    <g id="Layer_2" data-name="Layer 2">
      <g id="Layer_1-2" data-name="Layer 1">
        <g>
          <path class="cls-1" d="m19.97,32.25s.04.03.06.05c-.02-.01-.03-.02-.05-.04,0,0,0,0-.01,0Z"/>
          <path class="cls-1" d="m12.22,26.84c-.1-.06-.2-.12-.31-.19.1.06.21.12.31.19Z"/>
          <path class="cls-1" d="m14.13,28.04c.06.04.12.08.17.11-.02-.01-.04-.03-.06-.04-.04-.02-.07-.05-.11-.07Z"/>
          <path class="cls-1" d="m6.09,23.46c-.18-.09-.36-.18-.54-.26.18.09.36.18.54.26Z"/>
          <path class="cls-1" d="m4.73,22.8c-.2-.09-.4-.19-.6-.28.2.09.4.19.6.28Z"/>
          <path class="cls-1" d="m5.41,23.13c-.19-.09-.38-.18-.57-.27.19.09.38.18.57.27Z"/>
          <path class="cls-1" d="m4.03,22.48c-.21-.1-.42-.19-.63-.29.21.1.42.19.63.29Z"/>
          <path class="cls-1" d="m16.77,29.84c-.05-.04-.11-.08-.16-.12.05.04.11.08.16.12Z"/>
          <path class="cls-1" d="m17.23,30.16c-.05-.04-.11-.08-.16-.11.05.04.11.08.16.11Z"/>
          <path class="cls-1" d="m6.75,23.79c-.17-.09-.34-.17-.51-.26.17.09.34.17.51.26Z"/>
          <path class="cls-1" d="m11.08,26.16c-.11-.07-.23-.13-.34-.2.12.07.23.13.34.2Z"/>
          <path class="cls-1" d="m16.19,29.43s.09.06.13.09c-.04-.03-.07-.05-.11-.08,0,0-.01,0-.02-.01Z"/>
          <path class="cls-1" d="m19.57,31.93s.06.05.09.07c0,0,0,0,0,0-.03-.02-.06-.04-.08-.06Z"/>
          <path class="cls-1" d="m12.49,27c.1.06.19.12.29.18-.1-.06-.19-.12-.29-.18,0,0,0,0,0,0Z"/>
          <path class="cls-1" d="m10.34,25.73c-.07-.04-.14-.08-.21-.12.12.07.24.14.36.21-.03-.02-.06-.03-.09-.05-.02-.01-.05-.03-.07-.04Z"/>
          <path class="cls-1" d="m1.88,21.53c-.24-.1-.49-.21-.73-.31.25.1.49.2.73.31Z"/>
          <path class="cls-1" d="m23.23,35.05s0,0,.01.01c0,0,0,0,0,0,0,0,0,0,0,0Z"/>
          <path class="cls-1" d="m20.65,32.8s.05.04.08.06c-.02-.02-.05-.04-.07-.06,0,0,0,0,0,0Z"/>
          <path class="cls-1" d="m11.43,26.36c.08.04.15.09.23.13-.06-.04-.12-.07-.18-.11-.02,0-.03-.02-.05-.03Z"/>
          <path class="cls-1" d="m11.33,26.3s.04.03.07.04c0,0-.02,0-.02-.01-.01,0-.03-.02-.04-.02Z"/>
          <path class="cls-1" d="m14.87,28.53c-.07-.05-.15-.1-.22-.15.07.05.15.1.22.15Z"/>
          <path class="cls-1" d="m15.84,29.19c-.06-.04-.13-.09-.19-.13.06.04.13.09.19.13Z"/>
          <polygon class="cls-1" points="22.76 34.62 22.77 34.63 22.76 34.62 22.76 34.62"/>
          <path class="cls-1" d="m3.33,22.16c-.22-.1-.44-.2-.66-.29.22.1.44.19.66.29Z"/>
          <path class="cls-1" d="m13.31,27.52c-.09-.06-.18-.11-.27-.17.09.06.18.11.27.17Z"/>
          <path class="cls-1" d="m17.51,30.37s.03.02.04.03c0,0-.01-.01-.02-.02,0,0-.01-.01-.02-.02Z"/>
          <path class="cls-1" d="m2.61,21.84c-.23-.1-.46-.2-.7-.3.23.1.47.2.7.3Z"/>
          <path class="cls-1" d="m.39,20.91c-.06-.02-.12-.05-.18-.07,0,0,0,0,0,0,.32.13.63.25.94.38-.25-.1-.5-.21-.76-.31Z"/>
          <path class="cls-1" d="m9.9,25.48c-.13-.07-.26-.14-.39-.22.13.07.26.14.39.22Z"/>
          <path class="cls-1" d="m19.26,31.69s.02.01.03.02c0,0,0,0,0,0,0,0-.01-.01-.02-.02Z"/>
          <path class="cls-1" d="m8.04,24.46c-.15-.08-.3-.16-.45-.24.15.08.3.16.45.24Z"/>
          <path class="cls-1" d="m7.4,24.13c-.16-.08-.32-.16-.48-.25.16.08.32.16.48.25Z"/>
          <path class="cls-1" d="m18.9,31.41s-.08-.06-.12-.09c.04.03.08.06.12.09Z"/>
          <path class="cls-1" d="m15.28,28.8s.06.04.08.06c-.01,0-.03-.02-.04-.03-.01,0-.03-.02-.04-.03Z"/>
          <path class="cls-1" d="m9.29,25.14c-.13-.07-.27-.15-.41-.22.14.07.27.15.41.22Z"/>
          <path class="cls-1" d="m21.37,33.4s-.04-.03-.06-.05c.02.02.04.03.06.05Z"/>
          <path class="cls-1" d="m8.67,24.8c-.14-.08-.29-.15-.43-.23.14.08.29.15.43.23Z"/>
          <path class="cls-1" d="m18.08,30.79s-.09-.07-.13-.1c.04.03.09.07.13.1Z"/>
          <path class="cls-1" d="m13.84,27.86c-.08-.05-.17-.11-.25-.16.08.05.17.11.25.16Z"/>
          <path class="cls-6" d="m33.11,13.77s0,0,0,0c0,0,.07.14.17.43-.05-.15-.11-.29-.17-.43Z"/>
          <path class="cls-6" d="m33.89,17.35c-.05.73-.01,1.46.11,2.18-.24-.36-.5-.74-.89-.96.79,2.13.97,4.48.52,6.7-.36-.58-.72-1.16-1.08-1.74-.24,1.16.85,2.19.95,3.37.03.32-.02.63-.06.95-.09.66-.19,1.31-.28,1.97-.05.33-.14.71-.45.83-.31-.49-.61-.98-.92-1.47-.25.49-.09,1.08.14,1.58.23.5.54.98.57,1.53.02.36-.07.71-.17,1.05-.2.73-.4,1.47-.6,2.2-.31-.71-.72-1.37-1.22-1.96-.31.93.4,1.86.62,2.82.27,1.14-.17,2.32-.6,3.41-.01.03-.03.07-.05.09-.1.08-.22-.08-.27-.2-.15-.36-.51-.63-.89-.68.19.92.37,1.84.56,2.77.09.42.15.83.18,1.24-.1.29-.19.59-.29.88-.14-.42-.29-.84-.45-1.25-.61-1.64-1.23-3.28-1.88-4.91-.4-1.01-.81-2.03-.9-3.11-.06-.78.04-1.57.02-2.35-.03-.9-.22-1.81-.08-2.7.13-.84.55-1.6.8-2.42.23-.77.3-1.59.54-2.36.39-1.26,1.23-2.31,2-3.38.72-1,1.39-2.02,2.02-3.08.37-.63.75-1.31.85-2.05.02-.16.03-.35.02-.54.26-.68.4-1.35.39-2.02.29.69.44,1.43.58,2.17.08.47.15.94.2,1.42Z"/>
          <path class="cls-6" d="m34.09,22.67c-.05,3.01-.48,5.98-1.06,8.93-.58,2.95-1.3,5.86-2.13,8.75-.26.9-.53,1.8-.82,2.69-.03-.41-.09-.82-.18-1.24-.19-.92-.37-1.84-.56-2.77.39.05.74.32.89.68.05.12.17.28.27.2.03-.02.04-.05.05-.09.43-1.09.87-2.27.6-3.41-.22-.96-.93-1.89-.62-2.82.5.59.91,1.25,1.22,1.96.2-.74.4-1.47.6-2.2.09-.34.19-.69.17-1.05-.03-.55-.34-1.03-.57-1.53-.23-.5-.39-1.09-.14-1.58.31.49.61.98.92,1.47.31-.11.4-.5.45-.83.09-.66.19-1.31.28-1.97.04-.31.09-.63.06-.95-.1-1.18-1.19-2.21-.95-3.37.36.58.72,1.16,1.08,1.74.45-2.22.26-4.57-.52-6.7.38.21.64.59.89.96-.12-.72-.16-1.45-.11-2.18.03.27.06.54.09.82.13,1.5.15,3,.11,4.5Z"/>
          <path class="cls-2" d="m34.09,22.67c-.05,3.01-.48,5.98-1.06,8.93-.58,2.95-1.3,5.86-2.13,8.75-.26.9-.53,1.8-.82,2.69-.03-.41-.09-.82-.18-1.24-.19-.92-.37-1.84-.56-2.77.39.05.74.32.89.68.05.12.17.28.27.2.03-.02.04-.05.05-.09.43-1.09.87-2.27.6-3.41-.22-.96-.93-1.89-.62-2.82.5.59.91,1.25,1.22,1.96.2-.74.4-1.47.6-2.2.09-.34.19-.69.17-1.05-.03-.55-.34-1.03-.57-1.53-.23-.5-.39-1.09-.14-1.58.31.49.61.98.92,1.47.31-.11.4-.5.45-.83.09-.66.19-1.31.28-1.97.04-.31.09-.63.06-.95-.1-1.18-1.19-2.21-.95-3.37.36.58.72,1.16,1.08,1.74.45-2.22.26-4.57-.52-6.7.38.21.64.59.89.96-.12-.72-.16-1.45-.11-2.18.03.27.06.54.09.82.13,1.5.15,3,.11,4.5Z"/>
          <path class="cls-6" d="m31.86,18.37c-.63,1.06-1.3,2.08-2.02,3.08-.77,1.06-1.61,2.12-2,3.38-.24.77-.31,1.58-.54,2.36-.24.82-.66,1.58-.8,2.42-.14.89.06,1.8.08,2.7.02.78-.09,1.57-.02,2.35.09,1.08.51,2.1.9,3.11.65,1.63,1.26,3.27,1.88,4.91.16.41.31.83.45,1.25-.08.24-.16.47-.25.71-.13.35-.26.7-.4,1.04-.01.03-.03.06-.04.09-.23-1.51-.9-5.22-2.1-7.64-1.55-3.1-2.55-7.65-.53-12.22,1.66-3.74,5.09-7.01,6.25-10.11.02.19,0,.38-.02.54-.1.74-.48,1.42-.85,2.05Z"/>
          <path class="cls-4" d="m31.86,18.37c-.63,1.06-1.3,2.08-2.02,3.08-.77,1.06-1.61,2.12-2,3.38-.24.77-.31,1.58-.54,2.36-.24.82-.66,1.58-.8,2.42-.14.89.06,1.8.08,2.7.02.78-.09,1.57-.02,2.35.09,1.08.51,2.1.9,3.11.65,1.63,1.26,3.27,1.88,4.91.16.41.31.83.45,1.25-.08.24-.16.47-.25.71-.13.35-.26.7-.4,1.04-.01.03-.03.06-.04.09-.23-1.51-.9-5.22-2.1-7.64-1.55-3.1-2.55-7.65-.53-12.22,1.66-3.74,5.09-7.01,6.25-10.11.02.19,0,.38-.02.54-.1.74-.48,1.42-.85,2.05Z"/>
          <path class="cls-5" d="m37.78,24.17c.07.52.06,1.05.12,1.58.08.77.33,1.52.37,2.29.03.57-.06,1.14-.17,1.7-.83,4.17-2.93,7.97-5.01,11.68-.33.59-.66,1.18-1.09,1.7-.22.26-.56.55-.9.85.19-.36.36-.74.52-1.08.3-.66.54-1.34.74-2.03.37-.46.74-.92,1.09-1.4.23-.3.46-.76.18-1.01-.16.35-.47.64-.84.78.11-.48.21-.96.3-1.44.11-.56.2-1.12.3-1.68.88-1.81,2.24-3.45,2.8-5.4.06-.22-.02-.59-.24-.5-.35,1.13-1.11,2.13-2.11,2.76,0-.07.02-.13.03-.2.13-.31.26-.62.34-.95.12-.51.12-1.04.17-1.56.1-1.09.41-2.15.9-3.13.24-.49.53-1.09.22-1.53-.27.27-.46.63-.52,1.01-.02-.04-.02-.09-.04-.13.06-.37.12-.73.16-1.1.01-.1.01-.2.02-.3.12-.27.27-.53.43-.77.44-.69.94-1.47.76-2.27-.01-.06-.03-.12-.08-.16-.1-.07-.23.01-.32.09-.25.22-.49.44-.74.65,0,0-.01,0-.02,0-.02-.46-.06-.92-.11-1.37.08-1.41-.04-2.82-.34-4.2-.11-.47-.4-1.06-.88-.97-.01,0-.03,0-.04,0-.01-.06-.02-.12-.03-.18-.12-.58-.26-1.16-.46-1.72-.1-.3-.17-.44-.17-.44,0,0,.14.16.38.46,1.74,2.45,2.77,5.33,3.79,8.16.21.58.42,1.17.5,1.78Z"/>
          <path class="cls-5" d="m30.13,45.3s-.01.05-.02.08c0,.03,0,.05,0,.08-.06.07-.13.13-.19.2.04-.1.08-.2.11-.31.03,0,.06-.03.09-.06Z"/>
          <path class="cls-5" d="m33.28,14.2c-.1-.3-.17-.43-.17-.43,0,0,.07.14.17.44,0,0,0,0,0,0Z"/>
          <path class="cls-5" d="m33.86,32.78c0,.07-.02.13-.03.2-.03.02-.06.04-.09.06.04-.09.08-.17.11-.26Z"/>
          <path class="cls-5" d="m34.96,22.12c.03-.29.05-.57.07-.86.05.46.09.92.11,1.37-.18-.06-.2-.32-.18-.52Z"/>
          <path class="cls-5" d="m35.11,25.1c0,.1-.01.2-.02.3-.04.37-.1.74-.16,1.1-.13-.46-.02-.94.18-1.4Z"/>
          <path class="cls-5" d="m30.9,42.63c.21-.15.39-.43.71-.84.25-.31.5-.62.75-.94-.21.69-.45,1.37-.74,2.03-.15.35-.33.72-.52,1.08-.45.41-.88.85-.97,1.33-.04.03-.07.05-.09.06.06-.16.11-.33.17-.49.25-.74.48-1.49.69-2.23Z"/>
          <path class="cls-5" d="m32.73,37.96c.14-.65.37-1.26.66-1.85-.09.56-.19,1.12-.3,1.68-.09.48-.19.96-.3,1.44-.06.03-.13.05-.2.06,0-.45.05-.9.14-1.34Z"/>
          <path class="cls-5" d="m33.95,16.73c-.01.09-.02.17-.02.26-.05-.3-.1-.59-.16-.88.01,0,.03,0,.04,0,.48-.09.77.49.88.97.3,1.37.42,2.79.34,4.2-.12-1.13-.3-2.26-.48-3.39-.07-.45-.19-.96-.61-1.15Z"/>
          <path class="cls-3" d="m33.95,16.73c-.01.09-.02.17-.02.26-.05-.3-.1-.59-.16-.88.01,0,.03,0,.04,0,.48-.09.77.49.88.97.3,1.37.42,2.79.34,4.2-.12-1.13-.3-2.26-.48-3.39-.07-.45-.19-.96-.61-1.15Z"/>
          <path class="cls-5" d="m34.31,29.57c.19-1.03.43-2.05.61-3.07.01.04.02.09.04.13.06-.38.25-.74.52-1.01.32.44.03,1.04-.22,1.53-.49.97-.8,2.04-.9,3.13-.05.52-.05,1.05-.17,1.56-.08.33-.2.64-.34.95.13-1.07.26-2.14.45-3.21Z"/>
          <path class="cls-3" d="m34.31,29.57c.19-1.03.43-2.05.61-3.07.01.04.02.09.04.13.06-.38.25-.74.52-1.01.32.44.03,1.04-.22,1.53-.49.97-.8,2.04-.9,3.13-.05.52-.05,1.05-.17,1.56-.08.33-.2.64-.34.95.13-1.07.26-2.14.45-3.21Z"/>
          <path class="cls-5" d="m33.84,32.98c1-.63,1.76-1.63,2.11-2.76.22-.09.3.28.24.5-.56,1.95-1.92,3.58-2.8,5.4.13-.76.24-1.51.34-2.27.04-.29.07-.58.11-.86Z"/>
          <path class="cls-3" d="m33.84,32.98c1-.63,1.76-1.63,2.11-2.76.22-.09.3.28.24.5-.56,1.95-1.92,3.58-2.8,5.4.13-.76.24-1.51.34-2.27.04-.29.07-.58.11-.86Z"/>
          <path class="cls-5" d="m35.16,22.64c.25-.22.49-.43.74-.65.09-.08.22-.16.32-.09.05.03.07.1.08.16.17.8-.32,1.58-.76,2.27-.16.24-.31.5-.43.77.07-.82.08-1.64.04-2.46,0,0,.01,0,.02,0Z"/>
          <path class="cls-3" d="m35.16,22.64c.25-.22.49-.43.74-.65.09-.08.22-.16.32-.09.05.03.07.1.08.16.17.8-.32,1.58-.76,2.27-.16.24-.31.5-.43.77.07-.82.08-1.64.04-2.46,0,0,.01,0,.02,0Z"/>
          <path class="cls-5" d="m33.63,38.45c.28.25.06.71-.18,1.01-.35.48-.72.94-1.09,1.4.16-.54.3-1.08.42-1.62.36-.14.67-.43.84-.78Z"/>
          <path class="cls-3" d="m33.63,38.45c.28.25.06.71-.18,1.01-.35.48-.72.94-1.09,1.4.16-.54.3-1.08.42-1.62.36-.14.67-.43.84-.78Z"/>
          <path class="cls-5" d="m30.9,42.63c.2-.7.4-1.41.59-2.12.77-2.92,1.42-5.86,1.94-8.84.51-2.97.88-5.98.86-9,0-1.51-.05-3.02-.21-4.52-.04-.39-.09-.78-.15-1.17,0-.09.01-.17.02-.26.41.18.53.7.61,1.15.18,1.12.36,2.25.48,3.39-.02.29-.04.57-.07.86-.02.2,0,.46.18.52.04.82.03,1.64-.04,2.46-.21.46-.31.94-.18,1.4-.18,1.03-.42,2.05-.61,3.07-.19,1.06-.32,2.13-.45,3.21-.04.09-.08.17-.11.26.03-.02.06-.04.09-.06-.04.29-.07.58-.11.86-.1.76-.22,1.52-.34,2.27-.29.59-.52,1.2-.66,1.85-.09.44-.14.89-.14,1.34.07-.02.13-.04.2-.06-.12.55-.26,1.09-.42,1.62-.25.31-.5.62-.75.94-.32.4-.5.68-.71.84Z"/>
          <path class="cls-3" d="m30.9,42.63c.2-.7.4-1.41.59-2.12.77-2.92,1.42-5.86,1.94-8.84.51-2.97.88-5.98.86-9,0-1.51-.05-3.02-.21-4.52-.04-.39-.09-.78-.15-1.17,0-.09.01-.17.02-.26.41.18.53.7.61,1.15.18,1.12.36,2.25.48,3.39-.02.29-.04.57-.07.86-.02.2,0,.46.18.52.04.82.03,1.64-.04,2.46-.21.46-.31.94-.18,1.4-.18,1.03-.42,2.05-.61,3.07-.19,1.06-.32,2.13-.45,3.21-.04.09-.08.17-.11.26.03-.02.06-.04.09-.06-.04.29-.07.58-.11.86-.1.76-.22,1.52-.34,2.27-.29.59-.52,1.2-.66,1.85-.09.44-.14.89-.14,1.34.07-.02.13-.04.2-.06-.12.55-.26,1.09-.42,1.62-.25.31-.5.62-.75.94-.32.4-.5.68-.71.84Z"/>
          <path class="cls-5" d="m30.13,45.3s.1-.08.16-.14c.31-.33.58-.75.81-1.18.34-.3.68-.59.9-.85.43-.52.76-1.11,1.09-1.7,2.08-3.71,4.18-7.51,5.01-11.68.11-.56.2-1.13.17-1.7-.04-.77-.29-1.52-.37-2.29-.06-.52-.04-1.06-.12-1.58-.09-.61-.29-1.2-.5-1.78-1.01-2.83-2.05-5.71-3.79-8.16,1.55,1.96,7.23,9.8,4.92,16.8-2.43,7.36-5.2,11.08-8.29,14.43,0-.03,0-.05,0-.08,0-.03.01-.05.02-.08Z"/>
          <path class="cls-4" d="m30.13,45.3s.1-.08.16-.14c.31-.33.58-.75.81-1.18.34-.3.68-.59.9-.85.43-.52.76-1.11,1.09-1.7,2.08-3.71,4.18-7.51,5.01-11.68.11-.56.2-1.13.17-1.7-.04-.77-.29-1.52-.37-2.29-.06-.52-.04-1.06-.12-1.58-.09-.61-.29-1.2-.5-1.78-1.01-2.83-2.05-5.71-3.79-8.16,1.55,1.96,7.23,9.8,4.92,16.8-2.43,7.36-5.2,11.08-8.29,14.43,0-.03,0-.05,0-.08,0-.03.01-.05.02-.08Z"/>
          <path class="cls-5" d="m30.29,45.15c-.06.07-.11.11-.16.14.09-.48.52-.92.97-1.33-.23.43-.49.85-.81,1.18Z"/>
          <path class="cls-4" d="m30.29,45.15c-.06.07-.11.11-.16.14.09-.48.52-.92.97-1.33-.23.43-.49.85-.81,1.18Z"/>
          <path class="cls-6" d="m29.57,45.59c.02-.06.04-.11.07-.17-.02.06-.04.11-.07.17Z"/>
          <path class="cls-6" d="m29.44,45.9s.03-.07.04-.11c-.01.04-.03.07-.04.11Z"/>
          <polygon class="cls-6" points="33.11 13.76 33.11 13.77 33.11 13.77 33.11 13.76"/>
          <path class="cls-6" d="m29.3,46.22s.02-.05.03-.07c-.01.03-.02.05-.03.07Z"/>
          <path class="cls-6" d="m29.98,44.43s0,0,0,.01c-.11.32-.21.61-.31.87.09-.25.19-.52.29-.82,0-.02.01-.04.02-.06Z"/>
          <path class="cls-6" d="m28.66,46.64c.17-.31.32-.58.44-.88.07.42.1.68.1.68.24-.26.49-.51.73-.77-.04.09-.07.19-.11.28-.13.36-.32.74-.49,1.06-.18.34-.35.67-.54,1,0,.02-.02.03-.03.05-.06-.41-.13-.82-.2-1.24.03-.06.07-.12.1-.18Z"/>
          <path class="cls-6" d="m30,44.34s-.01.06-.02.09c0,.02-.01.04-.02.06-.05-.19-.11-.38-.18-.57.1-.29.2-.58.29-.88.03.43.01.86-.08,1.3Z"/>
          <path class="cls-6" d="m33.75,16.11c.06.31.11.65.16,1.03,0,.07-.02.14-.02.21-.06-.47-.12-.95-.2-1.42-.14-.74-.3-1.48-.58-2.17,0,0,0,0,0,0,.06.14.12.29.17.43.13.37.31.99.47,1.91Z"/>
          <path class="cls-6" d="m33.51,30.02c-.02.12-.04.24-.06.36.02-.12.04-.24.06-.36Z"/>
          <path class="cls-6" d="m33.68,28.9c-.02.11-.03.21-.05.32.02-.11.03-.21.05-.32Z"/>
          <path class="cls-6" d="m32.32,36.02c-.58,2.52-1.23,4.89-1.79,6.74-.19.62-.37,1.19-.54,1.68,0,0,0,0,0-.01.67-1.98,1.55-5.05,2.33-8.41Z"/>
          <path class="cls-6" d="m34.08,25.42c0,.05,0,.11-.01.16,0-.06,0-.11.01-.16Z"/>
          <path class="cls-6" d="m33.3,31.26c-.03.15-.05.3-.08.45.03-.15.06-.3.08-.45Z"/>
          <path class="cls-6" d="m32.86,33.54c-.06.29-.12.58-.18.87.06-.29.12-.58.18-.87Z"/>
          <path class="cls-6" d="m33.98,26.54c0,.08-.02.16-.02.24,0-.08.02-.16.02-.24Z"/>
          <path class="cls-6" d="m33.06,32.53c-.03.17-.07.35-.1.52.03-.17.07-.35.1-.52Z"/>
          <path class="cls-6" d="m33.81,28c.01-.09.02-.18.04-.27-.01.09-.02.18-.04.27Z"/>
          <path class="cls-6" d="m32.6,34.76c-.08.37-.16.73-.24,1.09.08-.36.16-.72.24-1.09Z"/>
          <path class="cls-6" d="m34.08,25.42c0,.05,0,.11-.01.16-.02.31-.05.63-.09.96,0,.08-.02.16-.02.24-.03.31-.07.63-.11.95-.01.09-.02.18-.04.27-.04.3-.08.6-.12.9-.02.11-.03.21-.05.32-.04.26-.08.53-.13.8-.02.12-.04.24-.06.36-.05.29-.1.58-.15.88-.03.15-.05.3-.08.45-.05.27-.1.55-.16.82-.03.17-.07.35-.1.52-.03.17-.07.33-.1.49-.06.29-.12.58-.18.87-.03.12-.05.23-.08.35-.08.37-.16.73-.24,1.09-.01.06-.03.11-.04.17-.78,3.37-1.66,6.43-2.33,8.41,0-.03.01-.06.02-.09.09-.44.11-.87.08-1.3.29-.89.56-1.79.82-2.69.83-2.88,1.55-5.8,2.13-8.75.57-2.95,1.01-5.92,1.06-8.93.04-1.5.02-3-.11-4.5-.02-.27-.05-.55-.09-.82,0-.07.01-.14.02-.21.23,1.68.38,4.06.23,7.29-.01.32-.04.65-.06.99Z"/>
          <path class="cls-6" d="m29.54,44.63c.08-.23.16-.47.25-.71.06.19.12.38.18.57-.1.3-.2.57-.29.82-.01.04-.03.08-.04.11-.02.06-.04.11-.07.17-.03.07-.05.13-.08.2-.01.04-.03.07-.04.11-.04.09-.07.17-.11.25-.01.03-.02.05-.03.07-.04.08-.07.15-.1.21,0,0-.03-.25-.1-.68.01-.03.03-.06.04-.09.14-.34.27-.69.4-1.04Z"/>
          <path class="cls-6" d="m29.3,46.22s.02-.05.03-.07c.03-.08.07-.16.11-.25.01-.03.03-.07.04-.11.03-.06.05-.13.08-.2.02-.06.04-.11.07-.17.01-.04.03-.07.04-.11.1-.26.2-.55.31-.87-.08.36-.21,1.01.06.91-.04.1-.08.2-.11.31-.24.26-.48.52-.73.77.03-.06.07-.13.1-.21Z"/>
          <path class="cls-6" d="m33.28,14.2c.2.56.34,1.14.46,1.72.01.06.02.12.03.18,0,0-.01,0-.02,0-.17-.91-.35-1.53-.47-1.91Z"/>
          <path class="cls-6" d="m33.75,16.11c-.17-.92-.35-1.54-.47-1.91,0,0,0,0,0,0,.13.37.31.99.47,1.91,0,0,0,0,0,0Z"/>
          <path class="cls-6" d="m30.9,42.63c-.22.75-.45,1.49-.69,2.23-.06.16-.11.33-.17.49-.27.1-.13-.55-.06-.91.17-.5.35-1.06.54-1.68.15,0,.27-.05.38-.13Z"/>
          <path class="cls-6" d="m29.2,46.43c.03-.06.07-.13.1-.21-.04.08-.07.15-.1.21Z"/>
          <path class="cls-6" d="m29.63,45.42s.03-.07.04-.11c-.01.04-.03.07-.04.11Z"/>
          <path class="cls-6" d="m29.49,45.79c.03-.06.05-.13.08-.2-.03.07-.05.13-.08.2Z"/>
          <path class="cls-6" d="m29.34,46.15c.03-.08.07-.16.11-.25-.04.09-.07.17-.11.25Z"/>
          <path class="cls-6" d="m33.91,17.14c-.05-.38-.11-.72-.16-1.03,0,0,.01,0,.02,0,.06.29.11.59.16.88,0,.05,0,.1-.01.15Z"/>
          <path class="cls-6" d="m33.91,17.14s0,0,0,0c-.05-.38-.11-.72-.16-1.03,0,0,0,0,0,0,.06.31.11.65.16,1.03Z"/>
          <path class="cls-6" d="m32.6,34.76c.03-.12.05-.23.08-.35.06-.29.12-.58.18-.87.03-.16.07-.33.1-.49.03-.17.07-.35.1-.52.05-.27.11-.55.16-.82.03-.15.05-.3.08-.45.05-.29.1-.59.15-.88.02-.12.04-.24.06-.36.04-.27.09-.53.13-.8.02-.11.03-.21.05-.32.04-.3.09-.6.12-.9.01-.09.02-.18.04-.27.04-.32.08-.64.11-.95,0-.08.02-.16.02-.24.03-.32.06-.64.09-.96,0-.06,0-.11.01-.16.03-.34.05-.67.06-.99.15-3.23,0-5.61-.23-7.29,0-.05,0-.1.01-.15.06.39.11.78.15,1.17.16,1.5.22,3.01.21,4.52.02,3.02-.35,6.03-.86,9-.52,2.97-1.17,5.92-1.94,8.84-.19.71-.38,1.41-.59,2.12-.11.08-.23.13-.38.13.57-1.86,1.21-4.22,1.79-6.74.01-.06.03-.11.04-.17.08-.36.16-.72.24-1.09Z"/>
          <path class="cls-6" d="m33.64,29.22c-.04.26-.08.53-.13.8.04-.27.09-.53.13-.8Z"/>
          <path class="cls-6" d="m33.95,26.78c-.03.31-.07.63-.11.95.04-.32.08-.64.11-.95Z"/>
          <path class="cls-6" d="m33.45,30.38c-.05.29-.1.58-.15.88.05-.29.1-.59.15-.88Z"/>
          <path class="cls-6" d="m34.14,24.43c-.02.32-.04.65-.06.99.03-.34.05-.67.06-.99Z"/>
          <path class="cls-6" d="m34.07,25.58c-.02.31-.05.63-.09.96.03-.32.06-.64.09-.96Z"/>
          <path class="cls-6" d="m33.68,28.9c.04-.3.09-.6.12-.9-.04.3-.08.6-.12.9Z"/>
          <path class="cls-6" d="m32.67,34.41c-.03.12-.05.23-.08.35.03-.12.05-.23.08-.35Z"/>
          <path class="cls-6" d="m32.32,36.02c.01-.06.03-.11.04-.17-.01.06-.03.11-.04.17Z"/>
          <path class="cls-6" d="m33.22,31.71c-.05.27-.1.55-.16.82.05-.27.11-.55.16-.82Z"/>
          <path class="cls-6" d="m34.14,24.43c.15-3.23,0-5.61-.23-7.29,0,0,0,0,0,0,.23,1.68.38,4.06.23,7.29Z"/>
          <path class="cls-6" d="m32.96,33.05c-.03.17-.07.33-.1.49.03-.16.07-.33.1-.49Z"/>
          <path class="cls-6" d="m26.84,44.5c-.41-1.89-.93-3.77-1.56-5.61-.19-.54-.39-1.08-.59-1.62,0,0,.01,0,.02,0,.19-.06.38-.12.57-.18,0,0,0-.27-.03-.75-.01-.2-.03-.43-.06-.7.4.95.78,1.92,1.14,2.89.68,1.86,1.23,3.77,1.69,5.7.2.86.38,1.72.53,2.58-.15.27-.3.53-.45.8-.09.16-.19.32-.29.47l-.15.23-.07.11-.05.07.61.54c.04-.05.05-.06.07-.09l.05-.07.08-.13.15-.25c.09-.15.17-.3.26-.45.12.8.22,1.61.3,2.42l-1.26.97c-.14-2.33-.47-4.65-.97-6.93Z"/>
          <path class="cls-6" d="m24.97,36.76s0-.01-.01-.02c0,0,0,.01.01.02Z"/>
          <path class="cls-6" d="m24.22,35.99s-.01-.01-.02-.02c0,0,.01.01.02.02Z"/>
          <path class="cls-6" d="m25.05,36.84s-.01-.01-.02-.02c0,0,.01.01.02.02Z"/>
          <path class="cls-6" d="m24.52,36.29s0,0,0,0c0,0,0,0,0,0Z"/>
          <path class="cls-6" d="m12.59,18.17c.49.2.79.3.79.3h0c.15.08.3.15.42.2.14.06.25.12.34.16,1.12,1.24,2.2,2.51,3.23,3.82-.47-.21-.96-.4-1.46-.57-1.06-1.34-2.17-2.64-3.32-3.91Z"/>
          <path class="cls-6" d="m24.77,36.55s0,0,0,0c0,0,0,0,0,0Z"/>
          <path class="cls-6" d="m28.35,48.75l-.08.13-.05.07s-.03.04-.07.09l-.61-.54.05-.07.07-.11.15-.23c.1-.16.19-.31.29-.47.15-.26.3-.53.45-.8.07.41.14.82.2,1.24-.08.15-.17.3-.26.45l-.15.25Z"/>
          <path class="cls-5" d="m6.19,12.38c2,2.77,4.47,4.54,6.18,5.54.08.08.15.17.23.25-1.32-.54-4.06-1.77-6.25-3.56-3-2.46-3.38-8.09-1.83-11.68h0c-.55,2.64-.67,6.22,1.67,9.45Z"/>
          <path class="cls-5" d="m11.52,15.21c-.47-.75-.91-1.54-1.33-2.34l1.33,2.34Z"/>
          <path class="cls-5" d="m12.62,18.06s0,0,0,0c.28.16.53.29.76.41h0s-.3-.1-.79-.3c-.08-.08-.15-.17-.23-.25.08.05.17.1.25.14Z"/>
          <path class="cls-6" d="m6.28,4.16c.18.42.44.91.21,1.3-.21-.16-.46-.27-.71-.33l-1.09-1.92c.06-.6.15-1.19.28-1.78.07-.31.15-.62.22-.93.06-.18.11-.35.16-.5,0,0,.08.32.23.88,0,0,0,0,0,.01.06.47.14.93.22,1.39.11.64.22,1.28.48,1.88Z"/>
          <path class="cls-6" d="m6.75,6.69c.49.53.79,1.21,1.07,1.88.08.19.16.37.24.56l-1.5-2.64c.07.07.14.13.2.2Z"/>
          <path class="cls-6" d="m13.38,18.14c.16.17.29.36.43.54-.12-.06-.27-.13-.42-.21l-.38-.67c.13.11.26.22.38.34Z"/>
          <path class="cls-6" d="m11.88,17.39c-.44-.32-.93-.58-1.21-.79-.4-.31-.72-.71-1.02-1.12-.38-.5-.75-1.01-1.12-1.52.26.25.52.5.78.76.87.87,1.73,1.76,2.57,2.66Z"/>
          <path class="cls-6" d="m6.92,11.68h0c-.27-.39-.55-.79-.82-1.18-.3-.43-.6-.86-.81-1.34-.2-.46-.32-.95-.42-1.43-.29-1.48-.35-3.01-.2-4.51l1.09,1.92s-.01,0-.02,0c-.07.55.39.97.8,1.37l1.5,2.64c.25.58.5,1.17.74,1.75-.21.27-.87-.5-1.08-.21-.44.61,1.04,1.09,1.59,1.6,1.01.94,1.66,2.2,2.28,3.44-.02.12-.15.11-.29.11-.51-.52-1.03-1.03-1.55-1.53-.92-.89-1.86-1.76-2.82-2.61Z"/>
          <path class="cls-6" d="m12.62,18.06c-.19-.25-.46-.47-.74-.67-.84-.9-1.69-1.79-2.57-2.66-.26-.26-.52-.51-.78-.76-.55-.76-1.08-1.52-1.61-2.29h0c.95.85,1.89,1.72,2.82,2.61.52.5,1.04,1.02,1.55,1.53-.14,0-.28-.01-.32.1-.03.07.02.15.06.22.51.72,1.3,1.12,1.97,1.66l.38.67c-.23-.11-.48-.25-.76-.41,0,0,0,0,0,0Z"/>
          <path class="cls-7" d="m7.82,8.57c-.28-.67-.57-1.35-1.07-1.88-.06-.07-.13-.13-.2-.2l-.78-1.37c.26.06.51.17.71.33.23-.4-.02-.88-.21-1.3-.26-.6-.37-1.24-.48-1.88-.08-.46-.16-.92-.22-1.39.57,2.05,2.14,7.27,4.61,11.98l-2.13-3.74c-.08-.19-.16-.37-.24-.56Z"/>
          <path class="cls-7" d="m11.52,15.21c.87,1.39,1.83,2.68,2.87,3.73,0,0-.08-.03-.24-.1-.48-.53-.96-1.05-1.45-1.57l-1.17-2.06Z"/>
          <path class="cls-7" d="m13.38,18.14c-.12-.12-.25-.23-.38-.34l-.3-.53c.49.52.97,1.04,1.45,1.57-.09-.04-.21-.09-.34-.16-.14-.18-.27-.37-.43-.54Z"/>
          <path class="cls-7" d="m11.29,15.82c.14,0,.27.01.29-.11-.62-1.24-1.27-2.5-2.28-3.44-.56-.51-2.04-.99-1.59-1.6.22-.3.87.47,1.08.21-.25-.58-.49-1.17-.74-1.75l2.13,3.74c.42.8.86,1.59,1.33,2.34l1.17,2.06c-.46-.49-.93-.97-1.41-1.45Z"/>
          <path class="cls-7" d="m5.75,5.12s.01,0,.02,0l.78,1.37c-.41-.4-.87-.82-.8-1.37Z"/>
          <path class="cls-7" d="m10.97,15.92c.04-.11.18-.1.32-.1.47.48.94.96,1.41,1.45l.3.53c-.67-.54-1.46-.94-1.97-1.66-.04-.07-.09-.15-.06-.22Z"/>
          <path class="cls-6" d="m4.68,3.21l-.16-.27c.2-.95.45-1.78.66-2.43-.07.31-.15.62-.22.93-.13.59-.22,1.18-.28,1.78Z"/>
          <path class="cls-4" d="m4.68,3.21l-.16-.27c.2-.95.45-1.78.66-2.43-.07.31-.15.62-.22.93-.13.59-.22,1.18-.28,1.78Z"/>
          <path class="cls-6" d="m4.88,7.72c.1.49.22.98.42,1.43.21.48.51.91.81,1.34.27.4.54.79.82,1.19l-.32.44c.66.61,1.3,1.22,1.93,1.84.37.51.74,1.02,1.12,1.52.31.4.62.81,1.02,1.12.28.21.76.48,1.21.79.16.18.33.35.49.53-1.71-1-4.18-2.77-6.18-5.54-2.34-3.23-2.21-6.81-1.67-9.45l.16.27c-.15,1.5-.09,3.03.2,4.51Z"/>
          <path class="cls-4" d="m4.88,7.72c.1.49.22.98.42,1.43.21.48.51.91.81,1.34.27.4.54.79.82,1.19l-.32.44c.66.61,1.3,1.22,1.93,1.84.37.51.74,1.02,1.12,1.52.31.4.62.81,1.02,1.12.28.21.76.48,1.21.79.16.18.33.35.49.53-1.71-1-4.18-2.77-6.18-5.54-2.34-3.23-2.21-6.81-1.67-9.45l.16.27c-.15,1.5-.09,3.03.2,4.51Z"/>
          <path class="cls-6" d="m12.37,17.92c-.16-.18-.33-.35-.49-.53.29.2.55.43.74.67-.08-.05-.17-.1-.25-.14Z"/>
          <path class="cls-4" d="m12.37,17.92c-.16-.18-.33-.35-.49-.53.29.2.55.43.74.67-.08-.05-.17-.1-.25-.14Z"/>
          <path class="cls-6" d="m6.6,12.12l.32-.44c.53.77,1.07,1.53,1.61,2.29-.64-.62-1.28-1.24-1.93-1.84Z"/>
          <path class="cls-4" d="m6.6,12.12l.32-.44c.53.77,1.07,1.53,1.61,2.29-.64-.62-1.28-1.24-1.93-1.84Z"/>
          <path class="cls-5" d="m14.23,28.11s.04.03.06.04c.02.01.04.03.06.04-.04-.03-.08-.05-.13-.08Z"/>
          <polygon class="cls-5" points="12.49 27 12.49 27 12.49 27 12.49 27"/>
          <path class="cls-5" d="m10.34,25.73s.05.03.07.04c-.02-.01-.05-.03-.07-.04Z"/>
          <path class="cls-5" d="m11.37,26.33s.02,0,.02.01c.01,0,.02.01.03.02.02,0,.03.02.05.03-.04-.02-.07-.04-.11-.06Z"/>
          <path class="cls-5" d="m21.92,33.88s.03.03.05.04c-.02-.01-.03-.03-.05-.04Z"/>
          <path class="cls-5" d="m22.2,34.12s.03.03.04.04c-.01-.01-.03-.03-.04-.04Z"/>
          <path class="cls-5" d="m21.62,33.62s.04.03.05.05c-.02-.02-.04-.03-.05-.05Z"/>
          <polygon class="cls-5" points="20.65 32.8 20.65 32.8 20.65 32.8 20.65 32.8"/>
          <path class="cls-5" d="m20.3,32.52s.05.04.08.06c-.03-.02-.05-.04-.08-.06Z"/>
          <path class="cls-5" d="m19.94,32.23s.02.02.03.02c0,0,0,0,.01,0-.01-.01-.03-.02-.04-.03Z"/>
          <path class="cls-5" d="m20.99,33.09s.04.03.06.05c-.02-.02-.04-.03-.06-.05Z"/>
          <path class="cls-5" d="m22.48,34.37s.02.02.03.02c0,0-.02-.02-.03-.02Z"/>
          <path class="cls-5" d="m23.86,35.64s0,0,0,0c0,0,0,0,0,0Z"/>
          <path class="cls-5" d="m7.37,25.07c-.04.22-.2.4-.31.59-.11.19-.15.48.02.62.09.07.21.08.33.09.71.02,1.43-.24,2.13-.09.46.1.85.37,1.24.64.73.5,1.45,1,2.18,1.5.18.13.39.33.29.53-.14.27-.68.15-.73.45.54.36,1.23.36,1.87.44,1.78.23,3.46,1.22,4.52,2.67-.36.23-.73.46-1.09.68-.06.04-.12.08-.12.15,0,.07.06.11.12.14.77.45,1.71.4,2.58.57.87.16,1.82.7,1.89,1.59-.41-.16-.91-.1-1.27.16.35.45,1.01.46,1.57.54.52.08,1.03.25,1.5.52.05.03.11.07.16.1-2.71.62-5.51,1.14-8.21.54-3.19-.71-5.82-2.88-8.26-5.05-.54-.49-1.08-.97-1.59-1.49-1.75-1.8-3.06-3.98-4.09-6.26-.45-1.01-.97-2.08-1.28-3.16,1.63,1.16,3.48,2.03,5.42,2.55.53.14,1.21.45,1.12.99Z"/>
          <path class="cls-5" d="m22.74,34.61s0,0,.01.01c0,0,0,0,0,0,0,0-.01-.01-.02-.02Z"/>
          <path class="cls-5" d="m23.65,35.44s.01.01.02.02c0,0-.01-.01-.02-.02Z"/>
          <path class="cls-5" d="m23.43,35.24s.02.02.03.03c0,0-.02-.02-.03-.03Z"/>
          <path class="cls-5" d="m22.98,34.83s.02.02.03.02c0,0-.02-.02-.03-.02Z"/>
          <path class="cls-5" d="m23.22,35.04s0,0,.01,0c0,0,0,0,0,0,0,0-.01-.01-.02-.02Z"/>
          <path class="cls-5" d="m16.14,29.39s.03.02.05.03c0,0,.01,0,.02.01-.02-.02-.04-.03-.07-.05Z"/>
          <path class="cls-5" d="m18.37,31.01s.08.06.12.09c-.04-.03-.08-.06-.12-.09Z"/>
          <path class="cls-5" d="m17.53,30.39s.01.01.02.02c.03.03.07.05.1.08-.04-.03-.08-.06-.13-.09Z"/>
          <path class="cls-5" d="m19.18,31.63s.05.04.07.06c0,0,.01.01.02.02-.03-.02-.06-.05-.09-.07Z"/>
          <path class="cls-5" d="m15.16,28.72s.08.05.12.08c.01,0,.03.02.04.03-.05-.04-.11-.07-.16-.11Z"/>
          <polygon class="cls-5" points="19.65 32 19.66 32.01 19.66 32.01 19.65 32"/>
          <path class="cls-5" d="m24.36,36.14s0,0,0,0c0,0,0,0,0,0Z"/>
          <path class="cls-6" d="m5.23,20.65c.66.08,1.33.11,1.99.18,1.22.13,2.43.4,3.63.67.98.22,1.96.44,2.94.67.49.11.99.22,1.45.43.36.15.7.36,1.03.57.3.19.61.38.91.57.54.71,1.05,1.45,1.57,2.17l.8,1.22.4.61.38.62c1.04,1.65,1.93,3.38,2.77,5.13.07.15.14.3.2.46-.19.12-.48.1-.67-.05-.26-.2-.37-.52-.52-.81-.72-1.4-2.32-2.15-3.15-3.49-.44-.7-.65-1.56-1.24-2.14-.11-.11-.26-.22-.41-.2-.42.06-.25.72-.44,1.1-.17.33-.64.39-.98.22-.33-.17-.55-.48-.78-.78-.77-1.01-1.68-1.91-2.71-2.66-.07-.06-.15-.11-.24-.12-.16-.02-.3.11-.43.19-.47.29-1.1.17-1.58-.11-.48-.27-.88-.67-1.36-.96-1.06-.64-2.41-.67-3.45-1.33-.67-.42-1.04-.47-1.64-.98-.3-.25-1.13-.6-1.47-.8-1.09.04-1.73-.11-2.02-.21-.07-.03-.14-.05-.2-.08,0,0,1.02-.1,2.62-.16.54-.02,1.15-.03,1.8-.03.26.06.58.07.8.1Z"/>
          <path class="cls-6" d="m21.11,27.87l-.4-.63-.42-.61-.84-1.22c-.12-.16-.24-.33-.36-.49.45.28.9.58,1.28.95.39.37.72.8,1.05,1.23.45.59.9,1.18,1.35,1.77.59.78,1.19,1.57,1.48,2.5.1.33.16.67.33.97.02.04.04.07.07.11h0c.3,1.25.45,2.36.53,3.19-.37-.87-.76-1.74-1.17-2.59-.88-1.78-1.82-3.52-2.91-5.18Z"/>
          <path class="cls-6" d="m23.73,33.43c-.12-.12-.22.16-.28.32-.03.08-.08.14-.15.19-.07-.15-.13-.3-.2-.46-.84-1.75-1.73-3.48-2.77-5.13l-.38-.62-.4-.61-.8-1.22c-.52-.72-1.02-1.46-1.57-2.17.53.33,1.06.66,1.59.99.11.07.22.13.32.2.12.16.24.33.36.49l.84,1.22.42.61.4.63c1.09,1.66,2.03,3.4,2.91,5.18.41.85.8,1.71,1.17,2.59.03.26.04.5.06.7-.8-.73-1.12-1.79-1.52-2.9Z"/>
          <path class="cls-2" d="m.2,20.84c-.07-.03-.14-.05-.2-.08.07.03.14.05.2.08,0,0,0,0,0,0Z"/>
          <path class="cls-6" d="m23.94,35.73s-.05-.05-.07-.07c-.18-.17-.38-.36-.59-.56-.01-.01-.03-.02-.04-.04,0,0,0,0-.01-.01-.12-.12-.25-.23-.39-.36-.02-.02-.05-.04-.07-.07,0,0,0,0-.01,0-.13-.12-.27-.24-.41-.37-.03-.03-.06-.05-.09-.08-.15-.13-.31-.27-.47-.41-.02-.02-.05-.04-.07-.06-.09-.08-.18-.16-.27-.23-.02-.02-.05-.04-.07-.06-.02-.02-.04-.03-.06-.05,0,0-.02-.01-.03-.02-.14-.12-.29-.24-.44-.36-.04-.03-.08-.07-.12-.1-.02-.02-.05-.04-.08-.06-.13-.11-.27-.22-.41-.34-.07-.06-.14-.11-.21-.17-.02-.02-.04-.03-.06-.05-.1-.08-.2-.16-.31-.25-.03-.02-.06-.05-.09-.07-.09-.07-.19-.15-.28-.22,0,0-.02-.01-.03-.02-.08-.06-.16-.13-.25-.19-.04-.03-.08-.06-.11-.09-.04-.03-.08-.06-.12-.09-.08-.06-.16-.13-.25-.19-.08-.06-.17-.13-.26-.19-.06-.05-.13-.1-.2-.15-.04-.03-.09-.07-.13-.1-.06-.04-.12-.09-.18-.13-.07-.05-.15-.11-.22-.16-.01-.01-.03-.02-.04-.03-.1-.07-.19-.14-.29-.21-.05-.04-.11-.08-.16-.11,0,0-.02-.01-.03-.02-.07-.05-.14-.1-.22-.16-.02-.01-.03-.02-.05-.03-.05-.04-.11-.08-.16-.12-.1-.07-.2-.14-.3-.21-.04-.03-.09-.06-.13-.09-.06-.04-.12-.09-.18-.13-.05-.04-.1-.07-.16-.11-.06-.04-.13-.09-.19-.13-.1-.07-.19-.13-.29-.2-.03-.02-.06-.04-.08-.06-.05-.03-.1-.07-.15-.1-.09-.06-.17-.12-.26-.17-.07-.05-.15-.1-.22-.15-.09-.06-.17-.12-.26-.17-.03-.02-.06-.04-.08-.06-.06-.04-.12-.07-.17-.11-.09-.06-.19-.12-.28-.18-.08-.05-.17-.11-.25-.16-.06-.04-.13-.08-.19-.12,0,0-.01,0-.02-.01-.02-.01-.05-.03-.07-.04-.09-.06-.18-.11-.27-.17-.09-.06-.18-.11-.27-.17-.1-.06-.19-.12-.29-.18-.03-.02-.06-.04-.09-.05-.06-.04-.12-.07-.18-.11-.1-.06-.2-.12-.31-.19-.08-.05-.17-.1-.26-.15-.08-.04-.15-.09-.23-.13-.01,0-.02-.01-.03-.02-.02-.01-.04-.03-.07-.04-.08-.05-.16-.1-.25-.15-.11-.07-.23-.13-.34-.2-.08-.05-.16-.09-.24-.14-.12-.07-.24-.14-.36-.21-.08-.04-.15-.09-.23-.13-.13-.07-.26-.14-.39-.22-.07-.04-.15-.08-.22-.12-.13-.07-.27-.15-.41-.22-.07-.04-.14-.08-.21-.12-.14-.08-.29-.15-.43-.23-.07-.04-.13-.07-.2-.11-.15-.08-.3-.16-.45-.24-.06-.03-.13-.07-.19-.1-.16-.08-.32-.16-.48-.25-.06-.03-.11-.06-.17-.09-.17-.09-.34-.17-.51-.26-.05-.03-.1-.05-.15-.08-.18-.09-.36-.18-.54-.26-.04-.02-.09-.04-.13-.06-.19-.09-.38-.18-.57-.27-.04-.02-.08-.04-.12-.05-.2-.09-.4-.19-.6-.28-.03-.01-.06-.03-.09-.04-.21-.1-.42-.19-.63-.29-.02-.01-.05-.02-.07-.03-.22-.1-.44-.2-.66-.29-.02,0-.04-.02-.06-.03-.23-.1-.46-.2-.7-.3,0,0-.02,0-.03-.01-.24-.1-.49-.21-.73-.31,0,0,0,0,0,0-.31-.13-.62-.26-.94-.38.3.1.93.25,2.02.21.34.19,1.17.54,1.47.8.6.51.97.56,1.64.98,1.05.66,2.39.69,3.45,1.33.48.29.87.68,1.36.96.48.27,1.11.4,1.58.11.14-.09.27-.21.43-.19.09.01.17.06.24.12,1.03.75,1.95,1.65,2.71,2.66.22.3.45.61.78.78.33.16.8.11.98-.22.19-.37.02-1.04.44-1.1.16-.02.3.08.41.2.59.58.8,1.44,1.24,2.14.83,1.34,2.43,2.08,3.15,3.49.15.29.26.61.52.81.19.14.49.17.67.05.3.66.59,1.33.86,2.01-.07-.07-.15-.14-.23-.22Z"/>
          <path class="cls-2" d="m23.94,35.73s-.05-.05-.07-.07c-.18-.17-.38-.36-.59-.56-.01-.01-.03-.02-.04-.04,0,0,0,0-.01-.01-.12-.12-.25-.23-.39-.36-.02-.02-.05-.04-.07-.07,0,0,0,0-.01,0-.13-.12-.27-.24-.41-.37-.03-.03-.06-.05-.09-.08-.15-.13-.31-.27-.47-.41-.02-.02-.05-.04-.07-.06-.09-.08-.18-.16-.27-.23-.02-.02-.05-.04-.07-.06-.02-.02-.04-.03-.06-.05,0,0-.02-.01-.03-.02-.14-.12-.29-.24-.44-.36-.04-.03-.08-.07-.12-.1-.02-.02-.05-.04-.08-.06-.13-.11-.27-.22-.41-.34-.07-.06-.14-.11-.21-.17-.02-.02-.04-.03-.06-.05-.1-.08-.2-.16-.31-.25-.03-.02-.06-.05-.09-.07-.09-.07-.19-.15-.28-.22,0,0-.02-.01-.03-.02-.08-.06-.16-.13-.25-.19-.04-.03-.08-.06-.11-.09-.04-.03-.08-.06-.12-.09-.08-.06-.16-.13-.25-.19-.08-.06-.17-.13-.26-.19-.06-.05-.13-.1-.2-.15-.04-.03-.09-.07-.13-.1-.06-.04-.12-.09-.18-.13-.07-.05-.15-.11-.22-.16-.01-.01-.03-.02-.04-.03-.1-.07-.19-.14-.29-.21-.05-.04-.11-.08-.16-.11,0,0-.02-.01-.03-.02-.07-.05-.14-.1-.22-.16-.02-.01-.03-.02-.05-.03-.05-.04-.11-.08-.16-.12-.1-.07-.2-.14-.3-.21-.04-.03-.09-.06-.13-.09-.06-.04-.12-.09-.18-.13-.05-.04-.1-.07-.16-.11-.06-.04-.13-.09-.19-.13-.1-.07-.19-.13-.29-.2-.03-.02-.06-.04-.08-.06-.05-.03-.1-.07-.15-.1-.09-.06-.17-.12-.26-.17-.07-.05-.15-.1-.22-.15-.09-.06-.17-.12-.26-.17-.03-.02-.06-.04-.08-.06-.06-.04-.12-.07-.17-.11-.09-.06-.19-.12-.28-.18-.08-.05-.17-.11-.25-.16-.06-.04-.13-.08-.19-.12,0,0-.01,0-.02-.01-.02-.01-.05-.03-.07-.04-.09-.06-.18-.11-.27-.17-.09-.06-.18-.11-.27-.17-.1-.06-.19-.12-.29-.18-.03-.02-.06-.04-.09-.05-.06-.04-.12-.07-.18-.11-.1-.06-.2-.12-.31-.19-.08-.05-.17-.1-.26-.15-.08-.04-.15-.09-.23-.13-.01,0-.02-.01-.03-.02-.02-.01-.04-.03-.07-.04-.08-.05-.16-.1-.25-.15-.11-.07-.23-.13-.34-.2-.08-.05-.16-.09-.24-.14-.12-.07-.24-.14-.36-.21-.08-.04-.15-.09-.23-.13-.13-.07-.26-.14-.39-.22-.07-.04-.15-.08-.22-.12-.13-.07-.27-.15-.41-.22-.07-.04-.14-.08-.21-.12-.14-.08-.29-.15-.43-.23-.07-.04-.13-.07-.2-.11-.15-.08-.3-.16-.45-.24-.06-.03-.13-.07-.19-.1-.16-.08-.32-.16-.48-.25-.06-.03-.11-.06-.17-.09-.17-.09-.34-.17-.51-.26-.05-.03-.1-.05-.15-.08-.18-.09-.36-.18-.54-.26-.04-.02-.09-.04-.13-.06-.19-.09-.38-.18-.57-.27-.04-.02-.08-.04-.12-.05-.2-.09-.4-.19-.6-.28-.03-.01-.06-.03-.09-.04-.21-.1-.42-.19-.63-.29-.02-.01-.05-.02-.07-.03-.22-.1-.44-.2-.66-.29-.02,0-.04-.02-.06-.03-.23-.1-.46-.2-.7-.3,0,0-.02,0-.03-.01-.24-.1-.49-.21-.73-.31,0,0,0,0,0,0-.31-.13-.62-.26-.94-.38.3.1.93.25,2.02.21.34.19,1.17.54,1.47.8.6.51.97.56,1.64.98,1.05.66,2.39.69,3.45,1.33.48.29.87.68,1.36.96.48.27,1.11.4,1.58.11.14-.09.27-.21.43-.19.09.01.17.06.24.12,1.03.75,1.95,1.65,2.71,2.66.22.3.45.61.78.78.33.16.8.11.98-.22.19-.37.02-1.04.44-1.1.16-.02.3.08.41.2.59.58.8,1.44,1.24,2.14.83,1.34,2.43,2.08,3.15,3.49.15.29.26.61.52.81.19.14.49.17.67.05.3.66.59,1.33.86,2.01-.07-.07-.15-.14-.23-.22Z"/>
          <path class="cls-6" d="m25.05,36.84s-.01-.01-.02-.02c-.02-.02-.04-.04-.06-.07,0,0,0-.01-.01-.02-.04-.04-.08-.08-.12-.12,0,0,0,0-.01-.01-.02-.02-.04-.04-.06-.06,0,0,0,0,0,0-.04-.04-.08-.08-.12-.12-.02-.02-.04-.04-.06-.06-.02-.02-.04-.04-.07-.07,0,0,0,0,0,0-.02-.02-.04-.04-.06-.06-.05-.05-.1-.1-.16-.16-.03-.03-.05-.05-.08-.08,0,0-.01-.01-.02-.02,0,0,0,0,0,0,0,0-.01-.01-.02-.02-.27-.67-.56-1.34-.86-2.01.07-.04.12-.1.15-.19.06-.16.15-.44.28-.32.4,1.11.72,2.17,1.52,2.9.03.48.03.75.03.75,0,0-.07-.08-.2-.22,0,0-.01-.02-.02-.02Z"/>
          <path class="cls-2" d="m25.05,36.84s-.01-.01-.02-.02c-.02-.02-.04-.04-.06-.07,0,0,0-.01-.01-.02-.04-.04-.08-.08-.12-.12,0,0,0,0-.01-.01-.02-.02-.04-.04-.06-.06,0,0,0,0,0,0-.04-.04-.08-.08-.12-.12-.02-.02-.04-.04-.06-.06-.02-.02-.04-.04-.07-.07,0,0,0,0,0,0-.02-.02-.04-.04-.06-.06-.05-.05-.1-.1-.16-.16-.03-.03-.05-.05-.08-.08,0,0-.01-.01-.02-.02,0,0,0,0,0,0,0,0-.01-.01-.02-.02-.27-.67-.56-1.34-.86-2.01.07-.04.12-.1.15-.19.06-.16.15-.44.28-.32.4,1.11.72,2.17,1.52,2.9.03.48.03.75.03.75,0,0-.07-.08-.2-.22,0,0-.01-.02-.02-.02Z"/>
          <path class="cls-6" d="m23.86,35.64c-.06-.06-.12-.12-.19-.18,0,0-.01-.01-.02-.02-.06-.06-.12-.11-.18-.17,0,0-.02-.02-.03-.03-.05-.05-.1-.09-.15-.14.21.2.41.38.59.56,0,0,0,0,0,0,0,0,0,0,0,0Z"/>
          <path class="cls-2" d="m23.86,35.64c-.06-.06-.12-.12-.19-.18,0,0-.01-.01-.02-.02-.06-.06-.12-.11-.18-.17,0,0-.02-.02-.03-.03-.05-.05-.1-.09-.15-.14.21.2.41.38.59.56,0,0,0,0,0,0,0,0,0,0,0,0Z"/>
          <path class="cls-6" d="m23.94,35.73c.08.08.15.15.23.22,0,0,0,0,0,0-.07-.07-.15-.14-.23-.22Z"/>
          <path class="cls-2" d="m23.94,35.73c.08.08.15.15.23.22,0,0,0,0,0,0-.07-.07-.15-.14-.23-.22Z"/>
          <path class="cls-6" d="m16,29.3c.06.04.12.09.18.13-.02-.01-.03-.02-.05-.03-.05-.03-.09-.06-.14-.1Z"/>
          <path class="cls-2" d="m16,29.3c.06.04.12.09.18.13-.02-.01-.03-.02-.05-.03-.05-.03-.09-.06-.14-.1Z"/>
          <path class="cls-6" d="m17.04,30.03c-.07-.05-.14-.1-.22-.16.07.05.14.1.22.16Z"/>
          <path class="cls-2" d="m17.04,30.03c-.07-.05-.14-.1-.22-.16.07.05.14.1.22.16Z"/>
          <path class="cls-6" d="m12.4,26.95s.06.04.09.05c0,0,0,0,0,0-.03-.02-.06-.04-.09-.05Z"/>
          <path class="cls-2" d="m12.4,26.95s.06.04.09.05c0,0,0,0,0,0-.03-.02-.06-.04-.09-.05Z"/>
          <path class="cls-6" d="m11.43,26.36s-.02-.01-.03-.02c.01,0,.02.01.03.02Z"/>
          <path class="cls-2" d="m11.43,26.36s-.02-.01-.03-.02c.01,0,.02.01.03.02Z"/>
          <path class="cls-6" d="m20.99,33.09s-.09-.08-.14-.12c.15.12.29.24.44.36-.08-.06-.15-.13-.23-.2-.02-.02-.04-.03-.06-.05Z"/>
          <path class="cls-2" d="m20.99,33.09s-.09-.08-.14-.12c.15.12.29.24.44.36-.08-.06-.15-.13-.23-.2-.02-.02-.04-.03-.06-.05Z"/>
          <path class="cls-6" d="m22.2,34.12c-.08-.07-.16-.14-.24-.21-.02-.01-.03-.03-.05-.04-.04-.04-.09-.08-.13-.12.16.14.32.28.47.41,0,0,0,0-.01-.01-.01-.01-.03-.03-.04-.04Z"/>
          <path class="cls-2" d="m22.2,34.12c-.08-.07-.16-.14-.24-.21-.02-.01-.03-.03-.05-.04-.04-.04-.09-.08-.13-.12.16.14.32.28.47.41,0,0,0,0-.01-.01-.01-.01-.03-.03-.04-.04Z"/>
          <path class="cls-6" d="m22.51,34.4s-.02-.02-.03-.02c-.04-.04-.09-.08-.14-.12.14.13.28.25.41.37,0,0,0,0-.01-.01-.08-.07-.15-.14-.23-.21Z"/>
          <path class="cls-2" d="m22.51,34.4s-.02-.02-.03-.02c-.04-.04-.09-.08-.14-.12.14.13.28.25.41.37,0,0,0,0-.01-.01-.08-.07-.15-.14-.23-.21Z"/>
          <path class="cls-6" d="m20.38,32.58s-.05-.04-.08-.06c-.02-.02-.04-.04-.07-.05.14.11.28.23.41.34,0,0,0,0,0,0-.09-.07-.18-.14-.27-.22Z"/>
          <path class="cls-2" d="m20.38,32.58s-.05-.04-.08-.06c-.02-.02-.04-.04-.07-.05.14.11.28.23.41.34,0,0,0,0,0,0-.09-.07-.18-.14-.27-.22Z"/>
          <path class="cls-6" d="m18.37,31.01s-.06-.05-.09-.07c.09.06.17.13.26.19-.01,0-.03-.02-.04-.03-.04-.03-.08-.06-.12-.09Z"/>
          <path class="cls-2" d="m18.37,31.01s-.06-.05-.09-.07c.09.06.17.13.26.19-.01,0-.03-.02-.04-.03-.04-.03-.08-.06-.12-.09Z"/>
          <path class="cls-6" d="m15.12,28.7c.05.03.1.07.15.1-.04-.03-.08-.05-.12-.08-.01,0-.02-.01-.03-.02Z"/>
          <path class="cls-2" d="m15.12,28.7c.05.03.1.07.15.1-.04-.03-.08-.05-.12-.08-.01,0-.02-.01-.03-.02Z"/>
          <path class="cls-6" d="m19.01,31.5c.08.06.16.13.25.19-.02-.02-.05-.04-.07-.06-.06-.04-.11-.09-.17-.13Z"/>
          <path class="cls-2" d="m19.01,31.5c.08.06.16.13.25.19-.02-.02-.05-.04-.07-.06-.06-.04-.11-.09-.17-.13Z"/>
          <path class="cls-6" d="m21.62,33.62c-.06-.05-.12-.1-.18-.16.09.08.18.16.27.23-.01-.01-.03-.02-.04-.03-.02-.02-.04-.03-.05-.05Z"/>
          <path class="cls-2" d="m21.62,33.62c-.06-.05-.12-.1-.18-.16.09.08.18.16.27.23-.01-.01-.03-.02-.04-.03-.02-.02-.04-.03-.05-.05Z"/>
          <path class="cls-6" d="m13.4,27.57s-.01,0-.02-.01c0,0,.01,0,.02.01Z"/>
          <path class="cls-2" d="m13.4,27.57s-.01,0-.02-.01c0,0,.01,0,.02.01Z"/>
          <path class="cls-6" d="m14.3,28.15s.06.04.08.06c0,0-.01,0-.02-.01-.02-.01-.04-.03-.06-.04Z"/>
          <path class="cls-2" d="m14.3,28.15s.06.04.08.06c0,0-.01,0-.02-.01-.02-.01-.04-.03-.06-.04Z"/>
          <path class="cls-6" d="m17.56,30.4c.07.05.15.11.22.16-.04-.03-.08-.06-.12-.08-.03-.03-.07-.05-.1-.08Z"/>
          <path class="cls-2" d="m17.56,30.4c.07.05.15.11.22.16-.04-.03-.08-.06-.12-.08-.03-.03-.07-.05-.1-.08Z"/>
          <path class="cls-6" d="m19.66,32.01s0,0,0,0c.1.08.21.16.31.25,0,0-.02-.02-.03-.02-.09-.07-.18-.15-.28-.22Z"/>
          <path class="cls-2" d="m19.66,32.01s0,0,0,0c.1.08.21.16.31.25,0,0-.02-.02-.03-.02-.09-.07-.18-.15-.28-.22Z"/>
          <path class="cls-6" d="m23.01,34.85s-.02-.02-.03-.02c-.05-.04-.1-.09-.15-.13.14.12.27.24.39.36,0,0,0,0-.01,0-.07-.06-.14-.13-.21-.19Z"/>
          <path class="cls-2" d="m23.01,34.85s-.02-.02-.03-.02c-.05-.04-.1-.09-.15-.13.14.12.27.24.39.36,0,0,0,0-.01,0-.07-.06-.14-.13-.21-.19Z"/>
          <path class="cls-6" d="m24.84,36.62s0,0-.01-.01c0,0,0,0,.01.01Z"/>
          <path class="cls-2" d="m24.84,36.62s0,0-.01-.01c0,0,0,0,.01.01Z"/>
          <path class="cls-6" d="m24.65,36.42s-.04-.04-.06-.06c.02.02.04.04.06.06Z"/>
          <path class="cls-2" d="m24.65,36.42s-.04-.04-.06-.06c.02.02.04.04.06.06Z"/>
          <path class="cls-6" d="m24.17,35.95s.01.01.02.02c0,0-.02-.01-.02-.02,0,0,0,0,0,0Z"/>
          <path class="cls-2" d="m24.17,35.95s.01.01.02.02c0,0-.02-.01-.02-.02,0,0,0,0,0,0Z"/>
          <path class="cls-6" d="m24.36,36.14s-.05-.05-.07-.07c.05.05.11.11.16.16-.03-.03-.05-.05-.08-.08,0,0,0,0,0,0Z"/>
          <path class="cls-2" d="m24.36,36.14s-.05-.05-.07-.07c.05.05.11.11.16.16-.03-.03-.05-.05-.08-.08,0,0,0,0,0,0Z"/>
          <path class="cls-6" d="m24.26,31.37c-.29-.93-.89-1.73-1.48-2.5-.45-.59-.9-1.18-1.35-1.77-.33-.43-.65-.86-1.05-1.23-.39-.36-.83-.66-1.28-.95-.46-.63-.92-1.27-1.42-1.88-.1-.13-.2-.26-.31-.38.49.22.96.45,1.4.72,3.54,2.11,5.15,5.99,5.89,9.08-.03-.04-.05-.07-.07-.11-.17-.3-.23-.64-.33-.97Z"/>
          <path class="cls-4" d="m24.26,31.37c-.29-.93-.89-1.73-1.48-2.5-.45-.59-.9-1.18-1.35-1.77-.33-.43-.65-.86-1.05-1.23-.39-.36-.83-.66-1.28-.95-.46-.63-.92-1.27-1.42-1.88-.1-.13-.2-.26-.31-.38.49.22.96.45,1.4.72,3.54,2.11,5.15,5.99,5.89,9.08-.03-.04-.05-.07-.07-.11-.17-.3-.23-.64-.33-.97Z"/>
          <path class="cls-6" d="m17.03,23.53c.05.07.1.13.15.2-.3-.19-.61-.38-.91-.57-.34-.21-.67-.42-1.03-.57-.46-.2-.96-.31-1.45-.43-.98-.22-1.96-.44-2.94-.67-1.2-.27-2.4-.54-3.63-.67-.66-.07-1.33-.1-1.99-.18-.22-.03-.54-.03-.8-.1,3.26-.01,7.76.26,11.49,1.53.38.48.75.96,1.12,1.45Z"/>
          <path class="cls-4" d="m17.03,23.53c.05.07.1.13.15.2-.3-.19-.61-.38-.91-.57-.34-.21-.67-.42-1.03-.57-.46-.2-.96-.31-1.45-.43-.98-.22-1.96-.44-2.94-.67-1.2-.27-2.4-.54-3.63-.67-.66-.07-1.33-.1-1.99-.18-.22-.03-.54-.03-.8-.1,3.26-.01,7.76.26,11.49,1.53.38.48.75.96,1.12,1.45Z"/>
          <path class="cls-6" d="m19.1,24.92c-.11-.07-.22-.14-.32-.2-.53-.33-1.06-.66-1.59-.99-.05-.07-.1-.13-.15-.2-.37-.49-.74-.97-1.12-1.45.5.17.99.36,1.46.57.1.13.21.26.31.38.49.61.95,1.25,1.42,1.88Z"/>
          <path class="cls-4" d="m19.1,24.92c-.11-.07-.22-.14-.32-.2-.53-.33-1.06-.66-1.59-.99-.05-.07-.1-.13-.15-.2-.37-.49-.74-.97-1.12-1.45.5.17.99.36,1.46.57.1.13.21.26.31.38.49.61.95,1.25,1.42,1.88Z"/>
          <path class="cls-3" d="m21.3,33.35s0,0,.01,0c.02.02.04.03.06.05,0,0,.01,0,.02.01-.03-.02-.06-.05-.09-.07Z"/>
          <path class="cls-3" d="m20.65,32.8s.05.04.07.06c.02.02.04.03.06.05-.04-.04-.09-.07-.13-.11Z"/>
          <path class="cls-3" d="m19.28,31.71s0,0,0,0c.1.08.19.15.28.22.03.02.06.04.08.06-.12-.1-.25-.19-.37-.29Z"/>
          <path class="cls-3" d="m19.98,32.26s.03.02.05.04c.04.04.09.07.13.11-.06-.05-.12-.1-.18-.14Z"/>
          <path class="cls-3" d="m1.15,21.22c.25.1.49.2.73.31,0,0,.02,0,.03.01.23.1.47.2.7.3.02,0,.04.02.06.03.22.1.44.2.66.29.02.01.05.02.07.03.21.1.42.19.63.29.03.01.06.03.09.04.2.09.4.19.6.28.04.02.08.04.12.05.19.09.38.18.57.27.04.02.09.04.13.06.18.09.36.18.54.26.05.03.1.05.15.08.17.09.34.17.51.26.06.03.11.06.17.09.16.08.32.16.48.25.06.03.13.07.19.1.15.08.3.16.45.24.07.04.13.07.2.11.14.08.29.15.43.23.07.04.14.08.21.12.14.07.27.15.41.22.07.04.15.08.22.12.13.07.26.14.39.22.08.04.15.09.23.13.07.04.14.08.21.12-2.82-1.61-6.03-3.22-9.63-4.68-.11-.05-.22-.09-.33-.13.26.1.51.21.76.31,0,0,0,0,0,0Z"/>
          <path class="cls-3" d="m22.76,34.62s0,0,0,0c0,0,0,0,0,0,0,0,0,0-.01-.01Z"/>
          <polygon class="cls-3" points="23.23 35.06 23.24 35.06 23.25 35.07 23.23 35.06"/>
          <path class="cls-3" d="m17.05,30.04s.01,0,.02.01c.05.04.11.08.16.11.1.07.19.14.29.21,0,0,.01.01.02.02-.16-.12-.32-.23-.48-.35Z"/>
          <path class="cls-3" d="m14.42,28.23c.08.05.15.1.23.15.07.05.15.1.22.15.08.05.16.11.24.16-.23-.15-.46-.31-.69-.46Z"/>
          <path class="cls-3" d="m12.49,27c.1.06.19.12.29.18.09.06.18.11.27.17.09.06.18.11.27.17,0,0,.02.01.03.02-.28-.18-.56-.35-.85-.53Z"/>
          <path class="cls-3" d="m13.49,27.63s.07.04.11.07c.08.05.17.11.25.16.09.06.19.12.28.18.04.02.07.05.11.07-.25-.16-.5-.32-.75-.48Z"/>
          <path class="cls-3" d="m11.48,26.39c.06.04.12.07.18.11.09.05.17.1.26.15.1.06.21.12.31.19.05.03.09.06.14.09-.29-.18-.58-.36-.88-.53Z"/>
          <path class="cls-3" d="m17.87,30.64s.06.04.08.06c.04.03.09.07.13.1.05.04.1.07.15.11-.12-.09-.24-.18-.36-.27Z"/>
          <path class="cls-3" d="m10.41,25.77s.06.03.09.05c.08.05.16.09.24.14.12.07.23.13.34.2.08.05.17.1.25.15.01,0,.03.02.04.02-.32-.19-.64-.38-.96-.56Z"/>
          <path class="cls-3" d="m16.21,29.44s.07.05.11.08c.1.07.2.14.3.21.05.04.11.08.16.12,0,0,.01,0,.02.01-.19-.14-.39-.27-.58-.41Z"/>
          <path class="cls-3" d="m15.32,28.83s.03.02.04.03c.1.07.19.13.29.2.06.04.13.09.19.13.04.02.07.05.11.07-.21-.14-.42-.29-.63-.43Z"/>
          <path class="cls-3" d="m18.64,31.21s.1.07.14.11c.04.03.08.06.12.09.02.01.04.03.06.04-.1-.08-.21-.16-.32-.24Z"/>
          <path class="cls-6" d="m24.46,36.23s.03.03.05.05c0,0,0,0,0,0,.02.02.04.04.06.06-.04-.04-.07-.07-.11-.11Z"/>
          <path class="cls-3" d="m24.46,36.23s.03.03.05.05c0,0,0,0,0,0,.02.02.04.04.06.06-.04-.04-.07-.07-.11-.11Z"/>
          <path class="cls-6" d="m24.19,35.97s0,0,0,0c0,0,.01.01.02.02.02.02.04.04.05.05-.03-.02-.05-.05-.08-.08Z"/>
          <path class="cls-3" d="m24.19,35.97s0,0,0,0c0,0,.01.01.02.02.02.02.04.04.05.05-.03-.02-.05-.05-.08-.08Z"/>
          <path class="cls-6" d="m24.65,36.42s.08.08.12.12c0,0,0,0,0,0,.02.02.03.04.05.05-.05-.05-.11-.11-.17-.18Z"/>
          <path class="cls-3" d="m24.65,36.42s.08.08.12.12c0,0,0,0,0,0,.02.02.03.04.05.05-.05-.05-.11-.11-.17-.18Z"/>
          <path class="cls-6" d="m24.96,36.74s.01.01.01.02c.02.02.04.05.06.07,0,0,.01.01.02.02,0,0,.01.02.02.02-.02-.03-.05-.05-.08-.08-.05-.05-.1-.11-.16-.17.04.04.08.08.12.12Z"/>
          <path class="cls-3" d="m24.96,36.74s.01.01.01.02c.02.02.04.05.06.07,0,0,.01.01.02.02,0,0,.01.02.02.02-.02-.03-.05-.05-.08-.08-.05-.05-.1-.11-.16-.17.04.04.08.08.12.12Z"/>
          <path class="cls-5" d="m.71,21.04c3.59,1.46,6.8,3.07,9.63,4.68.02.01.05.03.07.04.33.19.65.38.96.56.04.02.07.04.11.06.3.18.59.36.88.53.04.02.08.05.12.07,0,0,0,0,0,0,.29.18.57.36.85.53.05.03.1.06.14.09.25.16.5.32.75.48.04.03.08.05.13.08.02.01.04.02.06.04.23.15.46.31.69.46.02.01.03.02.05.03.05.04.11.07.16.11.21.15.42.29.63.43.06.04.13.09.19.13.02.02.04.03.07.05.2.14.39.28.58.41.09.06.17.12.26.19.16.12.32.23.48.35.04.03.08.06.13.09.07.05.14.1.21.15.12.09.24.18.36.27.05.04.1.07.14.11.04.03.08.06.12.09.05.04.09.07.14.11.11.08.21.16.32.24.08.06.15.12.23.18.03.02.06.05.09.07.13.1.25.2.37.29,0,0,0,0,.01,0,.09.07.19.15.28.22.01.01.03.02.04.03.06.05.12.1.18.14.05.04.09.08.14.11.03.02.05.04.08.06.09.07.18.15.27.22,0,0,0,0,0,0,.05.04.09.07.13.11.07.06.14.11.21.17.02.02.04.03.06.05.08.07.17.14.25.21.03.02.06.05.09.07.08.07.16.13.23.2.02.02.04.03.05.05.08.07.16.14.24.21.02.01.03.03.05.04.08.07.16.14.24.21.01.01.03.03.04.04.08.07.16.14.24.21,0,0,.02.02.03.02.08.07.16.14.23.21,0,0,.01.01.02.02,0,0,0,0,.01.01.07.06.14.13.21.19,0,0,.02.02.03.02.07.06.14.13.21.19,0,0,.01.01.02.02,0,0,0,0,.01.01.06.06.13.12.19.18,0,0,.02.02.03.03.06.06.12.12.18.17,0,0,.01.01.02.02.06.06.13.12.19.18,0,0,0,0,0,0,.11.1.21.2.31.3.13.31.25.63.37.95-.1.02-.19.04-.29.07-.05-.04-.11-.07-.16-.1-.46-.26-.97-.44-1.5-.52-.57-.08-1.23-.09-1.57-.54.36-.26.85-.32,1.27-.16-.06-.88-1.02-1.42-1.89-1.59-.87-.16-1.81-.12-2.58-.57-.06-.03-.12-.08-.12-.14,0-.07.06-.12.12-.15.36-.23.73-.46,1.09-.68-1.07-1.45-2.74-2.43-4.52-2.67-.64-.08-1.33-.09-1.87-.44.05-.3.59-.18.73-.45.1-.2-.11-.41-.29-.53-.73-.5-1.45-1-2.18-1.5-.39-.26-.78-.53-1.24-.64-.7-.15-1.42.11-2.13.09-.12,0-.24-.02-.33-.09-.17-.14-.13-.42-.02-.62.11-.19.27-.37.31-.59.09-.54-.59-.85-1.12-.99-1.94-.52-3.78-1.39-5.42-2.55-.04-.12-.07-.25-.1-.37,0-.04-.02-.08-.02-.12Z"/>
          <path class="cls-3" d="m.71,21.04c3.59,1.46,6.8,3.07,9.63,4.68.02.01.05.03.07.04.33.19.65.38.96.56.04.02.07.04.11.06.3.18.59.36.88.53.04.02.08.05.12.07,0,0,0,0,0,0,.29.18.57.36.85.53.05.03.1.06.14.09.25.16.5.32.75.48.04.03.08.05.13.08.02.01.04.02.06.04.23.15.46.31.69.46.02.01.03.02.05.03.05.04.11.07.16.11.21.15.42.29.63.43.06.04.13.09.19.13.02.02.04.03.07.05.2.14.39.28.58.41.09.06.17.12.26.19.16.12.32.23.48.35.04.03.08.06.13.09.07.05.14.1.21.15.12.09.24.18.36.27.05.04.1.07.14.11.04.03.08.06.12.09.05.04.09.07.14.11.11.08.21.16.32.24.08.06.15.12.23.18.03.02.06.05.09.07.13.1.25.2.37.29,0,0,0,0,.01,0,.09.07.19.15.28.22.01.01.03.02.04.03.06.05.12.1.18.14.05.04.09.08.14.11.03.02.05.04.08.06.09.07.18.15.27.22,0,0,0,0,0,0,.05.04.09.07.13.11.07.06.14.11.21.17.02.02.04.03.06.05.08.07.17.14.25.21.03.02.06.05.09.07.08.07.16.13.23.2.02.02.04.03.05.05.08.07.16.14.24.21.02.01.03.03.05.04.08.07.16.14.24.21.01.01.03.03.04.04.08.07.16.14.24.21,0,0,.02.02.03.02.08.07.16.14.23.21,0,0,.01.01.02.02,0,0,0,0,.01.01.07.06.14.13.21.19,0,0,.02.02.03.02.07.06.14.13.21.19,0,0,.01.01.02.02,0,0,0,0,.01.01.06.06.13.12.19.18,0,0,.02.02.03.03.06.06.12.12.18.17,0,0,.01.01.02.02.06.06.13.12.19.18,0,0,0,0,0,0,.11.1.21.2.31.3.13.31.25.63.37.95-.1.02-.19.04-.29.07-.05-.04-.11-.07-.16-.1-.46-.26-.97-.44-1.5-.52-.57-.08-1.23-.09-1.57-.54.36-.26.85-.32,1.27-.16-.06-.88-1.02-1.42-1.89-1.59-.87-.16-1.81-.12-2.58-.57-.06-.03-.12-.08-.12-.14,0-.07.06-.12.12-.15.36-.23.73-.46,1.09-.68-1.07-1.45-2.74-2.43-4.52-2.67-.64-.08-1.33-.09-1.87-.44.05-.3.59-.18.73-.45.1-.2-.11-.41-.29-.53-.73-.5-1.45-1-2.18-1.5-.39-.26-.78-.53-1.24-.64-.7-.15-1.42.11-2.13.09-.12,0-.24-.02-.33-.09-.17-.14-.13-.42-.02-.62.11-.19.27-.37.31-.59.09-.54-.59-.85-1.12-.99-1.94-.52-3.78-1.39-5.42-2.55-.04-.12-.07-.25-.1-.37,0-.04-.02-.08-.02-.12Z"/>
          <path class="cls-5" d="m24.19,35.97s.05.05.08.08c.03.03.06.06.09.09,0,0,0,0,0,0,.03.03.06.06.09.09.04.04.08.08.11.11.03.03.05.05.08.08.06.06.12.12.17.18,0,0,.01.01.02.02.06.06.11.12.16.17-.15.04-.31.07-.46.11-.12-.32-.24-.63-.37-.95,0,0,.02.02.02.02Z"/>
          <path class="cls-3" d="m24.19,35.97s.05.05.08.08c.03.03.06.06.09.09,0,0,0,0,0,0,.03.03.06.06.09.09.04.04.08.08.11.11.03.03.05.05.08.08.06.06.12.12.17.18,0,0,.01.01.02.02.06.06.11.12.16.17-.15.04-.31.07-.46.11-.12-.32-.24-.63-.37-.95,0,0,.02.02.02.02Z"/>
          <path class="cls-6" d="m23.94,35.73s-.05-.05-.07-.07c.02.02.05.05.07.07Z"/>
          <path class="cls-2" d="m23.94,35.73s-.05-.05-.07-.07c.02.02.05.05.07.07Z"/>
          <path class="cls-3" d="m23.94,35.73s-.05-.05-.07-.07c.02.02.05.05.07.07Z"/>
          <path class="cls-6" d="m20.72,32.86s.08.07.12.1c-.02-.02-.04-.04-.06-.05-.02-.02-.04-.03-.06-.05Z"/>
          <path class="cls-2" d="m20.72,32.86s.08.07.12.1c-.02-.02-.04-.04-.06-.05-.02-.02-.04-.03-.06-.05Z"/>
          <path class="cls-3" d="m20.72,32.86s.08.07.12.1c-.02-.02-.04-.04-.06-.05-.02-.02-.04-.03-.06-.05Z"/>
          <path class="cls-6" d="m12.22,26.84c.06.04.12.07.18.11-.01,0-.02-.01-.04-.02-.05-.03-.09-.06-.14-.09Z"/>
          <path class="cls-2" d="m12.22,26.84c.06.04.12.07.18.11-.01,0-.02-.01-.04-.02-.05-.03-.09-.06-.14-.09Z"/>
          <path class="cls-3" d="m12.22,26.84c.06.04.12.07.18.11-.01,0-.02-.01-.04-.02-.05-.03-.09-.06-.14-.09Z"/>
          <path class="cls-6" d="m1.91,21.54s-.02,0-.03-.01c0,0,.02,0,.03.01Z"/>
          <path class="cls-2" d="m1.91,21.54s-.02,0-.03-.01c0,0,.02,0,.03.01Z"/>
          <path class="cls-3" d="m1.91,21.54s-.02,0-.03-.01c0,0,.02,0,.03.01Z"/>
          <path class="cls-6" d="m14.87,28.53c.09.06.17.12.26.17,0,0-.01,0-.02-.01-.08-.05-.16-.11-.24-.16Z"/>
          <path class="cls-2" d="m14.87,28.53c.09.06.17.12.26.17,0,0-.01,0-.02-.01-.08-.05-.16-.11-.24-.16Z"/>
          <path class="cls-3" d="m14.87,28.53c.09.06.17.12.26.17,0,0-.01,0-.02-.01-.08-.05-.16-.11-.24-.16Z"/>
          <path class="cls-6" d="m13.31,27.52s.05.03.07.04c-.01,0-.03-.02-.04-.03,0,0-.02-.01-.03-.02Z"/>
          <path class="cls-2" d="m13.31,27.52s.05.03.07.04c-.01,0-.03-.02-.04-.03,0,0-.02-.01-.03-.02Z"/>
          <path class="cls-3" d="m13.31,27.52s.05.03.07.04c-.01,0-.03-.02-.04-.03,0,0-.02-.01-.03-.02Z"/>
          <path class="cls-6" d="m13.4,27.57c.06.04.13.08.19.12-.03-.02-.07-.04-.11-.07-.03-.02-.06-.04-.08-.05Z"/>
          <path class="cls-2" d="m13.4,27.57c.06.04.13.08.19.12-.03-.02-.07-.04-.11-.07-.03-.02-.06-.04-.08-.05Z"/>
          <path class="cls-3" d="m13.4,27.57c.06.04.13.08.19.12-.03-.02-.07-.04-.11-.07-.03-.02-.06-.04-.08-.05Z"/>
          <path class="cls-6" d="m14.38,28.21c.09.06.18.12.26.17-.08-.05-.15-.1-.23-.15-.01,0-.02-.01-.03-.02Z"/>
          <path class="cls-2" d="m14.38,28.21c.09.06.18.12.26.17-.08-.05-.15-.1-.23-.15-.01,0-.02-.01-.03-.02Z"/>
          <path class="cls-3" d="m14.38,28.21c.09.06.18.12.26.17-.08-.05-.15-.1-.23-.15-.01,0-.02-.01-.03-.02Z"/>
          <path class="cls-6" d="m1.15,21.22s0,0,0,0c0,0,0,0,0,0Z"/>
          <path class="cls-2" d="m1.15,21.22s0,0,0,0c0,0,0,0,0,0Z"/>
          <path class="cls-3" d="m1.15,21.22s0,0,0,0c0,0,0,0,0,0Z"/>
          <path class="cls-6" d="m4.84,22.86s-.08-.04-.12-.05c.04.02.08.04.12.05Z"/>
          <path class="cls-2" d="m4.84,22.86s-.08-.04-.12-.05c.04.02.08.04.12.05Z"/>
          <path class="cls-3" d="m4.84,22.86s-.08-.04-.12-.05c.04.02.08.04.12.05Z"/>
          <path class="cls-6" d="m2.66,21.87s-.04-.02-.06-.03c.02,0,.04.02.06.03Z"/>
          <path class="cls-2" d="m2.66,21.87s-.04-.02-.06-.03c.02,0,.04.02.06.03Z"/>
          <path class="cls-3" d="m2.66,21.87s-.04-.02-.06-.03c.02,0,.04.02.06.03Z"/>
          <path class="cls-6" d="m5.55,23.2s-.09-.04-.13-.06c.04.02.09.04.13.06Z"/>
          <path class="cls-2" d="m5.55,23.2s-.09-.04-.13-.06c.04.02.09.04.13.06Z"/>
          <path class="cls-3" d="m5.55,23.2s-.09-.04-.13-.06c.04.02.09.04.13.06Z"/>
          <path class="cls-6" d="m3.4,22.19s-.05-.02-.07-.03c.02.01.05.02.07.03Z"/>
          <path class="cls-2" d="m3.4,22.19s-.05-.02-.07-.03c.02.01.05.02.07.03Z"/>
          <path class="cls-3" d="m3.4,22.19s-.05-.02-.07-.03c.02.01.05.02.07.03Z"/>
          <path class="cls-6" d="m4.13,22.52s-.06-.03-.09-.04c.03.01.06.03.09.04Z"/>
          <path class="cls-2" d="m4.13,22.52s-.06-.03-.09-.04c.03.01.06.03.09.04Z"/>
          <path class="cls-3" d="m4.13,22.52s-.06-.03-.09-.04c.03.01.06.03.09.04Z"/>
          <path class="cls-6" d="m17.78,30.57c.06.04.12.09.18.13-.03-.02-.06-.04-.08-.06-.03-.02-.06-.05-.09-.07Z"/>
          <path class="cls-2" d="m17.78,30.57c.06.04.12.09.18.13-.03-.02-.06-.04-.08-.06-.03-.02-.06-.05-.09-.07Z"/>
          <path class="cls-3" d="m17.78,30.57c.06.04.12.09.18.13-.03-.02-.06-.04-.08-.06-.03-.02-.06-.05-.09-.07Z"/>
          <path class="cls-6" d="m18.53,31.13c.08.06.16.13.25.19-.05-.04-.1-.07-.14-.11-.03-.03-.07-.05-.1-.08Z"/>
          <path class="cls-2" d="m18.53,31.13c.08.06.16.13.25.19-.05-.04-.1-.07-.14-.11-.03-.03-.07-.05-.1-.08Z"/>
          <path class="cls-3" d="m18.53,31.13c.08.06.16.13.25.19-.05-.04-.1-.07-.14-.11-.03-.03-.07-.05-.1-.08Z"/>
          <path class="cls-6" d="m22.77,34.63s.05.04.07.07c-.02-.02-.04-.04-.07-.06,0,0,0,0,0,0Z"/>
          <path class="cls-2" d="m22.77,34.63s.05.04.07.07c-.02-.02-.04-.04-.07-.06,0,0,0,0,0,0Z"/>
          <path class="cls-3" d="m22.77,34.63s.05.04.07.07c-.02-.02-.04-.04-.07-.06,0,0,0,0,0,0Z"/>
          <path class="cls-6" d="m21.28,33.33s.02.01.03.02c0,0,0,0-.01,0,0,0-.01,0-.02-.01Z"/>
          <path class="cls-2" d="m21.28,33.33s.02.01.03.02c0,0,0,0-.01,0,0,0-.01,0-.02-.01Z"/>
          <path class="cls-3" d="m21.28,33.33s.02.01.03.02c0,0,0,0-.01,0,0,0-.01,0-.02-.01Z"/>
          <path class="cls-6" d="m21.37,33.4s.05.04.07.06c-.02-.01-.03-.03-.05-.04,0,0-.01,0-.02-.01Z"/>
          <path class="cls-2" d="m21.37,33.4s.05.04.07.06c-.02-.01-.03-.03-.05-.04,0,0-.01,0-.02-.01Z"/>
          <path class="cls-3" d="m21.37,33.4s.05.04.07.06c-.02-.01-.03-.03-.05-.04,0,0-.01,0-.02-.01Z"/>
          <path class="cls-6" d="m20.03,32.3c.07.06.14.11.21.17-.02-.02-.05-.04-.07-.06-.04-.04-.09-.07-.13-.11Z"/>
          <path class="cls-2" d="m20.03,32.3c.07.06.14.11.21.17-.02-.02-.05-.04-.07-.06-.04-.04-.09-.07-.13-.11Z"/>
          <path class="cls-3" d="m20.03,32.3c.07.06.14.11.21.17-.02-.02-.05-.04-.07-.06-.04-.04-.09-.07-.13-.11Z"/>
          <path class="cls-6" d="m18.08,30.79c.07.05.13.1.2.15-.02-.01-.03-.02-.05-.04-.05-.04-.1-.07-.15-.11Z"/>
          <path class="cls-2" d="m18.08,30.79c.07.05.13.1.2.15-.02-.01-.03-.02-.05-.04-.05-.04-.1-.07-.15-.11Z"/>
          <path class="cls-3" d="m18.08,30.79c.07.05.13.1.2.15-.02-.01-.03-.02-.05-.04-.05-.04-.1-.07-.15-.11Z"/>
          <path class="cls-6" d="m18.9,31.41s.08.06.11.09c-.02-.01-.04-.03-.06-.04-.02-.01-.04-.03-.06-.04Z"/>
          <path class="cls-2" d="m18.9,31.41s.08.06.11.09c-.02-.01-.04-.03-.06-.04-.02-.01-.04-.03-.06-.04Z"/>
          <path class="cls-3" d="m18.9,31.41s.08.06.11.09c-.02-.01-.04-.03-.06-.04-.02-.01-.04-.03-.06-.04Z"/>
          <path class="cls-6" d="m6.24,23.54c-.05-.03-.1-.05-.15-.08.05.03.1.05.15.08Z"/>
          <path class="cls-2" d="m6.24,23.54c-.05-.03-.1-.05-.15-.08.05.03.1.05.15.08Z"/>
          <path class="cls-3" d="m6.24,23.54c-.05-.03-.1-.05-.15-.08.05.03.1.05.15.08Z"/>
          <path class="cls-6" d="m15.84,29.19c.05.04.1.07.16.11-.02-.01-.03-.02-.05-.04-.04-.02-.07-.05-.11-.07Z"/>
          <path class="cls-2" d="m15.84,29.19c.05.04.1.07.16.11-.02-.01-.03-.02-.05-.04-.04-.02-.07-.05-.11-.07Z"/>
          <path class="cls-3" d="m15.84,29.19c.05.04.1.07.16.11-.02-.01-.03-.02-.05-.04-.04-.02-.07-.05-.11-.07Z"/>
          <path class="cls-6" d="m16.77,29.84s.03.02.05.03c-.01,0-.02-.02-.03-.02,0,0-.01,0-.02-.01Z"/>
          <path class="cls-2" d="m16.77,29.84s.03.02.05.03c-.01,0-.02-.02-.03-.02,0,0-.01,0-.02-.01Z"/>
          <path class="cls-3" d="m16.77,29.84s.03.02.05.03c-.01,0-.02-.02-.03-.02,0,0-.01,0-.02-.01Z"/>
          <path class="cls-6" d="m23.24,35.06s.03.02.04.04c-.01-.01-.02-.02-.04-.03,0,0,0,0,0,0Z"/>
          <path class="cls-2" d="m23.24,35.06s.03.02.04.04c-.01-.01-.02-.02-.04-.03,0,0,0,0,0,0Z"/>
          <path class="cls-3" d="m23.24,35.06s.03.02.04.04c-.01-.01-.02-.02-.04-.03,0,0,0,0,0,0Z"/>
          <path class="cls-6" d="m17.04,30.03s.02.01.03.02c0,0-.01,0-.02-.01,0,0,0,0,0,0Z"/>
          <path class="cls-2" d="m17.04,30.03s.02.01.03.02c0,0-.01,0-.02-.01,0,0,0,0,0,0Z"/>
          <path class="cls-3" d="m17.04,30.03s.02.01.03.02c0,0-.01,0-.02-.01,0,0,0,0,0,0Z"/>
          <path class="cls-6" d="m22.35,34.25s-.06-.05-.09-.08c.03.03.06.05.09.08Z"/>
          <path class="cls-2" d="m22.35,34.25s-.06-.05-.09-.08c.03.03.06.05.09.08Z"/>
          <path class="cls-3" d="m22.35,34.25s-.06-.05-.09-.08c.03.03.06.05.09.08Z"/>
          <path class="cls-6" d="m19.57,31.93c-.09-.07-.19-.15-.28-.22.1.08.19.15.28.22Z"/>
          <path class="cls-2" d="m19.57,31.93c-.09-.07-.19-.15-.28-.22.1.08.19.15.28.22Z"/>
          <path class="cls-3" d="m19.57,31.93c-.09-.07-.19-.15-.28-.22.1.08.19.15.28.22Z"/>
          <path class="cls-6" d="m16.61,29.72c-.1-.07-.2-.14-.3-.21.1.07.2.14.3.21Z"/>
          <path class="cls-2" d="m16.61,29.72c-.1-.07-.2-.14-.3-.21.1.07.2.14.3.21Z"/>
          <path class="cls-3" d="m16.61,29.72c-.1-.07-.2-.14-.3-.21.1.07.2.14.3.21Z"/>
          <path class="cls-6" d="m17.51,30.37c-.1-.07-.19-.14-.29-.21.1.07.19.14.29.21Z"/>
          <path class="cls-2" d="m17.51,30.37c-.1-.07-.19-.14-.29-.21.1.07.19.14.29.21Z"/>
          <path class="cls-3" d="m17.51,30.37c-.1-.07-.19-.14-.29-.21.1.07.19.14.29.21Z"/>
          <path class="cls-6" d="m13.04,27.35c-.09-.06-.18-.11-.27-.17.09.06.18.11.27.17Z"/>
          <path class="cls-2" d="m13.04,27.35c-.09-.06-.18-.11-.27-.17.09.06.18.11.27.17Z"/>
          <path class="cls-3" d="m13.04,27.35c-.09-.06-.18-.11-.27-.17.09.06.18.11.27.17Z"/>
          <path class="cls-6" d="m21.78,33.76s-.05-.04-.07-.06c.02.02.05.04.07.06Z"/>
          <path class="cls-2" d="m21.78,33.76s-.05-.04-.07-.06c.02.02.05.04.07.06Z"/>
          <path class="cls-3" d="m21.78,33.76s-.05-.04-.07-.06c.02.02.05.04.07.06Z"/>
          <path class="cls-6" d="m15.65,29.06c-.1-.07-.19-.13-.29-.2.1.07.19.13.29.2Z"/>
          <path class="cls-2" d="m15.65,29.06c-.1-.07-.19-.13-.29-.2.1.07.19.13.29.2Z"/>
          <path class="cls-3" d="m15.65,29.06c-.1-.07-.19-.13-.29-.2.1.07.19.13.29.2Z"/>
          <path class="cls-6" d="m14.13,28.04c-.09-.06-.19-.12-.28-.18.09.06.19.12.28.18Z"/>
          <path class="cls-2" d="m14.13,28.04c-.09-.06-.19-.12-.28-.18.09.06.19.12.28.18Z"/>
          <path class="cls-3" d="m14.13,28.04c-.09-.06-.19-.12-.28-.18.09.06.19.12.28.18Z"/>
          <path class="cls-6" d="m6.92,23.88c-.06-.03-.11-.06-.17-.09.06.03.11.06.17.09Z"/>
          <path class="cls-2" d="m6.92,23.88c-.06-.03-.11-.06-.17-.09.06.03.11.06.17.09Z"/>
          <path class="cls-3" d="m6.92,23.88c-.06-.03-.11-.06-.17-.09.06.03.11.06.17.09Z"/>
          <path class="cls-6" d="m10.13,25.61c-.08-.04-.15-.09-.23-.13.08.04.15.09.23.13Z"/>
          <path class="cls-2" d="m10.13,25.61c-.08-.04-.15-.09-.23-.13.08.04.15.09.23.13Z"/>
          <path class="cls-3" d="m10.13,25.61c-.08-.04-.15-.09-.23-.13.08.04.15.09.23.13Z"/>
          <path class="cls-6" d="m8.89,24.92c-.07-.04-.14-.08-.21-.12.07.04.14.08.21.12Z"/>
          <path class="cls-2" d="m8.89,24.92c-.07-.04-.14-.08-.21-.12.07.04.14.08.21.12Z"/>
          <path class="cls-3" d="m8.89,24.92c-.07-.04-.14-.08-.21-.12.07.04.14.08.21.12Z"/>
          <path class="cls-6" d="m7.59,24.22c-.06-.03-.13-.07-.19-.1.06.03.13.07.19.1Z"/>
          <path class="cls-2" d="m7.59,24.22c-.06-.03-.13-.07-.19-.1.06.03.13.07.19.1Z"/>
          <path class="cls-3" d="m7.59,24.22c-.06-.03-.13-.07-.19-.1.06.03.13.07.19.1Z"/>
          <path class="cls-6" d="m9.51,25.26c-.07-.04-.15-.08-.22-.12.07.04.15.08.22.12Z"/>
          <path class="cls-2" d="m9.51,25.26c-.07-.04-.15-.08-.22-.12.07.04.15.08.22.12Z"/>
          <path class="cls-3" d="m9.51,25.26c-.07-.04-.15-.08-.22-.12.07.04.15.08.22.12Z"/>
          <path class="cls-6" d="m8.24,24.57c-.07-.04-.13-.07-.2-.11.07.04.13.07.2.11Z"/>
          <path class="cls-2" d="m8.24,24.57c-.07-.04-.13-.07-.2-.11.07.04.13.07.2.11Z"/>
          <path class="cls-3" d="m8.24,24.57c-.07-.04-.13-.07-.2-.11.07.04.13.07.2.11Z"/>
          <path class="cls-6" d="m11.33,26.3c-.08-.05-.16-.1-.25-.15.08.05.17.1.25.15Z"/>
          <path class="cls-2" d="m11.33,26.3c-.08-.05-.16-.1-.25-.15.08.05.17.1.25.15Z"/>
          <path class="cls-3" d="m11.33,26.3c-.08-.05-.16-.1-.25-.15.08.05.17.1.25.15Z"/>
          <path class="cls-6" d="m10.74,25.96c-.08-.05-.16-.09-.24-.14.08.05.16.09.24.14Z"/>
          <path class="cls-2" d="m10.74,25.96c-.08-.05-.16-.09-.24-.14.08.05.16.09.24.14Z"/>
          <path class="cls-3" d="m10.74,25.96c-.08-.05-.16-.09-.24-.14.08.05.16.09.24.14Z"/>
          <path class="cls-6" d="m11.92,26.65c-.08-.05-.17-.1-.26-.15.09.05.17.1.26.15Z"/>
          <path class="cls-2" d="m11.92,26.65c-.08-.05-.17-.1-.26-.15.09.05.17.1.26.15Z"/>
          <path class="cls-3" d="m11.92,26.65c-.08-.05-.17-.1-.26-.15.09.05.17.1.26.15Z"/>
          <path class="cls-6" d="m25.08,36.87s0,0,0,0c0,0-.01-.02-.02-.02,0,0,.02.02.02.02Z"/>
          <path class="cls-2" d="m25.08,36.87s0,0,0,0c0,0-.01-.02-.02-.02,0,0,.02.02.02.02Z"/>
          <path class="cls-3" d="m25.08,36.87s0,0,0,0c0,0-.01-.02-.02-.02,0,0,.02.02.02.02Z"/>
          <path class="cls-6" d="m24.84,36.62s.08.08.12.12c-.04-.04-.07-.08-.12-.12,0,0,0,0,0,0Z"/>
          <path class="cls-2" d="m24.84,36.62s.08.08.12.12c-.04-.04-.07-.08-.12-.12,0,0,0,0,0,0Z"/>
          <path class="cls-3" d="m24.84,36.62s.08.08.12.12c-.04-.04-.07-.08-.12-.12,0,0,0,0,0,0Z"/>
          <path class="cls-6" d="m25.04,36.82s-.04-.04-.06-.07c.02.02.04.05.06.07Z"/>
          <path class="cls-2" d="m25.04,36.82s-.04-.04-.06-.07c.02.02.04.05.06.07Z"/>
          <path class="cls-3" d="m25.04,36.82s-.04-.04-.06-.07c.02.02.04.05.06.07Z"/>
          <path class="cls-6" d="m24.45,36.22s.04.04.06.06c-.02-.02-.03-.03-.05-.05,0,0,0,0-.01-.01Z"/>
          <path class="cls-2" d="m24.45,36.22s.04.04.06.06c-.02-.02-.03-.03-.05-.05,0,0,0,0-.01-.01Z"/>
          <path class="cls-3" d="m24.45,36.22s.04.04.06.06c-.02-.02-.03-.03-.05-.05,0,0,0,0-.01-.01Z"/>
          <path class="cls-6" d="m24.52,36.29s.04.04.07.07c0,0,0,0-.01-.01-.02-.02-.04-.04-.06-.06Z"/>
          <path class="cls-2" d="m24.52,36.29s.04.04.07.07c0,0,0,0-.01-.01-.02-.02-.04-.04-.06-.06Z"/>
          <path class="cls-3" d="m24.52,36.29s.04.04.07.07c0,0,0,0-.01-.01-.02-.02-.04-.04-.06-.06Z"/>
          <path class="cls-6" d="m24.65,36.42s.08.08.12.12c-.04-.04-.08-.08-.12-.12,0,0,0,0,0,0Z"/>
          <path class="cls-2" d="m24.65,36.42s.08.08.12.12c-.04-.04-.08-.08-.12-.12,0,0,0,0,0,0Z"/>
          <path class="cls-3" d="m24.65,36.42s.08.08.12.12c-.04-.04-.08-.08-.12-.12,0,0,0,0,0,0Z"/>
          <path class="cls-6" d="m24.77,36.55s.04.04.06.06c0,0,0,0,0,0-.02-.02-.03-.03-.05-.05Z"/>
          <path class="cls-2" d="m24.77,36.55s.04.04.06.06c0,0,0,0,0,0-.02-.02-.03-.03-.05-.05Z"/>
          <path class="cls-3" d="m24.77,36.55s.04.04.06.06c0,0,0,0,0,0-.02-.02-.03-.03-.05-.05Z"/>
          <path class="cls-6" d="m24.22,35.99s.05.05.08.08c0,0-.02-.02-.02-.02-.02-.02-.04-.03-.05-.05Z"/>
          <path class="cls-2" d="m24.22,35.99s.05.05.08.08c0,0-.02-.02-.02-.02-.02-.02-.04-.03-.05-.05Z"/>
          <path class="cls-3" d="m24.22,35.99s.05.05.08.08c0,0-.02-.02-.02-.02-.02-.02-.04-.03-.05-.05Z"/>
          <polygon class="cls-6" points="24.19 35.97 24.2 35.97 24.19 35.97 24.19 35.97"/>
          <polygon class="cls-2" points="24.19 35.97 24.2 35.97 24.19 35.97 24.19 35.97"/>
          <polygon class="cls-3" points="24.19 35.97 24.2 35.97 24.19 35.97 24.19 35.97"/>
          <path class="cls-6" d="m21.96,33.92c.08.07.16.14.24.21-.08-.07-.16-.14-.24-.21Z"/>
          <path class="cls-2" d="m21.96,33.92c.08.07.16.14.24.21-.08-.07-.16-.14-.24-.21Z"/>
          <path class="cls-3" d="m21.96,33.92c.08.07.16.14.24.21-.08-.07-.16-.14-.24-.21Z"/>
          <path class="cls-6" d="m21.67,33.66s.03.02.04.03c.02.02.05.04.07.06.05.04.09.08.13.12-.08-.07-.16-.14-.24-.21Z"/>
          <path class="cls-2" d="m21.67,33.66s.03.02.04.03c.02.02.05.04.07.06.05.04.09.08.13.12-.08-.07-.16-.14-.24-.21Z"/>
          <path class="cls-3" d="m21.67,33.66s.03.02.04.03c.02.02.05.04.07.06.05.04.09.08.13.12-.08-.07-.16-.14-.24-.21Z"/>
          <path class="cls-6" d="m21.38,33.42s.03.03.05.04c.06.05.12.1.18.16-.08-.07-.15-.13-.23-.2Z"/>
          <path class="cls-2" d="m21.38,33.42s.03.03.05.04c.06.05.12.1.18.16-.08-.07-.15-.13-.23-.2Z"/>
          <path class="cls-3" d="m21.38,33.42s.03.03.05.04c.06.05.12.1.18.16-.08-.07-.15-.13-.23-.2Z"/>
          <path class="cls-6" d="m23.67,35.46c.06.06.13.12.19.18-.06-.06-.12-.12-.19-.18Z"/>
          <path class="cls-2" d="m23.67,35.46c.06.06.13.12.19.18-.06-.06-.12-.12-.19-.18Z"/>
          <path class="cls-3" d="m23.67,35.46c.06.06.13.12.19.18-.06-.06-.12-.12-.19-.18Z"/>
          <path class="cls-6" d="m24.17,35.95c-.1-.09-.2-.19-.31-.3,0,0,0,0,0,0,.02.02.05.05.07.07.08.08.15.15.23.22,0,0,0,0,0,0Z"/>
          <path class="cls-2" d="m24.17,35.95c-.1-.09-.2-.19-.31-.3,0,0,0,0,0,0,.02.02.05.05.07.07.08.08.15.15.23.22,0,0,0,0,0,0Z"/>
          <path class="cls-3" d="m24.17,35.95c-.1-.09-.2-.19-.31-.3,0,0,0,0,0,0,.02.02.05.05.07.07.08.08.15.15.23.22,0,0,0,0,0,0Z"/>
          <path class="cls-6" d="m22.77,34.64s.04.04.07.06c.05.04.1.09.15.13-.07-.06-.14-.13-.21-.19Z"/>
          <path class="cls-2" d="m22.77,34.64s.04.04.07.06c.05.04.1.09.15.13-.07-.06-.14-.13-.21-.19Z"/>
          <path class="cls-3" d="m22.77,34.64s.04.04.07.06c.05.04.1.09.15.13-.07-.06-.14-.13-.21-.19Z"/>
          <path class="cls-6" d="m22.24,34.16s0,0,.01.01c.03.03.06.05.09.08.05.04.09.08.14.12-.08-.07-.16-.14-.24-.21Z"/>
          <path class="cls-2" d="m22.24,34.16s0,0,.01.01c.03.03.06.05.09.08.05.04.09.08.14.12-.08-.07-.16-.14-.24-.21Z"/>
          <path class="cls-3" d="m22.24,34.16s0,0,.01.01c.03.03.06.05.09.08.05.04.09.08.14.12-.08-.07-.16-.14-.24-.21Z"/>
          <path class="cls-6" d="m23.01,34.85c.07.06.14.13.21.19-.07-.06-.14-.13-.21-.19Z"/>
          <path class="cls-2" d="m23.01,34.85c.07.06.14.13.21.19-.07-.06-.14-.13-.21-.19Z"/>
          <path class="cls-3" d="m23.01,34.85c.07.06.14.13.21.19-.07-.06-.14-.13-.21-.19Z"/>
          <path class="cls-6" d="m23.25,35.07s.02.02.04.03c.05.05.1.1.15.14-.06-.06-.12-.12-.19-.18Z"/>
          <path class="cls-2" d="m23.25,35.07s.02.02.04.03c.05.05.1.1.15.14-.06-.06-.12-.12-.19-.18Z"/>
          <path class="cls-3" d="m23.25,35.07s.02.02.04.03c.05.05.1.1.15.14-.06-.06-.12-.12-.19-.18Z"/>
          <path class="cls-6" d="m23.46,35.27c.06.06.12.12.18.17-.06-.06-.12-.11-.18-.17Z"/>
          <path class="cls-2" d="m23.46,35.27c.06.06.12.12.18.17-.06-.06-.12-.11-.18-.17Z"/>
          <path class="cls-3" d="m23.46,35.27c.06.06.12.12.18.17-.06-.06-.12-.11-.18-.17Z"/>
          <path class="cls-6" d="m22.51,34.4c.08.07.16.14.23.21-.08-.07-.15-.14-.23-.21Z"/>
          <path class="cls-2" d="m22.51,34.4c.08.07.16.14.23.21-.08-.07-.15-.14-.23-.21Z"/>
          <path class="cls-3" d="m22.51,34.4c.08.07.16.14.23.21-.08-.07-.15-.14-.23-.21Z"/>
          <path class="cls-6" d="m15.11,28.69s.01,0,.02.01c.01,0,.02.01.03.02-.02-.01-.03-.02-.05-.03Z"/>
          <path class="cls-2" d="m15.11,28.69s.01,0,.02.01c.01,0,.02.01.03.02-.02-.01-.03-.02-.05-.03Z"/>
          <path class="cls-3" d="m15.11,28.69s.01,0,.02.01c.01,0,.02.01.03.02-.02-.01-.03-.02-.05-.03Z"/>
          <path class="cls-6" d="m16.79,29.85s.02.02.03.02c.07.05.14.1.22.16,0,0,0,0,0,0-.09-.06-.17-.12-.26-.19Z"/>
          <path class="cls-2" d="m16.79,29.85s.02.02.03.02c.07.05.14.1.22.16,0,0,0,0,0,0-.09-.06-.17-.12-.26-.19Z"/>
          <path class="cls-3" d="m16.79,29.85s.02.02.03.02c.07.05.14.1.22.16,0,0,0,0,0,0-.09-.06-.17-.12-.26-.19Z"/>
          <path class="cls-6" d="m15.95,29.26s.03.02.05.04c.05.03.09.06.14.1-.06-.04-.13-.09-.19-.13Z"/>
          <path class="cls-2" d="m15.95,29.26s.03.02.05.04c.05.03.09.06.14.1-.06-.04-.13-.09-.19-.13Z"/>
          <path class="cls-3" d="m15.95,29.26s.03.02.05.04c.05.03.09.06.14.1-.06-.04-.13-.09-.19-.13Z"/>
          <path class="cls-6" d="m17.66,30.48s.08.06.12.08c.03.02.06.05.09.07-.07-.05-.14-.1-.21-.15Z"/>
          <path class="cls-2" d="m17.66,30.48s.08.06.12.08c.03.02.06.05.09.07-.07-.05-.14-.1-.21-.15Z"/>
          <path class="cls-3" d="m17.66,30.48s.08.06.12.08c.03.02.06.05.09.07-.07-.05-.14-.1-.21-.15Z"/>
          <path class="cls-6" d="m13.34,27.53s.03.02.04.03c0,0,.01,0,.02.01.03.02.06.04.08.05-.05-.03-.1-.06-.14-.09Z"/>
          <path class="cls-2" d="m13.34,27.53s.03.02.04.03c0,0,.01,0,.02.01.03.02.06.04.08.05-.05-.03-.1-.06-.14-.09Z"/>
          <path class="cls-3" d="m13.34,27.53s.03.02.04.03c0,0,.01,0,.02.01.03.02.06.04.08.05-.05-.03-.1-.06-.14-.09Z"/>
          <path class="cls-6" d="m21.05,33.14c.08.07.16.13.23.2,0,0,.01,0,.02.01-.08-.07-.16-.14-.25-.21Z"/>
          <path class="cls-2" d="m21.05,33.14c.08.07.16.13.23.2,0,0,.01,0,.02.01-.08-.07-.16-.14-.25-.21Z"/>
          <path class="cls-3" d="m21.05,33.14c.08.07.16.13.23.2,0,0,.01,0,.02.01-.08-.07-.16-.14-.25-.21Z"/>
          <path class="cls-6" d="m12.36,26.93s.02.01.04.02c.03.02.06.04.09.05-.04-.02-.08-.05-.12-.07Z"/>
          <path class="cls-2" d="m12.36,26.93s.02.01.04.02c.03.02.06.04.09.05-.04-.02-.08-.05-.12-.07Z"/>
          <path class="cls-3" d="m12.36,26.93s.02.01.04.02c.03.02.06.04.09.05-.04-.02-.08-.05-.12-.07Z"/>
          <path class="cls-6" d="m18.23,30.91s.03.02.05.04c.03.02.06.05.09.07-.05-.04-.09-.07-.14-.11Z"/>
          <path class="cls-2" d="m18.23,30.91s.03.02.05.04c.03.02.06.05.09.07-.05-.04-.09-.07-.14-.11Z"/>
          <path class="cls-3" d="m18.23,30.91s.03.02.05.04c.03.02.06.05.09.07-.05-.04-.09-.07-.14-.11Z"/>
          <path class="cls-6" d="m14.36,28.19s.01,0,.02.01c.01,0,.02.01.03.02-.02-.01-.04-.02-.06-.04Z"/>
          <path class="cls-2" d="m14.36,28.19s.01,0,.02.01c.01,0,.02.01.03.02-.02-.01-.04-.02-.06-.04Z"/>
          <path class="cls-3" d="m14.36,28.19s.01,0,.02.01c.01,0,.02.01.03.02-.02-.01-.04-.02-.06-.04Z"/>
          <path class="cls-6" d="m20.78,32.91s.04.04.06.05c.05.04.09.08.14.12-.07-.06-.14-.11-.21-.17Z"/>
          <path class="cls-2" d="m20.78,32.91s.04.04.06.05c.05.04.09.08.14.12-.07-.06-.14-.11-.21-.17Z"/>
          <path class="cls-3" d="m20.78,32.91s.04.04.06.05c.05.04.09.08.14.12-.07-.06-.14-.11-.21-.17Z"/>
          <path class="cls-6" d="m20.38,32.58c.09.07.18.15.27.22-.09-.07-.18-.14-.27-.22Z"/>
          <path class="cls-2" d="m20.38,32.58c.09.07.18.15.27.22-.09-.07-.18-.14-.27-.22Z"/>
          <path class="cls-3" d="m20.38,32.58c.09.07.18.15.27.22-.09-.07-.18-.14-.27-.22Z"/>
          <path class="cls-6" d="m18.5,31.11s.03.02.04.03c.03.03.07.05.1.08-.05-.04-.09-.07-.14-.11Z"/>
          <path class="cls-2" d="m18.5,31.11s.03.02.04.03c.03.03.07.05.1.08-.05-.04-.09-.07-.14-.11Z"/>
          <path class="cls-3" d="m18.5,31.11s.03.02.04.03c.03.03.07.05.1.08-.05-.04-.09-.07-.14-.11Z"/>
          <path class="cls-6" d="m19.66,32.01c.09.07.19.15.28.22-.09-.07-.18-.15-.28-.22Z"/>
          <path class="cls-2" d="m19.66,32.01c.09.07.19.15.28.22-.09-.07-.18-.15-.28-.22Z"/>
          <path class="cls-3" d="m19.66,32.01c.09.07.19.15.28.22-.09-.07-.18-.15-.28-.22Z"/>
          <path class="cls-6" d="m18.95,31.46s.04.03.06.04c.06.04.12.09.17.13-.08-.06-.15-.12-.23-.18Z"/>
          <path class="cls-2" d="m18.95,31.46s.04.03.06.04c.06.04.12.09.17.13-.08-.06-.15-.12-.23-.18Z"/>
          <path class="cls-3" d="m18.95,31.46s.04.03.06.04c.06.04.12.09.17.13-.08-.06-.15-.12-.23-.18Z"/>
          <path class="cls-6" d="m20.16,32.41s.05.04.07.06c.02.02.05.04.07.05-.05-.04-.09-.08-.14-.11Z"/>
          <path class="cls-2" d="m20.16,32.41s.05.04.07.06c.02.02.05.04.07.05-.05-.04-.09-.08-.14-.11Z"/>
          <path class="cls-3" d="m20.16,32.41s.05.04.07.06c.02.02.05.04.07.05-.05-.04-.09-.08-.14-.11Z"/>
          <path class="cls-6" d="m24.27,36.04s.02.02.02.02c.02.02.05.05.07.07-.03-.03-.06-.06-.09-.09Z"/>
          <path class="cls-2" d="m24.27,36.04s.02.02.02.02c.02.02.05.05.07.07-.03-.03-.06-.06-.09-.09Z"/>
          <path class="cls-3" d="m24.27,36.04s.02.02.02.02c.02.02.05.05.07.07-.03-.03-.06-.06-.09-.09Z"/>
          <path class="cls-6" d="m24.57,36.35s0,0,.01.01c.02.02.04.04.06.06,0,0,0,0,0,0-.02-.02-.05-.05-.08-.08Z"/>
          <path class="cls-2" d="m24.57,36.35s0,0,.01.01c.02.02.04.04.06.06,0,0,0,0,0,0-.02-.02-.05-.05-.08-.08Z"/>
          <path class="cls-3" d="m24.57,36.35s0,0,.01.01c.02.02.04.04.06.06,0,0,0,0,0,0-.02-.02-.05-.05-.08-.08Z"/>
          <path class="cls-6" d="m24.37,36.14s.05.05.08.08c0,0,0,0,.01.01-.03-.03-.06-.06-.09-.09Z"/>
          <path class="cls-2" d="m24.37,36.14s.05.05.08.08c0,0,0,0,.01.01-.03-.03-.06-.06-.09-.09Z"/>
          <path class="cls-3" d="m24.37,36.14s.05.05.08.08c0,0,0,0,.01.01-.03-.03-.06-.06-.09-.09Z"/>
          <path class="cls-6" d="m24.17,35.95s0,0,0,0c0,0,.02.01.02.02,0,0,0,0,0,0,0,0-.02-.02-.02-.02Z"/>
          <path class="cls-2" d="m24.17,35.95s0,0,0,0c0,0,.02.01.02.02,0,0,0,0,0,0,0,0-.02-.02-.02-.02Z"/>
          <path class="cls-3" d="m24.17,35.95s0,0,0,0c0,0,.02.01.02.02,0,0,0,0,0,0,0,0-.02-.02-.02-.02Z"/>
          <path class="cls-6" d="m24.82,36.6s0,0,0,0c0,0,0,0,.01.01,0,0,0,0,0,0,0,0-.01-.01-.02-.02Z"/>
          <path class="cls-2" d="m24.82,36.6s0,0,0,0c0,0,0,0,.01.01,0,0,0,0,0,0,0,0-.01-.01-.02-.02Z"/>
          <path class="cls-3" d="m24.82,36.6s0,0,0,0c0,0,0,0,.01.01,0,0,0,0,0,0,0,0-.01-.01-.02-.02Z"/>
          <path class="cls-5" d="m.39,20.91s-.01.02-.02.04c-.04.18.13.34.28.46.06.04.12.09.19.13.31,1.07.82,2.15,1.28,3.16,1.03,2.28,2.34,4.46,4.09,6.26.51.52,1.05,1.01,1.59,1.49,2.44,2.17,5.07,4.34,8.26,5.05,2.7.6,5.5.08,8.21-.54.14.1.28.21.43.29,0,0,0,.02,0,.03C6.47,42.88,0,20.75,0,20.75c0,0,.06.04.2.08.06.02.12.05.18.07Z"/>
          <path class="cls-4" d="m.39,20.91s-.01.02-.02.04c-.04.18.13.34.28.46.06.04.12.09.19.13.31,1.07.82,2.15,1.28,3.16,1.03,2.28,2.34,4.46,4.09,6.26.51.52,1.05,1.01,1.59,1.49,2.44,2.17,5.07,4.34,8.26,5.05,2.7.6,5.5.08,8.21-.54.14.1.28.21.43.29,0,0,0,.02,0,.03C6.47,42.88,0,20.75,0,20.75c0,0,.06.04.2.08.06.02.12.05.18.07Z"/>
          <path class="cls-5" d="m24.71,37.27s-.01,0-.02,0c0,0,0-.02,0-.03.01,0,.02.01.03.02Z"/>
          <path class="cls-4" d="m24.71,37.27s-.01,0-.02,0c0,0,0-.02,0-.03.01,0,.02.01.03.02Z"/>
          <path class="cls-5" d="m25.23,37.03s.03.03.04.04c0,0-.02-.02-.04-.04Z"/>
          <path class="cls-4" d="m25.23,37.03s.03.03.04.04c0,0-.02-.02-.04-.04Z"/>
          <path class="cls-5" d="m25.22,37.02s0,0,0,0c0,0,0,0,0,0Z"/>
          <path class="cls-4" d="m25.22,37.02s0,0,0,0c0,0,0,0,0,0Z"/>
          <path class="cls-5" d="m25.09,36.88s.02.02.03.04c-.01-.01-.02-.02-.03-.04Z"/>
          <path class="cls-4" d="m25.09,36.88s.02.02.03.04c-.01-.01-.02-.02-.03-.04Z"/>
          <path class="cls-5" d="m0,20.75c.07.03.14.05.2.08-.14-.05-.2-.08-.2-.08Z"/>
          <path class="cls-2" d="m0,20.75c.07.03.14.05.2.08-.14-.05-.2-.08-.2-.08Z"/>
          <path class="cls-4" d="m0,20.75c.07.03.14.05.2.08-.14-.05-.2-.08-.2-.08Z"/>
          <path class="cls-6" d="m25.23,37.03s0,0,0,0c0,0,0,0,0,0-.02-.03-.05-.06-.09-.1-.01-.01-.02-.02-.03-.04,0,0,0,0-.01-.01.13.14.2.22.2.22,0,0,0,0-.02-.02,0,0-.02-.02-.04-.04Z"/>
          <path class="cls-2" d="m25.23,37.03s0,0,0,0c0,0,0,0,0,0-.02-.03-.05-.06-.09-.1-.01-.01-.02-.02-.03-.04,0,0,0,0-.01-.01.13.14.2.22.2.22,0,0,0,0-.02-.02,0,0-.02-.02-.04-.04Z"/>
          <path class="cls-4" d="m25.23,37.03s0,0,0,0c0,0,0,0,0,0-.02-.03-.05-.06-.09-.1-.01-.01-.02-.02-.03-.04,0,0,0,0-.01-.01.13.14.2.22.2.22,0,0,0,0-.02-.02,0,0-.02-.02-.04-.04Z"/>
          <path class="cls-5" d="m24.68,37.25c-.14-.08-.28-.19-.43-.29.1-.02.19-.04.29-.07.05.12.09.24.14.36Z"/>
          <path class="cls-3" d="m24.68,37.25c-.14-.08-.28-.19-.43-.29.1-.02.19-.04.29-.07.05.12.09.24.14.36Z"/>
          <path class="cls-4" d="m24.68,37.25c-.14-.08-.28-.19-.43-.29.1-.02.19-.04.29-.07.05.12.09.24.14.36Z"/>
          <path class="cls-5" d="m.73,21.16c.03.12.06.25.1.37-.06-.04-.13-.09-.19-.13-.15-.11-.32-.27-.28-.46,0-.02,0-.03.02-.04.11.04.22.09.33.13,0,.04.01.08.02.12Z"/>
          <path class="cls-3" d="m.73,21.16c.03.12.06.25.1.37-.06-.04-.13-.09-.19-.13-.15-.11-.32-.27-.28-.46,0-.02,0-.03.02-.04.11.04.22.09.33.13,0,.04.01.08.02.12Z"/>
          <path class="cls-4" d="m.73,21.16c.03.12.06.25.1.37-.06-.04-.13-.09-.19-.13-.15-.11-.32-.27-.28-.46,0-.02,0-.03.02-.04.11.04.22.09.33.13,0,.04.01.08.02.12Z"/>
          <path class="cls-5" d="m24.54,36.89c.15-.04.31-.07.46-.11.03.03.05.05.08.08,0,0,0,.01.01.02.01.01.02.02.03.04.04.04.07.07.09.1,0,0,0,0,0,0,0,0,0,0,0,0,.02.02.03.03.04.04,0,.01.02.02.02.02-.19.06-.38.12-.57.18-.01,0-.02-.01-.03-.02-.05-.12-.09-.24-.14-.36Z"/>
          <path class="cls-3" d="m24.54,36.89c.15-.04.31-.07.46-.11.03.03.05.05.08.08,0,0,0,.01.01.02.01.01.02.02.03.04.04.04.07.07.09.1,0,0,0,0,0,0,0,0,0,0,0,0,.02.02.03.03.04.04,0,.01.02.02.02.02-.19.06-.38.12-.57.18-.01,0-.02-.01-.03-.02-.05-.12-.09-.24-.14-.36Z"/>
          <path class="cls-4" d="m24.54,36.89c.15-.04.31-.07.46-.11.03.03.05.05.08.08,0,0,0,.01.01.02.01.01.02.02.03.04.04.04.07.07.09.1,0,0,0,0,0,0,0,0,0,0,0,0,.02.02.03.03.04.04,0,.01.02.02.02.02-.19.06-.38.12-.57.18-.01,0-.02-.01-.03-.02-.05-.12-.09-.24-.14-.36Z"/>
          <path class="cls-6" d="m25.28,37.09s0,0-.02-.02c0,.01.02.02.02.02Z"/>
          <path class="cls-2" d="m25.28,37.09s0,0-.02-.02c0,.01.02.02.02.02Z"/>
          <path class="cls-3" d="m25.28,37.09s0,0-.02-.02c0,.01.02.02.02.02Z"/>
          <path class="cls-4" d="m25.28,37.09s0,0-.02-.02c0,.01.02.02.02.02Z"/>
          <path class="cls-6" d="m25.09,36.88s0-.01-.01-.02c0,0,0,0,0,0,0,0,0,0,.01.01Z"/>
          <path class="cls-2" d="m25.09,36.88s0-.01-.01-.02c0,0,0,0,0,0,0,0,0,0,.01.01Z"/>
          <path class="cls-3" d="m25.09,36.88s0-.01-.01-.02c0,0,0,0,0,0,0,0,0,0,.01.01Z"/>
          <path class="cls-4" d="m25.09,36.88s0-.01-.01-.02c0,0,0,0,0,0,0,0,0,0,.01.01Z"/>
          <path class="cls-6" d="m25.12,36.92s.07.07.09.1c-.02-.03-.05-.06-.09-.1Z"/>
          <path class="cls-2" d="m25.12,36.92s.07.07.09.1c-.02-.03-.05-.06-.09-.1Z"/>
          <path class="cls-3" d="m25.12,36.92s.07.07.09.1c-.02-.03-.05-.06-.09-.1Z"/>
          <path class="cls-4" d="m25.12,36.92s.07.07.09.1c-.02-.03-.05-.06-.09-.1Z"/>
          <path class="cls-6" d="m25.22,37.03s0,0,0,0c0,0,0,0,0,0Z"/>
          <path class="cls-2" d="m25.22,37.03s0,0,0,0c0,0,0,0,0,0Z"/>
          <path class="cls-3" d="m25.22,37.03s0,0,0,0c0,0,0,0,0,0Z"/>
          <path class="cls-4" d="m25.22,37.03s0,0,0,0c0,0,0,0,0,0Z"/>
        </g>
      </g>
    </g>
  </g>
</svg>