<?xml version="1.0" encoding="UTF-8"?>
<svg id="Layer_2" data-name="Layer 2" xmlns="http://www.w3.org/2000/svg" viewBox="0 0 110.02 88.75">
  <defs>
    <style>
      .cls-1 {
        fill: #d79d64;
        stroke-width: 0px;
      }
    </style>
  </defs>
  <g id="Layer_1-2" data-name="Layer 1">
    <g>
      <path class="cls-1" d="m44.3,88.7c-3.44.24-6.9-.29-10.3-1.07-5.56-1.28-10.67-3.66-15.35-6.95-3.2-2.25-5.94-4.98-8.48-7.94-3.34-3.89-5.75-8.31-7.53-13.07-1.33-3.56-2.22-7.26-2.45-11.06-.15-2.43-.25-4.87-.1-7.29.13-2.14.61-4.26.98-6.38.67-3.79,2.08-7.33,3.81-10.74,3.19-6.25,7.65-11.45,13.29-15.6C23.92,4.35,30.35,1.74,37.4.6c3.28-.53,6.59-.75,9.88-.5,3.08.24,6.15.73,9.15,1.58,5.88,1.67,11.19,4.42,15.93,8.24,3.09,2.49,5.71,5.46,8.13,8.61.4.52.36.8-.21,1.12-1.98,1.11-3.96,2.24-5.92,3.4-.58.35-.86.16-1.26-.28-1.72-1.91-3.39-3.88-5.26-5.63-2.3-2.13-4.97-3.76-7.78-5.17-3.74-1.88-7.73-3-11.85-3.48-3.82-.44-7.65-.17-11.44.67-4.46.98-8.59,2.68-12.36,5.22-4.78,3.23-8.64,7.33-11.47,12.38-2.13,3.81-3.54,7.84-4.2,12.17-.7,4.61-.47,9.14.52,13.68.95,4.38,2.77,8.35,5.28,12.04,3.64,5.34,8.36,9.45,14.17,12.27,4.56,2.21,9.38,3.42,14.48,3.55,6.42.17,12.45-1.25,18.1-4.26,5.22-2.78,9.52-6.61,12.85-11.53,3.29-4.85,5.31-10.17,6.03-15.97.79-6.32-.15-12.41-2.62-18.27-.13-.3-.23-.52.15-.73,2.08-1.18,4.14-2.38,6.21-3.58.69-.4.71-.39,1.04.35,2.18,4.9,3.37,10.03,3.66,15.4.41,7.74-1.03,15.08-4.38,22.06-2.24,4.67-5.28,8.77-8.98,12.38-5.56,5.44-12.13,9.13-19.66,11.06-3.66.94-7.38,1.54-11.27,1.32Z"/>
      <path class="cls-1" d="m65.6,28.06c-.76.46-1.52.93-2.28,1.38-1.71.99-3.44,1.95-5.13,2.97-.52.32-.82.25-1.23-.17-3.52-3.58-7.82-5.58-12.83-5.45-7.84.2-14.3,4.94-16.58,12.55-2.1,7-.26,13.04,4.92,18.04,2.64,2.55,5.89,4,9.57,4.5,5.26.71,9.86-.76,13.8-4.17,3.88-3.36,5.93-7.71,6.12-12.88.06-1.66-.03-3.31-.6-4.9-.13-.37-.09-.67.28-.88,2.49-1.43,4.98-2.87,7.47-4.3.05-.03.13-.03.29-.06,1.56,3.9,2.12,7.96,1.71,12.12-.77,7.75-4.19,14.08-10.33,18.93-11.66,9.2-29.64,6.9-38.49-5.82-8.55-12.27-5.67-29.81,7.48-38.18,12.91-8.22,28.75-3.63,35.84,6.32Z"/>
      <path class="cls-1" d="m104.69,3.78c-.3,1.69-.6,3.38-.9,5.07-.08.45-.15.91-.27,1.35-.19.66.09,1,.71,1.17,1.75.46,3.51.93,5.26,1.39.15.04.28.11.54.21-1.71,1.01-3.32,1.98-4.94,2.91-2.84,1.64-5.69,3.28-8.56,4.89-.29.16-.74.16-1.07.08-1.18-.28-2.34-.66-3.53-.93-.34-.08-.79.01-1.09.19-5.82,3.33-11.64,6.68-17.44,10.04-2.55,1.47-5.08,2.97-7.62,4.44-6.12,3.55-12.24,7.1-18.36,10.65-.65.38-1.27.79-2.11.69-.93-.11-1.43-.43-1.69-1.26-.26-.82-.04-1.7.64-2.16.72-.49,1.49-.91,2.25-1.34,3.05-1.75,6.1-3.5,9.14-5.26,6.44-3.72,12.88-7.46,19.33-11.18,4.64-2.68,9.29-5.33,13.91-8.03.33-.19.62-.61.74-.98.35-1.16.58-2.36.93-3.53.09-.31.35-.66.63-.82,4.04-2.33,8.09-4.64,12.14-6.95.41-.24.81-.5,1.21-.75.05.03.11.07.16.1Z"/>
      <path class="cls-1" d="m49.52,37.44c-.6.34-1.2.67-1.78,1.01-1.46.87-2.95,1.69-4.37,2.63-1.3.86-1.74,2.18-1.42,3.68.33,1.56,1.34,2.52,2.9,2.9.97.24,1.87.05,2.71-.44,1.59-.92,3.18-1.84,4.77-2.76.15-.09.32-.14.49-.22.45,2.27-1.43,6.68-5.16,8.11-4.19,1.61-9.22.25-11.47-4.34-1.91-3.9-.39-8.99,3.48-11.31,3.6-2.16,8.36-.99,9.84.74Z"/>
    </g>
  </g>
</svg>