<?xml version="1.0" encoding="UTF-8"?>
<svg xmlns="http://www.w3.org/2000/svg" xmlns:xlink="http://www.w3.org/1999/xlink" viewBox="0 0 187.65 177.64">
  <defs>
    <style>
      .cls-1 {
        clip-path: url(#clippath);
      }

      .cls-2, .cls-3 {
        fill: none;
      }

      .cls-2, .cls-4, .cls-5 {
        stroke-width: 0px;
      }

      .cls-6 {
        clip-path: url(#clippath-1);
      }

      .cls-3 {
        opacity: .31;
        stroke: #c6a067;
        stroke-miterlimit: 10;
        stroke-width: 5px;
      }

      .cls-7 {
        isolation: isolate;
      }

      .cls-8 {
        mix-blend-mode: multiply;
        opacity: .25;
      }

      .cls-4 {
        fill: #c6a067;
      }

      .cls-5 {
        fill: #8d8064;
      }
    </style>
    <clipPath id="clippath">
      <rect class="cls-2" width="187.65" height="177.64"/>
    </clipPath>
    <clipPath id="clippath-1">
      <rect class="cls-2" x="0" y="0" width="1024" height="687.85"/>
    </clipPath>
  </defs>
  <g class="cls-7">
    <g id="Layer_2" data-name="Layer 2">
      <g id="Layer_1-2" data-name="Layer 1">
        <g class="cls-1">
          <g class="cls-6">
            <g>
              <line class="cls-3" x1="154.13" y1="-63.03" x2="-71" y2="140.45"/>
              <line class="cls-3" x1="195.26" y1="-82.52" x2="-29.87" y2="120.97"/>
              <line class="cls-3" x1="194.18" y1="-120.4" x2="-30.95" y2="83.09"/>
            </g>
            <g class="cls-8">
              <ellipse class="cls-5" cx="164.68" cy="35.52" rx="13.75" ry="13.19"/>
              <path class="cls-5" d="m164.68,57.09c-12.4,0-22.49-9.68-22.49-21.57s10.09-21.57,22.49-21.57,22.49,9.68,22.49,21.57-10.09,21.57-22.49,21.57Zm0-38.92c-9.98,0-18.09,7.78-18.09,17.35s8.12,17.35,18.09,17.35,18.09-7.78,18.09-17.35-8.12-17.35-18.09-17.35Z"/>
            </g>
            <g>
              <g>
                <path class="cls-4" d="m2.66,133.31c1.62,1.62,1.62,4.25,0,5.87-1.62,1.62-4.25,1.62-5.87,0-1.62-1.62-1.62-4.25,0-5.87,1.62-1.62,4.25-1.62,5.87,0Z"/>
                <path class="cls-4" d="m18.38,117.6c1.62,1.62,1.62,4.25,0,5.87-1.62,1.62-4.25,1.62-5.87,0s-1.62-4.25,0-5.87c1.62-1.62,4.25-1.62,5.87,0Z"/>
                <path class="cls-4" d="m34.09,101.89c1.62,1.62,1.62,4.25,0,5.87-1.62,1.62-4.25,1.62-5.87,0s-1.62-4.25,0-5.87c1.62-1.62,4.25-1.62,5.87,0Z"/>
                <path class="cls-4" d="m49.8,86.18c1.62,1.62,1.62,4.25,0,5.87-1.62,1.62-4.25,1.62-5.87,0-1.62-1.62-1.62-4.25,0-5.87s4.25-1.62,5.87,0Z"/>
                <path class="cls-4" d="m65.51,70.47c1.62,1.62,1.62,4.25,0,5.87-1.62,1.62-4.25,1.62-5.87,0-1.62-1.62-1.62-4.25,0-5.87,1.62-1.62,4.25-1.62,5.87,0Z"/>
              </g>
              <g>
                <path class="cls-4" d="m2.88,149.89c1.62,1.62,1.62,4.25,0,5.87-1.62,1.62-4.25,1.62-5.87,0-1.62-1.62-1.62-4.25,0-5.87,1.62-1.62,4.25-1.62,5.87,0Z"/>
                <path class="cls-4" d="m18.59,134.18c1.62,1.62,1.62,4.25,0,5.87-1.62,1.62-4.25,1.62-5.87,0-1.62-1.62-1.62-4.25,0-5.87,1.62-1.62,4.25-1.62,5.87,0Z"/>
                <path class="cls-4" d="m34.3,118.46c1.62,1.62,1.62,4.25,0,5.87s-4.25,1.62-5.87,0c-1.62-1.62-1.62-4.25,0-5.87,1.62-1.62,4.25-1.62,5.87,0Z"/>
                <path class="cls-4" d="m50.01,102.75c1.62,1.62,1.62,4.25,0,5.87-1.62,1.62-4.25,1.62-5.87,0-1.62-1.62-1.62-4.25,0-5.87,1.62-1.62,4.25-1.62,5.87,0Z"/>
                <path class="cls-4" d="m65.73,87.04c1.62,1.62,1.62,4.25,0,5.87-1.62,1.62-4.25,1.62-5.87,0s-1.62-4.25,0-5.87c1.62-1.62,4.25-1.62,5.87,0Z"/>
              </g>
            </g>
          </g>
        </g>
      </g>
    </g>
  </g>
</svg>