<?xml version="1.0" encoding="UTF-8"?>
<svg xmlns="http://www.w3.org/2000/svg" xmlns:xlink="http://www.w3.org/1999/xlink" viewBox="0 0 316.59 387.14">
  <defs>
    <style>
      .cls-1 {
        clip-path: url(#clippath);
      }

      .cls-2, .cls-3, .cls-4, .cls-5, .cls-6, .cls-7, .cls-8, .cls-9, .cls-10 {
        stroke-width: 0px;
      }

      .cls-2, .cls-11 {
        fill: none;
      }

      .cls-12 {
        clip-path: url(#clippath-1);
      }

      .cls-3 {
        opacity: .44;
      }

      .cls-3, .cls-10 {
        fill: #7e992c;
      }

      .cls-4, .cls-5, .cls-13 {
        mix-blend-mode: multiply;
      }

      .cls-4, .cls-6 {
        opacity: .31;
      }

      .cls-4, .cls-7 {
        fill: #6f8c2d;
      }

      .cls-11 {
        stroke: #8d8064;
        stroke-miterlimit: 10;
      }

      .cls-5 {
        fill: #8d8064;
      }

      .cls-5, .cls-13 {
        opacity: .25;
      }

      .cls-14 {
        isolation: isolate;
      }

      .cls-6 {
        mix-blend-mode: screen;
      }

      .cls-6, .cls-9 {
        fill: #90b948;
      }

      .cls-8 {
        fill: #c6a067;
      }
    </style>
    <clipPath id="clippath">
      <rect class="cls-2" x="0" width="316.59" height="387.14"/>
    </clipPath>
    <clipPath id="clippath-1">
      <rect class="cls-2" x="-707.41" y="0" width="1024" height="687.85"/>
    </clipPath>
  </defs>
  <g class="cls-14">
    <g id="Layer_2" data-name="Layer 2">
      <g id="Layer_1-2" data-name="Layer 1">
        <g class="cls-1">
          <g class="cls-12">
            <path class="cls-5" d="m359.54-106.59s38.94,124.92-38.48,200.41c-77.43,75.49-129.97-63.39-213.37,3.9C24.29,165.01-34.97,68.64,68.83-.7c103.8-69.34,290.71-105.9,290.71-105.9Z"/>
            <path class="cls-8" d="m404.41,15.09s20.8,49.08-36.13,76.01c-56.93,26.93-133.8-47.72-195.78-7.39C110.54,124.04,30.73,47.2,89.12-27.71,147.5-102.61,404.41,15.09,404.41,15.09Z"/>
            <g class="cls-13">
              <g>
                <path class="cls-11" d="m358.45,435.09c-109.64-82.96-93.63-223.23-135.35-341.86-20.41-58.02-53.04-144.24-108.55-177.97C54.71-121.1-21.92-56.77-69.98-26.88"/>
                <path class="cls-11" d="m363.82,427.26c-111.25-81.42-96.01-221.38-136.47-340.3-19.73-58-51.48-141.91-106.39-176.01C60.78-126.43-16.13-64.84-65.34-34.77"/>
                <path class="cls-11" d="m369.09,417.66c-112.96-79.14-98.85-218.09-138.24-336.87-19.29-58.16-50.23-139.76-104.48-174.62C65.89-132.7-11.22-74.69-61.98-44.52"/>
                <path class="cls-11" d="m374.27,406.49c-55.63-36.94-84.55-85.02-99.52-149.25-14.19-60.88-21.64-122.82-41.07-182.5-19.03-58.47-49.28-137.81-102.79-173.75C70.18-139.8-7.09-86.1-59.79-55.94"/>
                <path class="cls-11" d="m379.38,393.94c-56.1-34.97-86.43-81.29-102.13-144.81-14.83-60-22.32-121.3-41.31-180.35-18.93-58.88-48.61-136.08-101.3-173.34-60.87-43.05-138.25,5.69-193.25,35.74"/>
                <path class="cls-11" d="m384.42,380.18c-56.51-32.75-88.43-77-104.99-139.67-15.56-58.9-23.16-119.39-41.76-177.6-18.96-59.35-48.17-134.58-99.98-173.32-60.95-45.57-138.39-2.35-196.02,27.45"/>
                <path class="cls-11" d="m389.41,365.4c-56.83-30.32-90.5-72.24-108.04-133.95-16.38-57.6-24.14-117.15-42.38-174.34-19.1-59.87-47.92-133.31-98.81-173.64C79.24-164.82,1.78-127.56-58.79-98.18"/>
                <path class="cls-11" d="m394.35,349.8c-57.06-27.75-92.62-67.1-111.26-127.76-17.25-56.14-25.22-114.64-43.14-170.68-19.32-60.39-47.83-132.28-97.76-174.23-60.83-51.11-138.31-20.17-202.05,8.59"/>
                <path class="cls-11" d="m399.26,333.54c-57.18-25.09-94.76-61.66-114.61-121.19-18.18-54.53-26.39-111.92-44.02-166.7-19.6-60.91-47.84-131.46-96.8-175.03-60.66-53.99-138.15-29.61-205.24-1.68"/>
                <path class="cls-11" d="m404.14,316.82c-57.18-22.39-96.89-56.01-118.05-114.35-19.15-52.81-27.62-109.04-44.97-162.48-19.94-61.41-47.91-130.84-95.9-175.99-60.44-56.86-137.96-39.19-208.51-12.32"/>
                <path class="cls-11" d="m409.01,299.82c-57.06-19.7-99-50.25-121.55-107.36-20.14-51-28.89-106.07-45.97-158.13-20.3-61.88-48-130.38-95.05-177.04-60.18-59.69-137.78-48.77-211.83-23.19"/>
                <path class="cls-11" d="m413.87,282.74c-56.84-17.07-101.04-44.48-125.06-100.31-21.14-49.13-30.17-103.07-46.99-153.74-20.72-62.41-48.14-129.86-94.21-178.12-59.72-62.56-137.82-58.15-215.16-34.13"/>
                <path class="cls-11" d="m418.74,265.74c-56.53-14.54-103.02-38.78-128.56-93.31-22.12-47.24-31.44-100.1-47.99-149.39-21.1-62.85-48.23-129.49-93.35-179.17-59.31-65.29-137.88-67.32-218.48-44.99"/>
                <path class="cls-11" d="m423.62,249.02c-57.3-12.38-106.29-34.04-133.21-88.76-22.11-44.94-31.76-95.72-47.78-142.94-21.84-64.37-49.09-132.02-95.16-183.18-59.21-65.75-136.6-72.79-219-52.53"/>
                <path class="cls-11" d="m428.53,232.76c-56.83-10.13-108.17-28.66-136.6-82.09-22.98-43.18-32.88-93.05-48.61-139.06-22.11-64.67-48.97-131.87-94.22-184.13-59.05-68.19-136.69-81.12-222.17-62.66"/>
                <path class="cls-11" d="m433.47,217.16c-56.55-8.1-109.72-23.67-139.86-75.8-23.93-41.38-33.93-90.65-49.33-135.49-22.28-64.9-48.71-131.67-93.19-184.86-58.93-70.47-136.89-88.94-225.23-72.28"/>
                <path class="cls-11" d="m438.46,202.38c-56.12-6.27-111.4-19.04-142.96-70C270.83,92.55,260.65,43.93,245.6.07c-22.32-65.05-48.3-131.36-92.05-185.31-58.87-72.58-137.18-96.17-228.15-81.25"/>
                <path class="cls-11" d="m443.5,188.62c-55.74-4.66-112.99-14.89-145.85-64.79-25.33-38.47-35.64-86.59-50.32-129.65-22.2-65.11-47.71-130.91-90.75-185.4-58.85-74.5-137.56-102.74-230.9-89.42"/>
                <path class="cls-11" d="m448.61,176.07c-55.46-3.29-114.48-11.26-148.5-60.28-25.91-37.33-36.26-85.12-50.52-127.55C198.42-164.01,111.25-316.53-73.14-293.51"/>
                <path class="cls-11" d="m453.8,164.9c-54.31-2.1-114.36-7.87-149.5-54.71-27.47-36.63-37.78-85.25-51.84-127.95C202.22-170.34,113.63-325.58-70.95-304.92"/>
                <path class="cls-11" d="m459.07,155.3c-54.27-1.23-115.62-5.52-151.53-51.96-27.87-36.04-38.03-84.72-51.58-127.26C207.25-176.91,116.5-333.5-67.59-314.68"/>
                <path class="cls-11" d="m464.43,147.47c-54.36-.61-116.77-3.87-153.21-50.23-28.16-35.83-38.04-84.79-51.01-127.44C213.59-183.47,120.05-340.36-62.95-322.57"/>
              </g>
            </g>
            <g>
              <g>
                <path class="cls-9" d="m183.52,114.45s8.78,2.37,30.76-3.03c18.11-4.46,43.27-16.56,54.44-23.02,2.4-1.38,4.15-2.51,5.05-3.24,0,0-15.12,1.05-24.77-1.59-9.63-2.64-23.08-2.95-34.88,5.33-9.67,6.79-17,18.32-25.11,23.32-1.78,1.1-3.61,1.88-5.5,2.23Z"/>
                <path class="cls-3" d="m261.06,89.72c-2.71-.02-5.43-.03-8.14-.04.36,1.07,1.31,1.92,2.41,2.15.36.08.87.31.7.64-.04.09-.13.14-.21.2-2.85,1.82-5.93,3.72-9.32,3.6-2.83-.1-5.86-1.58-8.32-.18,1.94,1.08,4.04,1.88,6.22,2.36-1.97.98-3.94,1.96-5.9,2.94-.92.46-1.86.92-2.88,1.06-1.57.21-3.11-.39-4.65-.77-1.53-.38-3.31-.51-4.55.48,1.56.59,3.12,1.18,4.68,1.77-.15.94-1.19,1.42-2.09,1.73-1.8.63-3.61,1.26-5.41,1.89-.86.3-1.73.6-2.64.7-3.4.37-6.93-2.13-10.08-.8,1.84.69,3.68,1.39,5.53,2.08-6.04,2.51-12.79,3.3-19.25,2.26.82.97,2.04,1.49,3.21,1.97-2.71.07-5.4.55-7.97,1.42.75,1.06,2.28,1.12,3.58,1.07,7.27-.26,14.63-.54,21.57-2.71,3.9-1.22,7.59-3.01,11.39-4.51,3.86-1.52,7.83-2.71,11.76-4.04,3.65-1.23,7.26-2.57,10.83-4.02,4.72-1.91,9.41-4.05,13.59-7,1.95-1.38,4.26-3.04,5.67-5.01,1.55-2.17-1.41-.81-2.44-.38-2.35.98-4.73,1.15-7.26,1.13Z"/>
                <path class="cls-6" d="m189.02,112.22c.53-.06,1.07-.19,1.51-.34,2.03-.7,3.76-2.14,5.33-3.55,2.64-2.36,5.17-4.84,7.58-7.42,2.58-2.78,5.1-5.73,8.43-7.55,2.04-1.12,4.31-1.77,6.36-2.85,2.18-1.14,4.1-2.76,6.4-3.6,2.45-.9,5.13-.84,7.7-1.27,2.23-.38,4.39-1.12,6.63-1.38,3.11-.35,6.23.26,9.31.82,4.97.92,9.95,1.75,14.93,2.57,1.82.31,3.67.61,5.52.75,2.4-1.38,4.15-2.51,5.05-3.24,0,0-15.12,1.05-24.77-1.59-9.63-2.64-23.08-2.95-34.88,5.33-9.67,6.79-17,18.32-25.11,23.32Z"/>
                <path class="cls-7" d="m183.52,114.45s.54.3,1.53.81c6.42,3.3,31.75,14.99,50.29,4.53,19.48-10.98,28.46-20.9,36.2-31.51.76-1.03,1.5-2.08,2.24-3.13-1.41,1.14-4.89,3.24-9.65,5.79-12.52,6.71-33.92,16.55-49.85,20.47-11.1,2.73-18.83,3.47-23.76,3.54-4.85.07-7-.51-7-.51Z"/>
                <path class="cls-4" d="m193.74,117.09c4.89.11,9.8-.58,14.46-2.05.57-.18,1.36-.28,1.59.27-.48.82-.95,1.63-1.44,2.45-.18.29-.34.72-.09.95.13.13.32.15.49.15,2.37.04,4.3-1.79,6.01-3.43,1.71-1.65,3.86-3.33,6.19-2.9-1.04.39-1.96,1.12-2.58,2.05,1.43.65,2.97-.5,4.2-1.46,2.48-1.94,5.33-3.41,8.35-4.3,1.45-.43,2.94-.73,4.31-1.35,1.13-.51,2.15-1.24,3.17-1.95-1.2,3.31-3.66,6.13-6.76,7.79-.12.66.96.7,1.55.4,6.89-3.55,11.44-10.78,18.57-13.82,1.19-.51,2.44-.89,3.7-1.14-.06,1.33-.75,2.62-1.81,3.4.87.66,2.04-.23,2.75-1.06,1.93-2.1,3.72-4.34,5.58-6.51,1.47-1.71,2.33-2.36,2.13-3.63-12.52,6.71-33.92,16.55-49.85,20.47-11.1,2.73-18.83,3.47-23.76,3.54,0,.06,0,.12,0,.18,0,1.4,1.83,1.92,3.23,1.95Z"/>
                <path class="cls-6" d="m185.04,115.26c6.42,3.3,31.75,14.99,50.29,4.53,19.48-10.98,28.46-20.9,36.2-31.51-.08.01-.15.04-.23.06-2.43.75-3.85,4.75-5.34,6.59-1.23,1.5-2.72,2.76-4.19,4.02-9.35,7.95-18.91,16.03-30.26,20.7-1.52.63-3.09,1.19-4.72,1.43-2.21.32-4.47.04-6.69.23-1.52.12-3.01.47-4.53.55-1.78.1-3.56-.16-5.32-.43-8.59-1.29-17.3-2.62-25.21-6.17Z"/>
                <path class="cls-9" d="m278.7,79.33l-.18.19-.26.27-.57.54c-.39.36-.78.72-1.18,1.07-.8.71-1.62,1.41-2.45,2.11-.85.72-1.59,1.33-2.49,1.91-.88.59-1.79,1.15-2.71,1.71-3.69,2.21-7.5,4.26-11.35,6.24-7.7,3.96-15.56,7.61-23.57,10.9-8.02,3.27-16.2,6.16-24.68,7.98-4.22.95-8.49,1.73-12.8,2.2-2.15.25-4.32.38-6.48.43-2.16.02-4.35-.01-6.48-.44,2.12.47,4.31.55,6.48.58,2.17,0,4.35-.08,6.51-.29,4.33-.37,8.63-1.06,12.9-1.92,8.55-1.63,16.86-4.36,24.98-7.46,8.12-3.12,16.09-6.62,23.92-10.42,3.91-1.91,7.79-3.88,11.6-6.05.95-.55,1.9-1.1,2.83-1.7.94-.58,1.9-1.32,2.72-1.99.85-.68,1.7-1.37,2.54-2.08.42-.35.84-.71,1.25-1.08l.63-.57.32-.3.16-.16c.06-.07.09-.09.21-.24l-1.86-1.43Z"/>
              </g>
              <path class="cls-9" d="m163,41.51c2.94,2.23,5.94,4.39,8.97,6.51,9.32,6.49,19.01,12.48,29.19,17.6,2.51,1.33,5.12,2.48,7.7,3.71l3.93,1.69,1.96.84,2,.77c5.29,2.16,10.77,3.84,16.29,5.35,5.52,1.46,11.13,2.59,16.78,3.49,5.65.88,11.36,1.39,17.09,1.61,11.46.43,23-.56,34.23-3.1,5.62-1.25,11.14-2.94,16.54-5.01,2.69-1.05,5.35-2.2,7.96-3.47,1.3-.64,2.59-1.31,3.87-2.02,1.29-.72,2.51-1.43,3.84-2.34l-2.74-3.81c-1,.7-2.22,1.46-3.39,2.13-1.18.69-2.39,1.35-3.62,1.98-2.45,1.25-4.98,2.4-7.54,3.45-5.15,2.08-10.45,3.79-15.86,5.1-10.81,2.64-22.01,3.79-33.18,3.57-5.59-.12-11.18-.52-16.74-1.28-5.54-.78-11.06-1.79-16.52-3.13-5.42-1.39-10.81-2.95-16.06-4.97l-1.98-.72-1.95-.8-3.9-1.59c-2.55-1.16-5.15-2.25-7.66-3.53-10.15-4.88-19.86-10.65-29.23-16.95-3-2.02-5.96-4.09-8.89-6.22l-1.08,1.17Z"/>
              <g>
                <path class="cls-7" d="m185.85,56s-6.23-10.62-14.87-17.75c-8.64-7.13-24.78-5.05-34.07,1.34l48.94,16.4Z"/>
                <path class="cls-9" d="m129.07,43.56s.95.05,2.61.17c0,0,.02,0,.03,0,9.07.69,39.22,3.74,56,14.85,0,0-.35-.56-1.05-1.51-.57-.78-1.37-1.8-2.39-3,0,0-.01,0-.02-.01-3.69-4.3-10.28-10.7-19.68-15.02-14.21-6.53-27.67.14-34.18,3.78-.49.26-.93.52-1.33.74Z"/>
                <path class="cls-10" d="m131.71,43.73c9.07.69,39.22,3.74,56,14.85,0,0-.35-.56-1.05-1.51-.59-.29-1.21-.55-1.76-.9-2.5-1.63-4.21-4.3-6.98-5.53-.21-.09-.47-.17-.65-.05-.58.37.42,1.61-.23,1.85-3.84-1.07-7.78-2.19-11-4.53-1.76-1.29-3.94-5.21-5.43-3.61-.72.78,1.83,2.2,1.19,2.95-2.36-.49-4.72-.98-7.08-1.48-2.05-.43-4.14-.87-5.91-1.98-1.58-.98-3.24-2.53-5.01-1.95.31.72.79,1.38,1.37,1.89-.99.88-2.51.43-3.8.14-1.83-.4-3.72-.36-5.58-.31-1.35.03-2.7.07-4.06.16Z"/>
                <path class="cls-6" d="m130.4,42.82c.84-.38,1.66-.78,2.51-1.14,5.57-2.44,11.66-3.72,17.74-3.74,1.44,0,2.89.07,4.29.38,1.47.34,2.87.94,4.25,1.54,5.4,2.34,10.8,4.67,16.1,7.25,1.31.64,2.64,1.31,3.73,2.27,1.24,1.1,3.18,3.69,5.24,4.69-3.69-4.3-10.28-10.7-19.68-15.02-14.21-6.53-27.67.14-34.18,3.78Z"/>
              </g>
              <g>
                <path class="cls-7" d="m245.15,79.28c.07-.58.14-1.14.2-1.71,5.75-54.74-60.53-60.71-60.53-60.71.22.33.44.67.65,1,.19.28.37.57.56.85,24.7,37.59,52.52,56.41,58.11,59.95.66.42,1.01.62,1.01.62Z"/>
                <path class="cls-9" d="m243.01,79.62c1.37-.19,2.15-.34,2.15-.34,0,0-32.43-19.1-60.33-62.43,0,0,.27,2.93,1,7.51.25,1.54.54,3.26.91,5.13,2.27,11.8,6.96,29.05,15.98,39.04,7.96,8.84,19.82,11.24,28.98,11.6h0c4.86.19,8.96-.19,11.31-.5Z"/>
                <path class="cls-3" d="m243.01,79.62c1.37-.19,2.15-.34,2.15-.34,0,0-32.43-19.1-60.33-62.43,0,0,1.33,1.56,2.06,6.14.73.84,2.19,3,3.07,3.71,1.77,1.41,2.13,2.44,3.69,4.09,2.45,2.59,3.29,6.38,5.69,9.02,1.07,1.19,2.43,2.09,3.46,3.31,1.04,1.21,1.75,2.92,1.19,4.41-.16.43-.44.89-.3,1.33.08.25.28.45.47.62,2.68,2.5,5.74,4.59,9.04,6.19.96.47,1.99.92,2.64,1.77.65.85.75,2.22-.08,2.88-.95.76-2.93.65-2.86,1.87.03.45.4.8.78,1.06,1.97,1.34,4.51,1.46,6.74,2.3,4.25,1.6,7.25,5.72,11.63,6.97.91.26,1.89.41,2.59,1.02.7.62.88,1.94.06,2.4-.43.25-1.16.67-.75.96,3.36.52,6.56.83,9.06,2.69Z"/>
                <path class="cls-6" d="m231.69,80.12c-.12-.05-.23-.1-.34-.14-.94-.31-1.95-.3-2.93-.4-2.79-.29-5.38-1.55-7.9-2.79-1.92-.94-3.85-1.9-5.78-2.84-1.39-.69-2.8-1.37-4.07-2.28-1.54-1.1-2.86-2.51-4.15-3.9-1.93-2.08-3.86-4.15-5.79-6.22-.78-.83-1.55-1.67-2.19-2.6-.83-1.2-1.43-2.54-2.02-3.87-1.17-2.65-2.35-5.3-3.53-7.96-1.43-3.24-2.88-6.49-3.92-9.88-.57-1.83-1.02-3.71-1.62-5.54-.2-.6-.39-1.51-.72-2.21,2.27,11.8,6.96,29.05,15.98,39.04,7.96,8.84,19.82,11.24,28.98,11.6Z"/>
                <path class="cls-4" d="m245.15,79.28c.07-.58.14-1.14.2-1.71-.43-.53-1.07-1-1.52-1.52-1-1.16-1.79-2.5-2.3-3.94-.55-1.56-.94-3.42-2.41-4.15-.53,1.16-.42,2.59.26,3.67-2.53.31-4.6-2.09-5.54-4.46-.95-2.37-1.36-5.07-3.05-6.98-.12-.14-.29-.29-.47-.26-.19.03-.29.24-.36.43-.44,1.15-.89,2.31-1.33,3.47-4.69-2.22-8.41-6.4-10.07-11.32-.6-1.77-.99-3.71-2.3-5.04-.82.3-.18,1.78-.87,2.32-.51.39-1.21-.08-1.67-.53-1.82-1.77-3.64-3.55-5.46-5.33-.96-.94-1.95-1.92-2.49-3.15-.82-1.89-.48-4.07-.93-6.08-.07-.33-.18-.66-.43-.88-.5-.41-1.27-.14-1.76.28-.49.42-.89.98-1.5,1.21-1.49.55-2.74-1.2-3.43-2.62-2.64-5.4-6.29-10.29-10.7-14.36-.4-.37-.95-.75-1.44-.53-.04.02-.07.04-.11.07,27.74,42.62,59.68,61.42,59.68,61.42Z"/>
                <path class="cls-6" d="m245.15,79.28c.07-.58.14-1.14.2-1.71,5.75-54.74-60.53-60.71-60.53-60.71.22.33.44.67.65,1,.19.28.37.57.56.85.12-.01.24-.02.35-.01,3.55.16,7.3,1.13,10.75,1.93,7.03,1.64,13.92,4.14,20.01,8.09,1.75,1.14,3.44,2.4,5.12,3.66,7.51,5.68,15.12,11.92,18.9,20.54,3.5,7.98,3.28,17.03,2.98,25.74.66.42,1.01.62,1.01.62Z"/>
              </g>
            </g>
          </g>
        </g>
      </g>
    </g>
  </g>
</svg>