<?xml version="1.0" encoding="UTF-8"?>
<svg id="Layer_2" data-name="Layer 2" xmlns="http://www.w3.org/2000/svg" viewBox="0 0 96.99 96.63">
  <defs>
    <style>
      .cls-1 {
        fill: #d79d64;
        stroke-width: 0px;
      }
    </style>
  </defs>
  <g id="Layer_1-2" data-name="Layer 1">
    <g>
      <path class="cls-1" d="m58.49,0c21.27,0,38.48,17.03,38.5,38.12.02,21.26-17.3,38.58-38.57,38.56-21.12-.02-38.4-17.24-38.42-38.29C19.98,17.21,37.23,0,58.49,0Zm35.46,38.23c.04-19.4-15.68-35.1-35.25-35.2-19.64-.11-35.59,15.56-35.64,35.01-.05,19.57,15.81,35.45,35.45,35.49,19.47.04,35.4-15.82,35.44-35.3Z"/>
      <path class="cls-1" d="m22.98,60.09c2.17,2.56,4.04,5.07,6.23,7.26,2.19,2.19,4.69,4.06,7.27,6.25-4.78,5.88-9.66,11.88-14.45,17.78-5.64-5.61-11.19-11.13-16.95-16.85,5.88-4.74,11.9-9.59,17.9-14.44Z"/>
      <path class="cls-1" d="m2.44,77.33c5.73,5.55,11.39,11.03,17.06,16.52-4.2,3.85-10.94,3.66-15.48-.39-4.73-4.22-5.34-11.09-1.59-16.14Z"/>
      <path class="cls-1" d="m59.17,60.83c-6.51-.01-11.8-2.16-16.38-5.74-3.46-2.7-6.47-5.96-9.66-9-.81-.77-1.22-1.68-.34-2.73,5.57-6.72,11.97-12.27,20.68-14.52,4.77-1.23,9.44-.66,13.94,1.23,6.75,2.84,12.11,7.5,16.63,13.15.42.53.58,1.89.21,2.34-5.86,7.17-12.65,13.05-22.12,14.93-1.14.23-2.32.27-2.95.34Zm-.67-6.98c5.13,0,9.38-4.14,9.4-9.17.02-4.99-4.26-9.19-9.39-9.2-5.03-.01-9.2,4.08-9.24,9.08-.05,5.11,4.1,9.28,9.23,9.29Z"/>
      <path class="cls-1" d="m77.5,28.09c.81-.82,1.49-1.74,2.39-2.33.5-.33,1.36-.09,2.06-.11.02.69.27,1.51,0,2.05-.43.83-1.23,1.46-1.97,2.29,1.3,1.19,2.53,2.32,3.76,3.44.84.76,1.5,1.61.46,2.62-.96.93-1.75.27-2.51-.45-4.39-4.16-9.3-7.49-15.07-9.47-7.35-2.52-14.45-1.6-21.07,2.16-3.58,2.04-6.78,4.76-10.11,7.22-.83.61-1.57,1.7-2.63.64-1.11-1.11-.15-2,.67-2.77,1.13-1.07,2.3-2.1,3.57-3.26-.53-.58-1.03-1.14-1.55-1.7-.76-.81-1.43-1.68-.35-2.66.99-.89,1.78-.23,2.49.53.61.66,1.24,1.3,1.91,2,2.29-1.28,4.47-2.5,6.76-3.78-.52-1.02-1.15-1.89-1.38-2.86-.14-.59.34-1.33.54-2,.66.23,1.58.26,1.92.72,1.9,2.52,1.85,2.53,5.03,1.84,1.39-.3,2.8-.51,4.4-.8,0-.98-.19-1.99.06-2.88.2-.71.94-1.27,1.45-1.9.51.61,1.27,1.16,1.47,1.86.26.89.06,1.91.06,2.79,2.5.58,4.82,1.17,7.18,1.62.37.07.98-.4,1.27-.79.5-.66.72-1.58,1.3-2.14.41-.39,1.46-.69,1.79-.45.48.35.88,1.31.75,1.88-.22.98-.88,1.85-1.41,2.88,2.23,1.25,4.41,2.47,6.77,3.8Z"/>
      <path class="cls-1" d="m58.5,50.68c-3.42,0-6.21-2.79-6.18-6.18.03-3.42,2.81-6.18,6.22-6.18,3.43,0,6.29,2.76,6.33,6.1.04,3.4-2.87,6.25-6.37,6.26Z"/>
    </g>
  </g>
</svg>